<svg width="175" height="70" viewBox="0 0 175 70" fill="none" xmlns="http://www.w3.org/2000/svg">
<g clip-path="url(#clip0_35_399)">
<path d="M175 0H0V70H175V0Z" fill="white"/>
<path d="M59.0121 42.9731C56.7269 42.9731 54.8746 41.1041 54.8746 38.7982C54.8746 36.4925 56.7269 34.6232 59.0124 34.6232C61.2976 34.6232 63.1497 36.4925 63.1497 38.7982C63.1497 41.1041 61.2974 42.9731 59.0121 42.9731ZM63.163 43.5026C63.163 43.885 63.8266 44.959 64.6398 44.959H65.1665C65.3707 44.959 65.5376 44.794 65.5376 44.5926V33.1671H65.5357C65.5251 32.9732 65.3631 32.8212 65.1665 32.8205H63.5346C63.3371 32.8205 63.176 32.9748 63.1649 33.1671H63.163V34.0956C62.1634 32.8799 60.5868 32.3753 59.0059 32.3753C55.4126 32.3753 52.5 35.2508 52.5 38.7984C52.5 42.346 55.4126 45.2216 59.0059 45.2216C60.5868 45.2216 62.3097 44.6162 63.163 43.5013V43.5026ZM69.4367 41.8665C70.526 42.6113 71.7152 42.9731 72.8578 42.9731C73.9467 42.9731 75.0717 42.4158 75.0717 41.4462C75.0717 40.1518 72.6194 39.9502 71.0788 39.4333C69.5375 38.9164 68.2101 37.8475 68.2101 36.1167C68.2101 33.4687 70.6005 32.375 72.8315 32.375C74.245 32.375 75.7032 32.835 76.6488 33.4944C76.9747 33.7378 76.7762 34.0178 76.7762 34.0178L75.8736 35.2901C75.7723 35.4335 75.562 35.5479 75.3402 35.4022C74.732 35.0053 74.0548 34.6229 72.8312 34.6229C71.3167 34.6229 70.6506 35.2436 70.6506 36.0127C70.6506 36.9353 71.716 37.2252 72.964 37.5397C75.1392 38.1181 77.5122 38.8142 77.5122 41.4464C77.5122 43.7797 75.3012 45.2216 72.8578 45.2216C71.0063 45.2216 69.4297 44.7004 68.1075 43.7428C67.8323 43.4705 68.0246 43.2178 68.0246 43.2178L68.9226 41.9518C69.1054 41.7149 69.3357 41.7978 69.4367 41.8665ZM89.7506 43.5029C89.7506 43.885 90.414 44.959 91.227 44.959H91.7538C91.9581 44.959 92.1252 44.794 92.1252 44.5926V33.1671H92.1231C92.1122 32.9734 91.9504 32.8215 91.7538 32.8205H90.122C89.9243 32.8205 89.7634 32.9748 89.7525 33.1671H89.7506V34.0956C88.7508 32.8799 87.1742 32.3753 85.5936 32.3753C82.0002 32.3753 79.0871 35.2508 79.0871 38.7982C79.0871 42.3455 82.0002 45.2213 85.5936 45.2213C87.1742 45.2213 88.897 44.6159 89.7503 43.501L89.7506 43.5029ZM85.5998 42.9734C83.3143 42.9734 81.462 41.1041 81.462 38.7982C81.462 36.4925 83.3143 34.6232 85.5998 34.6232C87.8847 34.6232 89.7373 36.4925 89.7373 38.7982C89.7373 41.1041 87.8847 42.9734 85.5998 42.9734ZM106.746 43.8955L106.746 37.9836C106.746 34.651 104.616 32.4025 101.219 32.4025C99.5985 32.4025 98.2722 33.3281 97.8028 34.1231V34.1119L97.8001 34.121C97.799 33.3166 97.138 32.8481 96.3232 32.8481H95.7993C95.5948 32.8481 95.4279 33.0133 95.4279 33.215V44.6408H95.4301C95.4406 44.8333 95.6021 44.9876 95.7993 44.9876H97.4311C97.456 44.9876 97.4807 44.9847 97.5042 44.9804C97.5151 44.978 97.5251 44.9737 97.5357 44.9708C97.5481 44.9673 97.5606 44.9643 97.572 44.9595C97.5869 44.9536 97.5999 44.9456 97.6134 44.9381C97.6199 44.9341 97.627 44.9314 97.6335 44.9274C97.6495 44.9166 97.6647 44.9046 97.679 44.8916C97.6814 44.8892 97.6844 44.8876 97.6865 44.8854C97.7548 44.8213 97.7956 44.7337 97.8003 44.6408H97.8028V37.8919C97.8028 36.102 99.2726 34.6507 101.086 34.6507C102.899 34.6507 104.369 36.102 104.369 37.8919L104.37 43.5334L104.371 43.5312C104.371 43.5363 104.372 43.5417 104.372 43.5467V44.6408H104.374C104.385 44.8333 104.546 44.9876 104.743 44.9876H106.375C106.4 44.9876 106.424 44.9847 106.448 44.9804C106.458 44.9782 106.467 44.9742 106.476 44.9721C106.49 44.9681 106.503 44.9646 106.516 44.9595C106.529 44.9542 106.542 44.9464 106.554 44.9395C106.562 44.9355 106.57 44.9322 106.577 44.9274C106.593 44.9173 106.606 44.9058 106.62 44.894C106.623 44.8913 106.627 44.8887 106.631 44.8852C106.646 44.8707 106.659 44.8547 106.672 44.8381C106.715 44.781 106.74 44.7128 106.744 44.6418L106.744 44.6408H106.746L106.746 43.8955ZM119.473 43.5029C119.473 43.885 120.136 44.959 120.949 44.959H121.476C121.68 44.959 121.847 44.794 121.847 44.5926V33.1671H121.845C121.834 32.9733 121.673 32.8215 121.476 32.8205H119.844C119.648 32.8211 119.486 32.9731 119.475 33.1671H119.473V34.0956C118.472 32.8799 116.896 32.3753 115.315 32.3753C111.722 32.3753 108.809 35.2508 108.809 38.7982C108.809 42.3455 111.722 45.2213 115.315 45.2213C116.896 45.2213 118.619 44.6159 119.472 43.501L119.473 43.5029ZM115.322 42.9734C113.037 42.9734 111.184 41.1041 111.184 38.7982C111.184 36.4925 113.037 34.6232 115.322 34.6232C117.607 34.6232 119.459 36.4925 119.459 38.7982C119.459 41.1041 117.607 42.9734 115.322 42.9734Z" fill="#283343"/>
<path d="M94.5918 13.4033C91.4883 13.4033 88.9728 15.8961 88.9728 18.9711C88.9728 22.0464 91.4883 24.5398 94.5918 24.5398C97.6948 24.5398 100.21 22.0464 100.21 18.9711C100.21 15.8961 97.6948 13.4033 94.5918 13.4033ZM79.9937 13.4035C76.8907 13.4038 74.375 15.8961 74.375 18.9714C74.375 22.0464 76.8907 24.5395 79.9937 24.5395C83.097 24.5395 85.6127 22.0464 85.6127 18.9714C85.6127 15.8961 83.0973 13.4035 79.9937 13.4035ZM92.9114 6.44312C92.9114 9.51818 90.3959 12.0118 87.2929 12.0118C84.1894 12.0118 81.6739 9.51818 81.6739 6.44312C81.6739 3.36806 84.1894 0.875 87.2929 0.875C90.3959 0.875 92.9114 3.36806 92.9114 6.44312Z" fill="url(#paint0_radial_35_399)"/>
</g>
<defs>
<radialGradient id="paint0_radial_35_399" cx="0" cy="0" r="1" gradientUnits="userSpaceOnUse" gradientTransform="translate(68.1266 1294.2) scale(1711.92 1711.92)">
<stop stop-color="#FFB900"/>
<stop offset="0.6" stop-color="#F95D8F"/>
<stop offset="0.9991" stop-color="#F95353"/>
</radialGradient>
<clipPath id="clip0_35_399">
<rect width="175" height="70" fill="white"/>
</clipPath>
</defs>
</svg>
