<svg width="175" height="70" viewBox="0 0 175 70" fill="none" xmlns="http://www.w3.org/2000/svg">
<g clip-path="url(#clip0_35_376)">
<path d="M175 0H0V70H175V0Z" fill="white"/>
<path d="M59.068 27.502C62.2897 27.502 63.8527 29.0906 63.8527 31.6418C63.8527 33.5559 62.9865 34.7207 61.2076 35.1555C63.5412 35.541 64.6944 36.8152 64.6944 39.052C64.6944 41.5785 62.9865 43.3121 59.4533 43.3121H52.936V27.502H59.068ZM55.1002 29.5719V34.2859H58.7783C60.8223 34.2859 61.6639 33.348 61.6639 31.825C61.6639 30.302 60.7512 29.5637 58.7783 29.5637L55.1002 29.5719ZM55.1002 36.2137V41.1355H59.5243C61.5929 41.1355 62.5302 40.3891 62.5302 38.8004C62.5302 37.116 61.6393 36.2027 59.4778 36.2027L55.1002 36.2137Z" fill="#253858"/>
<path d="M68.2299 26.6597C68.6205 26.6317 69.0039 26.7748 69.2808 27.0519C69.5577 27.3289 69.7007 27.7126 69.6728 28.1034C69.6728 28.9008 69.0268 29.5472 68.2299 29.5472C67.4331 29.5472 66.7871 28.9008 66.7871 28.1034C66.7592 27.7126 66.9022 27.3289 67.1791 27.0519C67.4559 26.7748 67.8394 26.6317 68.2299 26.6597ZM67.1724 31.2808H69.241V43.312H67.1724V31.2808Z" fill="#253858"/>
<path d="M77.1386 41.2893C77.5759 41.2762 78.0107 41.2194 78.4366 41.1197V43.1158C77.9835 43.2454 77.5143 43.3099 77.043 43.3072C74.4689 43.3072 73.2174 41.7924 73.2174 39.5529V33.2037H71.269V31.2896H73.2174V28.7275H75.2258V31.2787H78.423V33.1928H75.2258V39.5092C75.2258 40.5674 75.8516 41.2893 77.1386 41.2893Z" fill="#253858"/>
<path d="M86.9621 43.5504C85.2077 43.5504 83.8606 42.7574 83.1364 41.1934V43.3098H81.0679V26.25H83.1501V33.4441C83.9207 31.8555 85.3635 31.0379 87.2135 31.0379C90.4106 31.0379 92.0228 33.7559 92.0228 37.2941C92.0119 40.6875 90.3286 43.5504 86.9621 43.5504ZM86.6478 32.9629C84.7897 32.9629 83.1501 34.1414 83.1501 36.8129V37.7754C83.1501 40.4469 84.664 41.6254 86.4292 41.6254C88.7628 41.6254 89.9652 40.0859 89.9652 37.2941C89.9433 34.4066 88.7902 32.9629 86.6478 32.9629Z" fill="#253858"/>
<path d="M94.1763 31.2783H96.2448V38.5545C96.2448 40.7201 97.1111 41.6826 99.0813 41.6826C100.994 41.6826 102.328 40.4084 102.328 37.9775V31.2783H104.396V43.3096H102.328V41.3354C101.577 42.7279 100.11 43.5831 98.5293 43.5502C95.7639 43.5502 94.1763 41.6361 94.1763 38.3275V31.2783Z" fill="#253858"/>
<path d="M116.009 42.998C115.288 43.3836 114.181 43.5449 113.075 43.5449C108.795 43.5449 106.79 40.9472 106.79 37.2558C106.79 33.6219 108.784 31.0242 113.075 31.0242C114.063 30.9953 115.044 31.1975 115.941 31.6148V33.5289C115.087 33.13 114.151 32.9362 113.208 32.9629C110.082 32.9629 108.809 34.9344 108.809 37.2695C108.809 39.6047 110.107 41.5762 113.258 41.5762C114.187 41.6008 115.113 41.4544 115.99 41.1441L116.009 42.998Z" fill="#253858"/>
<path d="M118.368 43.3098V26.25H120.436V36.9141L125.606 31.284H128.301L122.647 37.1875L128.538 43.3098H125.724L120.434 37.6797V43.3098H118.368Z" fill="#253858"/>
<path d="M135.392 43.55C130.894 43.55 128.924 40.9523 128.924 37.2609C128.924 33.627 130.943 31.0293 134.599 31.0293C138.302 31.0293 139.791 33.6051 139.791 37.2609V38.1988H131.014C131.304 40.2441 132.626 41.5676 135.463 41.5676C136.71 41.5673 137.948 41.348 139.119 40.9195V42.8336C138.133 43.3586 136.619 43.55 135.392 43.55ZM130.992 36.4406H137.701C137.581 34.2039 136.57 32.927 134.504 32.927C132.312 32.916 131.208 34.3352 130.992 36.427V36.4406Z" fill="#253858"/>
<path d="M147.005 41.2893C147.443 41.2762 147.877 41.2194 148.303 41.1197V43.1158C147.85 43.2454 147.381 43.3099 146.91 43.3072C144.336 43.3072 143.084 41.7924 143.084 39.5529V33.2037H141.136V31.2896H143.084V28.7275H145.103V31.2787H148.301V33.1928H145.103V39.5092C145.106 40.5674 145.726 41.2893 147.005 41.2893Z" fill="#253858"/>
<path d="M27.6786 27.962C27.5171 27.9599 27.363 28.0293 27.2576 28.1517C27.1522 28.2741 27.1062 28.4368 27.1321 28.5963L29.452 42.6893C29.5117 43.0453 29.8182 43.307 30.1789 43.31H41.3087C41.5795 43.3135 41.8119 43.1181 41.8552 42.8506L44.1752 28.5991C44.2011 28.4396 44.1551 28.2768 44.0497 28.1544C43.9442 28.0321 43.7901 27.9626 43.6287 27.9647L27.6786 27.962ZM37.4476 38.1475H33.8952L32.9333 33.119H38.3083L37.4476 38.1475Z" fill="#2684FF"/>
<path d="M43.4374 33.1191H38.3083L37.4476 38.1477H33.8952L29.7007 43.1297C29.8336 43.2447 30.0031 43.3087 30.1789 43.3102H41.3114C41.5822 43.3136 41.8147 43.1182 41.858 42.8508L43.4374 33.1191Z" fill="url(#paint0_linear_35_376)"/>
</g>
<defs>
<linearGradient id="paint0_linear_35_376" x1="1521.97" y1="173.939" x2="928.955" y2="1015.39" gradientUnits="userSpaceOnUse">
<stop offset="0.18" stop-color="#0052CC"/>
<stop offset="1" stop-color="#2684FF"/>
</linearGradient>
<clipPath id="clip0_35_376">
<rect width="175" height="70" fill="white"/>
</clipPath>
</defs>
</svg>
