<svg width="175" height="70" viewBox="0 0 175 70" fill="none" xmlns="http://www.w3.org/2000/svg">
<g clip-path="url(#clip0_35_564)">
<path d="M175 0H0V70H175V0Z" fill="white"/>
<path d="M49.1582 24.5C44.4644 24.5 40.5353 27.7306 39.4014 32.0734C39.4014 32.0998 39.375 32.1263 39.375 32.2058C39.375 32.4706 39.6123 32.6824 39.8497 32.6824H43.9106C44.0952 32.6824 44.2534 32.55 44.3589 32.3911C44.3589 32.3911 44.3589 32.3911 44.3589 32.3646C45.2027 30.564 47.0223 29.2929 49.1318 29.2929C52.0589 29.2929 54.3795 31.6762 54.3795 34.5625C54.3795 37.4488 52.0062 39.8321 49.1318 39.8321C47.0223 39.8321 45.1764 38.5875 44.3589 36.7604V36.7339C44.3062 36.575 44.0952 36.4426 43.9106 36.4426H39.8497C39.586 36.4426 39.375 36.6809 39.375 36.9192C39.375 36.9457 39.375 37.0252 39.4014 37.0516C40.5353 41.3944 44.4644 44.625 49.1582 44.625C54.6959 44.625 59.2315 40.1234 59.2315 34.5095C59.2315 28.9487 54.7486 24.5 49.1582 24.5ZM75.5017 36.9987H74.1305C74.025 36.9987 73.9459 37.0252 73.8932 37.1311C73.1021 38.3227 71.7572 39.0906 70.2277 39.0906C67.8017 39.0906 65.7976 37.1046 65.7976 34.6419C65.7976 32.2058 67.7753 30.1933 70.2277 30.1933C71.7572 30.1933 73.0757 30.9612 73.8932 32.1528C73.9459 32.2058 74.025 32.2852 74.1305 32.2852H75.5017C75.6599 32.2852 75.7918 32.1528 75.7918 31.9939C75.7918 31.9674 75.7918 31.888 75.7654 31.8615C74.737 29.8225 72.6538 28.4456 70.2541 28.4456C66.826 28.4456 64.0572 31.226 64.0572 34.6684C64.0572 38.1109 66.826 40.8913 70.2541 40.8913C72.6538 40.8913 74.7634 39.5143 75.7654 37.4753C75.7918 37.4488 75.7918 37.3694 75.7918 37.3429C75.7654 37.1311 75.6599 36.9987 75.5017 36.9987ZM79.6154 26.3536C79.6154 26.9891 79.1144 27.5452 78.4288 27.5452C77.7959 27.5452 77.2421 27.0421 77.2421 26.3536C77.2421 25.7181 77.7431 25.162 78.4288 25.162C79.088 25.162 79.6154 25.6651 79.6154 26.3536ZM79.299 40.2558V28.6839H77.5322V40.2558C77.5322 40.4146 77.664 40.547 77.8223 40.547H79.0089C79.1671 40.547 79.299 40.4146 79.299 40.2558ZM86.999 28.3926C85.2058 28.4985 83.7819 29.3194 82.8589 30.6434V28.9752C82.8589 28.8163 82.7271 28.6839 82.5688 28.6839H81.3822C81.224 28.6839 81.0921 28.8163 81.0921 28.9752V40.2558C81.0921 40.4146 81.224 40.547 81.3822 40.547H82.5688C82.7271 40.547 82.8589 40.4146 82.8589 40.2558V34.6155C82.8589 32.2587 84.6784 30.3257 86.999 30.1668C87.1572 30.1668 87.289 30.0344 87.289 29.8755V28.6839C87.289 28.525 87.1572 28.3926 86.999 28.3926ZM98.7336 36.9987H97.3623C97.2568 36.9987 97.1777 37.0252 97.125 37.1311C96.3339 38.3227 94.989 39.0906 93.4596 39.0906C91.0336 39.0906 89.0295 37.1046 89.0295 34.6419C89.0295 32.2058 91.0072 30.1933 93.4596 30.1933C94.989 30.1933 96.3075 30.9612 97.125 32.1528C97.1777 32.2058 97.2568 32.2852 97.3623 32.2852H98.7336C98.8918 32.2852 99.0236 32.1528 99.0236 31.9939C99.0236 31.9674 99.0236 31.888 98.9973 31.8615C97.9688 29.8225 95.8856 28.4456 93.486 28.4456C90.0579 28.4456 87.289 31.226 87.289 34.6684C87.289 38.1109 90.0579 40.8913 93.486 40.8913C95.8856 40.8913 97.9952 39.5143 98.9973 37.4753C99.0236 37.4488 99.0236 37.3694 99.0236 37.3429C99.0236 37.1311 98.8918 36.9987 98.7336 36.9987ZM102.267 24.8707H101.08C100.922 24.8707 100.79 25.0031 100.79 25.162V40.2558C100.79 40.4146 100.922 40.547 101.08 40.547H102.267C102.425 40.547 102.557 40.4146 102.557 40.2558V25.162C102.557 25.0031 102.425 24.8707 102.267 24.8707ZM110.547 28.3926C107.119 28.3926 104.35 31.173 104.35 34.6155C104.35 38.0579 107.119 40.8383 110.547 40.8383C112.947 40.8383 115.057 39.4613 116.059 37.4224C116.111 37.29 116.085 37.1046 115.927 37.0252C115.9 36.9987 115.821 36.9987 115.795 36.9987H114.424C114.318 36.9987 114.239 37.0252 114.186 37.1311C113.395 38.3227 112.05 39.0906 110.521 39.0906C108.279 39.0906 106.407 37.4224 106.117 35.2245H116.375C116.533 35.2245 116.665 35.0921 116.665 34.9332C116.665 34.8273 116.665 34.7479 116.665 34.6155C116.744 31.173 113.949 28.3926 110.547 28.3926ZM106.275 33.4238C106.776 31.5438 108.49 30.1668 110.547 30.1668C112.604 30.1668 114.292 31.5438 114.819 33.4238H106.275ZM133.858 24.553C132.909 24.553 132.091 25.3474 132.091 26.3271C132.091 27.2804 132.883 28.1013 133.858 28.1013C134.808 28.1013 135.625 27.3069 135.625 26.3271C135.625 25.3474 134.834 24.553 133.858 24.553ZM135.335 28.6839V40.2558C135.335 40.4146 135.203 40.547 135.045 40.547H132.672C132.513 40.547 132.382 40.4146 132.382 40.2558V28.6839H135.335ZM124.682 40.8383C121.253 40.8383 118.485 38.1109 118.485 34.6684C118.485 31.226 121.253 28.4456 124.682 28.4456C127.556 28.4456 129.982 30.4051 130.667 33.1061C130.667 33.1326 130.667 33.1326 130.667 33.159C130.667 33.3179 130.536 33.4503 130.377 33.4503H127.872C127.767 33.4503 127.635 33.3974 127.609 33.2914C127.055 32.1263 125.947 31.3849 124.655 31.3849C122.862 31.3849 121.412 32.8413 121.412 34.6419C121.412 36.4426 122.862 37.899 124.655 37.899C125.974 37.899 127.108 37.1311 127.609 35.9924C127.635 35.8865 127.74 35.8336 127.872 35.8336H130.377C130.536 35.8336 130.667 35.966 130.667 36.1248C130.667 36.1513 130.667 36.1513 130.667 36.1778C130.008 38.8523 127.556 40.8383 124.682 40.8383ZM49.1582 37.0252C47.8329 37.0252 46.7586 35.9463 46.7586 34.6155C46.7586 33.2846 47.8329 32.2058 49.1582 32.2058C50.4835 32.2058 51.5579 33.2846 51.5579 34.6155C51.5579 35.9463 50.4835 37.0252 49.1582 37.0252Z" fill="black"/>
</g>
<defs>
<clipPath id="clip0_35_564">
<rect width="175" height="70" fill="white"/>
</clipPath>
</defs>
</svg>
