<svg width="128" height="20" viewBox="0 0 128 20" fill="none" xmlns="http://www.w3.org/2000/svg">
<g clip-path="url(#clip0_35_621)">
<mask id="mask0_35_621" style="mask-type:luminance" maskUnits="userSpaceOnUse" x="25" y="0" width="103" height="18">
<path d="M128 0H25.7061V17.7152H128V0Z" fill="white"/>
</mask>
<g mask="url(#mask0_35_621)">
<path d="M48.9206 15.5304C48.1734 16.0843 47.5064 16.7819 46.705 17.1331C45.5387 17.66 44.2117 17.7061 43.0117 17.2613C41.8117 16.8166 40.8352 15.9169 40.2939 14.7573C39.0141 12.0514 39.0612 9.33617 40.7983 6.79297C42.4789 4.33933 46.8417 4.03763 48.402 6.23672C48.4468 6.298 48.5364 6.32628 48.7155 6.44413C48.7155 5.12657 48.7344 3.91035 48.6896 2.69413C48.6896 2.56921 48.3266 2.36651 48.1215 2.35472C46.7663 2.27459 46.7945 2.28638 46.7592 0.902819C46.745 0.313569 46.9289 0.148579 47.5111 0.167435C48.8357 0.209862 50.1627 0.181577 51.5675 0.181577C51.5816 0.480916 51.6028 0.733112 51.6028 0.987668C51.6028 5.25856 51.6028 9.52865 51.6028 13.798C51.6028 15.0236 51.6028 15.0236 52.8167 15.0967C52.9227 15.0967 53.0265 15.1297 53.2032 15.1603C53.2238 15.7103 53.216 16.261 53.1797 16.8102C53.1655 16.9493 52.878 17.1591 52.7083 17.1638C51.8692 17.1991 51.0254 17.2015 50.1863 17.1638C49.2647 17.1261 48.9135 16.7324 48.9182 15.8344L48.9206 15.5304ZM48.9418 11.3514C48.6943 10.4581 48.5882 9.6308 48.2347 8.91427C47.2282 6.81182 44.4635 6.64447 43.127 8.55836C42.1842 9.90657 42.156 12.3013 43.0634 13.7155C44.2419 15.5445 46.9124 15.6152 48.0673 13.7697C48.5269 13.0555 48.6684 12.1481 48.9418 11.3514Z" fill="#3373AE"/>
<path d="M103.976 7.20901L102.562 7.08173V5.09006H108.287C108.287 5.67931 108.32 6.245 108.264 6.80361C108.252 6.92853 107.917 7.13359 107.755 7.11238C107 7.02281 106.522 7.34808 106.083 7.9279C105.447 8.76935 104.731 9.54952 104.132 10.2566C104.877 11.4988 105.626 12.6348 106.253 13.8322C106.708 14.6972 107.241 15.2865 108.41 15.0625C108.41 15.7201 108.424 16.3047 108.396 16.8869C108.396 16.9859 108.219 17.0919 108.106 17.1603C108.021 17.1872 107.932 17.1937 107.844 17.1791C104.457 17.1579 105.117 17.4926 103.512 14.7585C103.064 13.9972 102.645 13.2241 102.201 12.4604C102.029 12.1767 101.767 11.9591 101.456 11.8428C101.145 11.7265 100.804 11.7182 100.488 11.8193C100.416 11.8566 100.354 11.9101 100.306 11.9755C100.258 12.041 100.226 12.1166 100.212 12.1964C100.186 13.012 100.174 13.8275 100.212 14.6383C100.212 14.7938 100.464 15.0107 100.643 15.0649C100.926 15.1103 101.213 15.1167 101.497 15.0838C101.497 15.7154 101.525 16.2623 101.478 16.7997C101.447 16.8889 101.394 16.9689 101.324 17.032C101.254 17.0951 101.169 17.1393 101.077 17.1603C99.3495 17.1838 97.61 17.2852 95.8918 17.1296C95.015 17.0519 95.6231 16.1161 95.4675 15.5905C95.3662 15.2417 95.5689 15.0979 95.9389 15.0814C97.1952 15.0248 97.1928 15.0107 97.1928 13.7426C97.1928 10.2071 97.1928 6.65276 97.2046 3.10783C97.2046 2.51858 97.0632 2.23573 96.4362 2.33237C96.2794 2.34573 96.1217 2.34573 95.9648 2.33237C95.8753 2.33237 95.7621 2.36301 95.7032 2.33237C95.0456 1.88218 95.5147 1.21751 95.3992 0.658901C95.3332 0.350133 95.4911 0.1875 95.8493 0.1875C97.1339 0.201642 98.4185 0.206356 99.703 0.1875C100.25 0.1875 100.174 0.536343 100.174 0.856895C100.174 3.49674 100.174 6.13894 100.174 8.78114C100.174 9.08283 100.297 9.62965 100.41 9.63908C100.94 9.68386 101.641 9.78522 101.985 9.50474C102.706 8.89899 103.248 8.08581 103.976 7.20901Z" fill="#3373AE"/>
<path d="M65.1044 15.0102C64.4161 15.6442 63.8623 16.3206 63.1622 16.7708C61.7339 17.6853 60.1665 17.7914 58.5802 17.1597C58.1637 17.0015 57.7915 16.7451 57.4953 16.4123C57.199 16.0796 56.9874 15.6802 56.8785 15.2482C56.6595 14.4663 56.5299 13.6622 56.4919 12.8511C56.4353 11.1777 56.4589 9.50179 56.4919 7.82832C56.4919 7.32392 56.3552 7.12122 55.8249 7.12122C54.5709 7.12122 54.6087 7.09294 54.5662 5.8343C54.5427 5.18848 54.7501 4.99757 55.3888 5.02821C56.4283 5.08007 57.4748 5.08007 58.5142 5.02821C59.1718 4.99521 59.3957 5.16963 59.3816 5.86023C59.3345 7.92968 59.3627 10.0015 59.3651 12.071C59.3614 12.3789 59.3779 12.6868 59.4146 12.9926C59.6715 14.7815 61.1069 15.5075 62.7144 14.6425C64.1592 13.8647 64.7391 12.5212 64.8475 10.9844C64.9205 9.90956 64.8475 8.82534 64.8758 7.74583C64.8758 7.27443 64.7084 7.14008 64.2582 7.13066C63.0797 7.10473 63.0797 7.08823 63.0797 5.90737C63.0797 5.05178 63.0797 5.04942 63.9542 5.04942C65.0195 5.04942 66.0755 5.0777 67.1456 5.04942C67.6971 5.03056 67.8644 5.20262 67.8527 5.75652C67.8267 8.53071 67.8527 11.3073 67.8527 14.0815C67.8527 15.0243 67.9234 15.128 68.8662 15.1021C69.4036 15.0856 69.5568 15.2694 69.5426 15.7832C69.4978 17.4544 69.7288 17.1786 68.1496 17.1974C67.5957 17.1974 67.0419 17.2092 66.4997 17.1974C65.4509 17.1621 65.1162 16.8156 65.1115 15.7832L65.1044 15.0102Z" fill="#3373AE"/>
<path d="M117.708 9.69581C117.988 8.18026 117.208 7.10311 115.697 7.15967C114.688 7.19739 113.689 7.58864 112.692 7.84555C112.445 7.94073 112.208 8.06077 111.985 8.20382L110.946 6.31822C111.914 5.53098 113.006 5.19865 114.139 4.96766C115.315 4.71773 116.533 4.75573 117.691 5.07844C119.471 5.58048 120.572 6.89334 120.654 8.78365C120.725 10.4548 120.687 12.1306 120.694 13.8064C120.694 15.0132 120.725 15.0391 121.957 15.0957C122.066 15.0957 122.172 15.1216 122.377 15.1499C122.397 15.7148 122.39 16.2804 122.353 16.8446C122.339 16.9766 122.035 17.1746 121.858 17.1816C121.062 17.2146 120.26 17.2146 119.464 17.1816C118.424 17.1369 118.071 16.7315 118.073 15.6755C118.082 15.5366 118.036 15.3997 117.946 15.2937C117.828 15.4516 117.71 15.6095 117.59 15.7651C116.235 17.6507 113.347 18.1221 111.481 16.7338C111.022 16.3877 110.654 15.9349 110.41 15.4148C110.165 14.8946 110.052 14.3227 110.078 13.7485C110.104 13.1744 110.27 12.6154 110.562 12.1199C110.853 11.6244 111.261 11.2074 111.749 10.905C113.305 9.97865 115.049 9.7948 116.805 9.7453C117.111 9.74294 117.415 9.71467 117.708 9.69581ZM116.765 11.3033C115.855 11.5555 114.917 11.7323 114.05 12.0787C113.182 12.4252 112.871 13.2572 113.093 14.1081C113.281 14.8765 113.995 15.3856 114.889 15.3856C116.239 15.3856 117.514 14.1435 117.774 12.5572C117.941 11.5248 117.861 11.4306 116.76 11.3104L116.765 11.3033Z" fill="#3373AE"/>
<path d="M36.2856 14.016L37.292 15.8498C36.3522 16.6353 35.2194 17.1553 34.0111 17.3559C31.284 17.8485 28.8775 17.2946 27.1145 15.0272C24.7575 11.9913 25.7639 7.2137 29.0991 5.48838C31.3972 4.29573 34.3717 4.67756 35.9933 6.40524C37.2048 7.69452 37.5136 9.29493 37.49 10.992C37.49 11.4634 37.1742 11.4893 36.8088 11.4893C34.4377 11.4893 32.0666 11.4893 29.6954 11.4893C28.8068 11.4893 28.7785 11.5294 28.9883 12.392C29.2242 13.3156 29.8126 14.1099 30.6273 14.6047C31.442 15.0995 32.4181 15.2554 33.3464 15.0389C34.3316 14.8315 35.2532 14.379 36.2856 14.016ZM34.3528 9.79225C34.4872 8.27906 33.4808 7.07935 32.0666 7.01807C30.4685 6.94736 29.0025 8.2602 29.0378 9.79225H34.3528Z" fill="#3373AE"/>
<path d="M92.4252 14.0164C92.5807 14.2875 92.7834 14.6481 92.9885 15.0111C93.5165 15.9539 93.5165 15.9539 92.602 16.456C89.8608 17.9904 86.5327 17.8702 84.3336 16.1472C82.0237 14.3394 81.2907 10.7261 82.6837 8.04382C84.0319 5.45112 86.9899 4.22076 89.9197 5.06456C91.9656 5.65382 93.0521 7.11044 93.4764 9.11389C93.9596 11.3978 93.8818 11.4827 91.5908 11.4827C89.6408 11.4827 87.6915 11.4827 85.7431 11.4827C84.9747 11.4827 84.9323 11.5463 85.1185 12.2841C85.2245 12.7555 85.4231 13.2011 85.7028 13.5951C85.9825 13.9891 86.3378 14.3235 86.7479 14.579C87.158 14.8345 87.6148 15.0059 88.0917 15.0833C88.5686 15.1608 89.0562 15.1426 89.5261 15.03C90.483 14.8296 91.3881 14.3889 92.4252 14.0164ZM90.5537 9.79979C90.5537 8.72971 90.2308 7.88118 89.321 7.3485C88.3311 6.77104 87.3458 6.93839 86.436 7.53235C86.0523 7.77781 85.7331 8.11191 85.5054 8.50652C85.2778 8.90112 85.1483 9.34468 85.1279 9.79979H90.5537Z" fill="#3373AE"/>
<path d="M71.4043 7.1199V5.09052C72.6299 5.09052 73.8202 5.04102 75.0034 5.10937C75.7105 5.15179 76.057 5.65855 76.0782 6.39158C76.0924 6.84412 76.0782 7.29667 76.0782 7.88121C76.5496 7.19532 76.8796 6.60842 77.3015 6.09459C77.9497 5.30735 78.843 4.93259 79.8447 4.81238C80.3279 4.75346 80.606 4.91138 80.5801 5.46056C80.5542 6.00974 80.6084 6.60607 80.5542 7.17411C80.5353 7.34852 80.269 7.64551 80.1205 7.64551C77.3581 7.60779 76.3351 9.84223 76.2197 11.709C76.1631 12.6518 76.2197 13.5946 76.1937 14.5374C76.1819 14.9876 76.3917 15.0866 76.7971 15.0983C77.952 15.1243 77.9521 15.1384 77.9497 16.3263C77.9497 17.1796 77.9497 17.1819 77.0705 17.1819C75.4772 17.1819 73.8815 17.1513 72.2882 17.1984C71.6259 17.2173 71.4019 16.9887 71.5033 16.3735C71.5056 16.3515 71.5056 16.3294 71.5033 16.3075C71.5033 15.129 71.5033 15.1172 72.6818 15.1007C73.1391 15.1007 73.3135 14.9357 73.3111 14.4832C73.3017 12.3053 73.3017 10.1266 73.3111 7.94721C73.3111 7.36974 73.0566 7.0869 72.4649 7.11518C72.1373 7.13404 71.8121 7.1199 71.4043 7.1199Z" fill="#3373AE"/>
<path d="M124.788 0.214844H127.678C127.692 0.450544 127.72 0.655606 127.716 0.865379C127.636 4.45509 127.541 8.04245 127.48 11.6322C127.48 12.1248 127.313 12.3063 126.82 12.2638C126.423 12.2273 126.023 12.2273 125.625 12.2638C125.092 12.3157 124.941 12.1012 124.934 11.5897C124.904 8.88154 124.835 6.16864 124.793 3.46516C124.774 2.39744 124.788 1.32499 124.788 0.214844Z" fill="#3373AE"/>
<path d="M124.828 15.8034C124.828 14.4717 124.828 14.4717 126.16 14.4717C127.626 14.4717 127.628 14.4717 127.626 15.9542C127.626 17.3425 127.734 17.1728 126.37 17.1893H126.238C124.828 17.1893 124.828 17.1893 124.828 15.8034Z" fill="#3373AE"/>
</g>
<path fill-rule="evenodd" clip-rule="evenodd" d="M0.0494169 3.32676C0.47813 2.08227 1.88955 -0.107935 4.55693 0.00413994H18.5198C19.1329 0.00413994 19.6298 0.501113 19.6298 1.11416V15.5716C19.6298 15.6507 19.6219 15.7295 19.6029 15.8062C19.3041 17.0106 18.1851 19.2749 15.8324 19.5464H0V3.64233C0 3.53485 0.0144095 3.42838 0.0494169 3.32676ZM6.13457 4.09375C4.81167 4.09375 3.73926 5.16617 3.73926 6.48906H13.4958C14.8186 6.48906 15.8911 5.41664 15.8911 4.09375H6.13457ZM3.73926 10.9878C3.73926 9.66494 4.81167 8.59253 6.13457 8.59253H10.1073C10.1073 9.91542 9.03485 10.9878 7.71196 10.9878H3.73926ZM6.13457 13.0913C4.81167 13.0913 3.73926 14.1637 3.73926 15.4866H13.4958C14.8186 15.4866 15.8911 14.4142 15.8911 13.0913H6.13457Z" fill="#3373AE"/>
</g>
<defs>
<clipPath id="clip0_35_621">
<rect width="128" height="20" fill="white"/>
</clipPath>
</defs>
</svg>
