<svg width="112" height="20" viewBox="0 0 112 20" fill="none" xmlns="http://www.w3.org/2000/svg">
<g clip-path="url(#clip0_35_640)">
<mask id="mask0_35_640" style="mask-type:luminance" maskUnits="userSpaceOnUse" x="0" y="0" width="112" height="20">
<path d="M111.682 0H0V19.8018H111.682V0Z" fill="white"/>
</mask>
<g mask="url(#mask0_35_640)">
<path d="M44.8269 -0.00195312C44.8903 0.162689 44.9337 0.334351 44.9559 0.509323C44.9559 2.66422 44.9559 4.81911 44.9559 6.97401V7.3755C45.0032 7.3755 45.0378 7.3755 45.0472 7.3755C46.423 5.80716 48.2143 5.30843 50.226 5.39626C53.8244 5.55623 56.4626 8.06243 56.7963 11.6476C57.0293 14.1382 56.3776 16.337 54.4824 18.0621C52.4297 19.9441 48.973 20.3268 46.5678 19.0031C46.2494 18.8167 45.9453 18.607 45.658 18.3758C45.3652 18.15 45.0913 17.899 44.8111 17.6606C44.8111 17.6857 44.7482 17.8018 44.6946 17.9147C44.5059 18.3262 44.2143 18.6825 43.8477 18.9494C43.4811 19.2163 43.0519 19.385 42.6011 19.4391C42.1257 19.5113 42.0596 19.4391 42.0596 18.9718V5.61269C42.0596 4.62777 42.0376 3.64286 42.0596 2.65794C42.0591 2.02249 42.2913 1.4087 42.7127 0.93169C43.1341 0.454684 43.7156 0.147249 44.3483 0.067054C44.4055 0.0480615 44.4613 0.0249995 44.5152 -0.00195312H44.8269ZM49.5491 7.94951C48.951 7.934 48.3558 8.03811 47.7987 8.2557C47.2416 8.47329 46.734 8.79995 46.3058 9.21635C45.8776 9.63275 45.5375 10.1305 45.3057 10.68C45.0738 11.2296 44.9549 11.82 44.9559 12.4161C44.9307 15.0854 46.8952 17.1525 49.4736 17.1776C52.052 17.2027 53.9472 15.2172 53.9724 12.5824C53.9976 9.94757 52.1496 7.96833 49.5554 7.94951H49.5491Z" fill="#4295D6"/>
<path d="M111.681 12.7896C111.665 12.8079 111.653 12.8292 111.646 12.8523C111.457 13.6114 111.457 13.6114 110.67 13.6114H100.728C100.841 14.2175 101.089 14.7903 101.456 15.2869C101.822 15.7834 102.297 16.1908 102.844 16.4783C104.04 17.1056 105.331 17.1746 106.641 17.046C107.783 16.8995 108.895 16.5712 109.934 16.0736C110.374 15.8792 110.563 15.9701 110.633 16.4344C110.724 16.9519 110.812 17.4757 110.906 18.0027C110.945 18.1202 110.937 18.2478 110.884 18.3596C110.832 18.4715 110.738 18.5592 110.623 18.6049C107.635 20.0196 104.597 20.2831 101.566 18.8371C99.1731 17.6984 97.9548 15.6816 97.7879 13.075C97.6463 10.8793 98.2759 8.93145 99.8657 7.35684C102.296 4.95101 106.512 4.70008 109.2 6.80478C109.861 7.32638 110.412 7.97276 110.823 8.7069C111.233 9.44105 111.493 10.2486 111.59 11.0832C111.608 11.1895 111.634 11.2944 111.668 11.3969L111.681 12.7896ZM108.895 11.2934C108.869 10.8055 108.738 10.3288 108.511 9.89573C108.284 9.46271 107.966 9.08353 107.579 8.78402C106.055 7.63286 103.404 7.76147 101.991 9.05378C101.335 9.6326 100.921 10.4349 100.829 11.3028L108.895 11.2934Z" fill="#4295D6"/>
<path d="M19.4096 7.49183C21.4748 4.41476 27.0345 4.81625 28.6684 7.90273C29.175 7.11747 29.8853 6.48341 30.7242 6.06778C32.7517 5.09228 34.8169 5.07973 36.7845 6.15247C38.5349 7.09347 39.2495 8.75591 39.303 10.6505C39.3723 13.4327 39.3251 16.2181 39.3314 19.0003C39.3314 19.3139 39.1803 19.4771 38.8623 19.4771C38.2327 19.4771 37.603 19.4771 36.9734 19.4771C36.5515 19.4771 36.4508 19.3704 36.4508 18.9501C36.4508 16.5474 36.4508 14.1478 36.4508 11.7357C36.4457 11.3052 36.3961 10.8764 36.3028 10.456C36.181 9.80033 35.8343 9.20723 35.322 8.77811C34.8098 8.34899 34.1638 8.11052 33.4946 8.10348C31.7505 7.9937 30.2803 8.76532 29.7168 10.1517C29.5397 10.6101 29.449 11.0971 29.4492 11.5883C29.4209 14.013 29.4492 16.4408 29.4492 18.8654C29.4492 19.3735 29.3579 19.4676 28.8447 19.4676C28.2739 19.4676 27.704 19.4676 27.1353 19.4676C26.6442 19.4676 26.5529 19.3767 26.5529 18.8811C26.5529 16.4533 26.5529 14.0287 26.5529 11.6009C26.5517 11.2935 26.5222 10.9869 26.4647 10.685C26.0145 8.44224 23.795 7.41341 21.585 8.43283C20.9667 8.68677 20.4415 9.12379 20.0806 9.68478C19.7197 10.2458 19.5404 10.9037 19.567 11.5695C19.5481 13.9847 19.567 16.3968 19.567 18.8121C19.567 19.3892 19.4852 19.4708 18.9028 19.4708C18.3203 19.4708 17.7631 19.4708 17.1933 19.4708C16.7809 19.4708 16.6738 19.3673 16.6738 18.9783C16.6738 14.6539 16.6738 10.3305 16.6738 6.00819C16.6738 5.71961 16.7903 5.65061 17.0548 5.66943C17.527 5.69429 17.9839 5.84549 18.3772 6.10712C18.7705 6.36875 19.0858 6.73116 19.29 7.15621C19.2963 7.25658 19.3403 7.35695 19.4096 7.49183Z" fill="#4295D6"/>
<path d="M2.96328 13.6099C3.2781 14.9806 4.00848 15.9906 5.26461 16.5646C6.83871 17.2798 8.46633 17.2296 10.0939 16.8062C10.8036 16.5959 11.5014 16.3477 12.1843 16.0628C12.6156 15.8965 12.7794 15.9655 12.8612 16.4109C12.9588 16.9442 13.0438 17.4774 13.1382 18.0106C13.1759 18.1223 13.1695 18.2441 13.1204 18.3512C13.0713 18.4584 12.9831 18.543 12.8738 18.5878C9.98375 19.9805 7.02445 20.2471 4.05885 18.9579C1.09325 17.6687 -0.219543 14.852 0.0323125 11.9192C0.2275 9.67337 1.1877 7.84155 3.0955 6.56492C5.98869 4.62646 10.138 5.10951 12.3008 7.6408C13.6923 9.27187 14.0859 11.1915 13.7931 13.2868C13.7742 13.4154 13.5758 13.544 13.431 13.6224C13.3366 13.6726 13.1886 13.6224 13.0658 13.6224H2.96328V13.6099ZM11.1171 11.3013C11.0793 9.46635 9.48634 8.04857 7.42112 7.99211C5.07257 7.92938 3.20569 9.34088 3.07032 11.3013H11.1171Z" fill="#4295D6"/>
<path d="M69.3955 17.643C69.0488 18.1553 68.6029 18.5934 68.0839 18.9317C67.5649 19.27 66.9833 19.5015 66.3733 19.6128C65.0447 19.8996 63.6607 19.7905 62.3939 19.2991C60.5271 18.5526 59.5606 17.1034 59.2646 15.1807C59.2094 14.7784 59.1842 14.3727 59.1891 13.9668C59.1891 11.3947 59.1891 8.82054 59.1891 6.24429C59.1891 5.72047 59.23 5.68282 59.7684 5.67969H61.5156C61.991 5.67969 62.0697 5.75811 62.0697 6.24429C62.0697 8.67207 62.0697 11.0999 62.0697 13.5245C62.071 13.9306 62.1217 14.3351 62.2208 14.729C62.3344 15.2969 62.6224 15.8157 63.0448 16.2135C63.4672 16.6114 64.0033 16.8686 64.5788 16.9497C66.0931 17.207 67.472 16.9497 68.5361 15.7296C69.1657 15.0176 69.3294 14.1424 69.3263 13.2202C69.3263 10.9054 69.3263 8.59052 69.3263 6.27252C69.3263 5.72987 69.3735 5.68282 69.9213 5.68282C70.5289 5.68282 71.1365 5.68282 71.7409 5.68282C72.0558 5.68282 72.1911 5.79888 72.1911 6.11882C72.1911 10.4453 72.1911 14.7698 72.1911 19.0921C72.1911 19.3744 72.0841 19.4622 71.8133 19.434C71.3477 19.404 70.8979 19.2534 70.5086 18.997C70.1193 18.7407 69.804 18.3874 69.5939 17.9723C69.5403 17.8782 69.4931 17.7778 69.4396 17.6806C69.4396 17.6649 69.4239 17.6618 69.3955 17.643Z" fill="#4295D6"/>
<path d="M90.2597 19.8019C88.6752 19.7826 87.1057 19.493 85.6193 18.9456C85.3045 18.8139 85.1439 18.632 85.2163 18.2807C85.3139 17.7976 85.3486 17.3052 85.4304 16.8221C85.4965 16.4143 85.6571 16.3296 86.06 16.4708C87.6051 17.0536 89.2555 17.3079 90.9051 17.2173C91.4209 17.1755 91.9296 17.0701 92.4194 16.9037C92.6606 16.8351 92.8741 16.6929 93.03 16.4971C93.1859 16.3013 93.2762 16.0617 93.2883 15.8121C93.3352 15.5533 93.2937 15.2863 93.1705 15.0538C93.0472 14.8212 92.8493 14.6365 92.6083 14.5292C91.9023 14.2419 91.1763 14.0061 90.436 13.8235C89.5514 13.5913 88.6353 13.4816 87.7664 13.1961C85.0274 12.3241 84.6182 9.89006 85.1597 8.31232C85.5343 7.23017 86.3402 6.54323 87.3414 6.06332C88.8336 5.34816 90.4266 5.26034 92.029 5.43599C93.0175 5.54891 93.9872 5.81553 94.9663 6.02255C95.3157 6.09783 95.4448 6.30171 95.3755 6.67184C95.2842 7.14234 95.2528 7.61284 95.1898 8.09903C95.1394 8.50679 94.982 8.6103 94.5885 8.48169C93.2379 8.02173 91.8108 7.82577 90.3857 7.90455C89.8199 7.94618 89.2615 8.05787 88.7234 8.23703C88.4463 8.30816 88.2018 8.47117 88.0302 8.69923C87.8585 8.92728 87.7699 9.20678 87.779 9.4917C87.7763 9.76792 87.8685 10.0367 88.0403 10.2535C88.2121 10.4703 88.4531 10.6221 88.7234 10.6836C89.6081 10.9534 90.5179 11.1353 91.412 11.3706C92.2072 11.5461 92.9897 11.7745 93.7542 12.0544C94.3278 12.2881 94.8365 12.6559 95.2374 13.1268C95.6383 13.5976 95.9196 14.1576 96.0576 14.7595C96.1956 15.3615 96.1862 15.9876 96.0302 16.5852C95.8743 17.1827 95.5763 17.7341 95.1615 18.1928C94.4391 18.9539 93.4748 19.4426 92.432 19.5761C91.7174 19.6922 90.9712 19.7267 90.2597 19.8019Z" fill="#4295D6"/>
<path d="M77.9026 7.52597C78.2231 7.09369 78.5768 6.6868 78.9604 6.30894C80.2197 5.20796 81.6993 5.19542 83.223 5.62514C83.2937 5.66299 83.3537 5.71782 83.3977 5.78464C83.4417 5.85147 83.4682 5.92818 83.4749 6.00782C83.4308 6.63515 83.3553 7.28131 83.2608 7.91491C83.2104 8.25368 82.946 8.20349 82.6815 8.18153C82.0863 8.08652 81.4823 8.05812 80.8808 8.09684C80.1278 8.17708 79.429 8.52505 78.9127 9.07697C78.3963 9.62889 78.0969 10.3478 78.0694 11.1018C77.997 11.9957 78.0002 12.8959 77.9939 13.7962C77.9939 15.5057 77.9939 17.2183 77.9939 18.9309C77.9939 19.3732 77.9026 19.4641 77.4492 19.4673C76.8416 19.4673 76.234 19.4673 75.6296 19.4673C75.2298 19.4673 75.1133 19.3481 75.1133 18.9623C75.1133 14.6525 75.1133 10.3427 75.1133 6.03291C75.1133 5.71924 75.2329 5.6471 75.51 5.66906C75.9962 5.69531 76.4655 5.85593 76.8653 6.13293C77.2651 6.40993 77.5795 6.79237 77.7735 7.23739C77.8207 7.33463 77.8648 7.435 77.912 7.53538C77.9057 7.54479 77.9215 7.54479 77.9026 7.52597Z" fill="#4295D6"/>
</g>
</g>
<defs>
<clipPath id="clip0_35_640">
<rect width="112" height="20" fill="white"/>
</clipPath>
</defs>
</svg>
