<svg width="56" height="57" viewBox="0 0 56 57" fill="none" xmlns="http://www.w3.org/2000/svg">
<path d="M13.8711 14.4053H17.3389V21.3408H13.8711V14.4053ZM13.8711 24.8086H17.3389V31.7441H13.8711V24.8086ZM24.2744 14.4053H27.7422V21.3408H24.2744V14.4053ZM24.2744 24.8086H27.7422V31.7441H24.2744V24.8086ZM13.8711 35.2119H17.3389V42.1475H13.8711V35.2119ZM24.2744 35.2119H27.7422V42.1475H24.2744V35.2119Z" fill="black"/>
<path d="M52.0166 24.8076C52.0166 23.8879 51.6512 23.0058 51.0009 22.3555C50.3506 21.7052 49.4685 21.3398 48.5488 21.3398H38.1455V7.46876C38.1455 6.54905 37.7801 5.66701 37.1298 5.01667C36.4795 4.36634 35.5974 4.00098 34.6777 4.00098H6.93555C6.01584 4.00098 5.13379 4.36634 4.48346 5.01667C3.83313 5.66701 3.46777 6.54905 3.46777 7.46876V52.5498H52.0166V24.8076ZM6.93555 7.46876H34.6777V49.082H6.93555V7.46876ZM38.1455 49.082V24.8076H48.5488V49.082H38.1455Z" fill="black"/>
</svg>
