<svg width="18" height="18" viewBox="0 0 18 18" fill="none" xmlns="http://www.w3.org/2000/svg">
<g clip-path="url(#clip0_35_931)">
<path d="M2.58333 17.2617C2.07917 17.2617 1.64742 17.0824 1.28808 16.7236C0.929361 16.3643 0.75 15.9326 0.75 15.4284V9.01172C0.75 7.86589 0.967555 6.79247 1.40267 5.79147C1.83839 4.79108 2.42689 3.92025 3.16817 3.17897C3.90883 2.4383 4.77967 1.85011 5.78067 1.41439C6.78106 0.979274 7.85417 0.761719 9 0.761719C10.1458 0.761719 11.2192 0.979274 12.2202 1.41439C13.2206 1.85011 14.0915 2.4383 14.8328 3.17897C15.5734 3.92025 16.1616 4.79108 16.5973 5.79147C17.0324 6.79247 17.25 7.86589 17.25 9.01172V15.4284C17.25 15.9326 17.0706 16.3643 16.7119 16.7236C16.3526 17.0824 15.9208 17.2617 15.4167 17.2617H13.5833C13.0792 17.2617 12.6477 17.0824 12.289 16.7236C11.9297 16.3643 11.75 15.9326 11.75 15.4284V11.7617C11.75 11.2576 11.9297 10.8258 12.289 10.4665C12.6477 10.1077 13.0792 9.92839 13.5833 9.92839H15.4167V9.01172C15.4167 7.22422 14.7939 5.70775 13.5485 4.4623C12.3037 3.21747 10.7875 2.59505 9 2.59505C7.2125 2.59505 5.69633 3.21747 4.4515 4.4623C3.20606 5.70775 2.58333 7.22422 2.58333 9.01172V9.92839H4.41667C4.92083 9.92839 5.35228 10.1077 5.711 10.4665C6.07033 10.8258 6.25 11.2576 6.25 11.7617V15.4284C6.25 15.9326 6.07033 16.3643 5.711 16.7236C5.35228 17.0824 4.92083 17.2617 4.41667 17.2617H2.58333ZM2.58333 15.4284H4.41667V11.7617H2.58333V15.4284ZM13.5833 15.4284H15.4167V11.7617H13.5833V15.4284Z" fill="black"/>
</g>
<defs>
<clipPath id="clip0_35_931">
<rect width="18" height="18" fill="white"/>
</clipPath>
</defs>
</svg>
