<svg width="175" height="70" viewBox="0 0 175 70" fill="none" xmlns="http://www.w3.org/2000/svg">
<g clip-path="url(#clip0_35_551)">
<path d="M175 0H0V70H175V0Z" fill="white"/>
<path d="M88.0409 34.0179H83.7866C83.6768 34.0179 83.5879 34.1066 83.5878 34.216V36.2896C83.5878 36.3991 83.6768 36.488 83.7866 36.4881H85.4462V39.0643C85.4462 39.0643 85.0736 39.1911 84.0432 39.1911C82.8279 39.1911 81.13 38.7482 81.13 35.026C81.13 31.3031 82.8979 30.8131 84.5578 30.8131C85.9946 30.8131 86.6137 31.0654 87.0075 31.1869C87.1314 31.2246 87.2457 31.102 87.2457 30.9922L87.7204 28.9889C87.7204 28.9376 87.703 28.8759 87.6444 28.8339C87.4844 28.7203 86.5086 28.1758 84.0432 28.1758C81.2033 28.1758 78.29 29.3805 78.29 35.1712C78.29 40.9621 81.6255 41.825 84.4361 41.825C86.7633 41.825 88.1751 40.8335 88.1751 40.8335C88.2333 40.8013 88.2396 40.7204 88.2396 40.6831V34.216C88.2396 34.1067 88.1505 34.0179 88.0409 34.0179ZM109.965 28.8696C109.966 28.817 109.945 28.7662 109.908 28.7288C109.871 28.6914 109.821 28.6703 109.768 28.6704H107.373C107.263 28.6711 107.174 28.76 107.174 28.8696L107.175 33.4847H103.441V28.8696C103.442 28.8169 103.421 28.7662 103.384 28.7287C103.347 28.6913 103.296 28.6703 103.243 28.6704H100.848C100.795 28.6705 100.745 28.6916 100.708 28.729C100.671 28.7664 100.65 28.817 100.65 28.8696V41.3659C100.65 41.4759 100.739 41.5656 100.848 41.5656H103.243C103.353 41.5656 103.441 41.4759 103.441 41.3659V36.0207H107.175L107.168 41.3659C107.168 41.4759 107.257 41.5656 107.367 41.5656H109.768C109.878 41.5656 109.965 41.4759 109.965 41.3659V28.8696ZM92.5613 30.5096C92.5613 29.6496 91.8697 28.9547 91.0165 28.9547C90.1642 28.9547 89.4722 29.6496 89.4722 30.5096C89.4722 31.3685 90.1642 32.0652 91.0165 32.0652C91.8697 32.0652 92.5613 31.3685 92.5613 30.5096ZM92.39 38.73V32.9616C92.39 32.852 92.3014 32.7629 92.1918 32.7625H89.804C89.6944 32.7625 89.5964 32.8751 89.5964 32.9847V41.2487C89.5964 41.4917 89.7481 41.5639 89.9446 41.5639H92.096C92.3321 41.5639 92.39 41.4483 92.39 41.2449V38.73ZM119.069 32.7814H116.692C116.583 32.7814 116.494 32.8708 116.494 32.9811V39.1084C116.494 39.1084 115.89 39.5489 115.033 39.5489C114.176 39.5489 113.949 39.1612 113.949 38.3246V32.9811C113.949 32.8708 113.86 32.7814 113.751 32.7814H111.338C111.23 32.7814 111.14 32.8708 111.14 32.9811V38.729C111.14 41.214 112.53 41.8221 114.441 41.8221C116.009 41.8221 117.273 40.9586 117.273 40.9586C117.273 40.9586 117.333 41.4136 117.36 41.4675C117.388 41.5214 117.459 41.5757 117.535 41.5757L119.07 41.569C119.18 41.5681 119.268 41.479 119.268 41.3694L119.267 32.9812C119.267 32.8708 119.179 32.7814 119.069 32.7814ZM124.628 39.5413C123.804 39.5162 123.245 39.1432 123.245 39.1432V35.1861C123.245 35.1861 123.796 34.849 124.473 34.7885C125.329 34.7122 126.154 34.9699 126.154 37.0056C126.154 39.1523 125.782 39.5758 124.628 39.5413ZM125.566 32.5007C124.216 32.5007 123.298 33.1013 123.298 33.1013V28.8698C123.298 28.7594 123.209 28.6704 123.1 28.6704H120.698C120.588 28.6711 120.5 28.7602 120.5 28.8698V41.3659C120.5 41.4759 120.589 41.5656 120.698 41.5656H122.365C122.44 41.5656 122.497 41.5271 122.539 41.4597C122.58 41.3924 122.64 40.8834 122.64 40.8834C122.64 40.8834 123.622 41.8115 125.482 41.8115C127.664 41.8115 128.916 40.7075 128.916 36.8558C128.916 33.0039 126.917 32.5007 125.566 32.5007ZM99.2745 32.7614H97.4776L97.4748 30.3948C97.4748 30.3053 97.4286 30.2604 97.3248 30.2604H94.876C94.7809 30.2604 94.7298 30.3023 94.7298 30.3935V32.8391C94.7298 32.8391 93.5028 33.1343 93.4197 33.1584C93.3348 33.1827 93.2763 33.2604 93.2763 33.3487V34.8855C93.2763 34.996 93.3649 35.0851 93.4744 35.0851H94.7298V38.782C94.7298 41.5281 96.6618 41.7978 97.9657 41.7978C98.5613 41.7978 99.2741 41.6072 99.3918 41.5637C99.4629 41.5376 99.5042 41.4643 99.5042 41.3846L99.5062 39.694C99.5062 39.5836 99.4127 39.4946 99.3075 39.4946C99.2028 39.4946 98.935 39.5371 98.6593 39.5371C97.7766 39.5371 97.4776 39.128 97.4776 38.5984V35.0849H99.2742C99.3838 35.0849 99.4724 34.9959 99.4724 34.8853V32.9603C99.4727 32.9076 99.452 32.857 99.4148 32.8196C99.3776 32.7823 99.3272 32.7613 99.2745 32.7614Z" fill="#121110"/>
<path d="M58.9566 21.875C51.5257 21.875 45.5 27.893 45.5 35.3168C45.5 41.2558 49.3557 46.2943 54.7024 48.0719C55.3749 48.1962 55.6219 47.7802 55.6219 47.4252C55.6219 47.1046 55.6093 46.0457 55.6035 44.9225C51.8599 45.7356 51.0699 43.3366 51.0699 43.3366C50.4579 41.7828 49.5758 41.3698 49.5758 41.3698C48.355 40.5355 49.6679 40.5526 49.6679 40.5526C51.0193 40.6474 51.7308 41.9378 51.7308 41.9378C52.9309 43.9929 54.8786 43.3986 55.6466 43.0554C55.7673 42.1865 56.1161 41.5935 56.5009 41.2578C53.5121 40.9179 50.3701 39.7652 50.3701 34.6148C50.3701 33.1473 50.8957 31.9481 51.7566 31.0068C51.6169 30.6683 51.1563 29.3011 51.887 27.4495C51.887 27.4495 53.0169 27.0883 55.5884 28.8274C56.6618 28.5296 57.8128 28.3802 58.9564 28.3752C60.1001 28.3802 61.2521 28.5296 62.3275 28.8274C64.8961 27.0883 66.0244 27.4495 66.0244 27.4495C66.757 29.3011 66.2961 30.6683 66.1564 31.0068C67.0192 31.9481 67.5413 33.1471 67.5413 34.6148C67.5413 39.7775 64.3932 40.9144 61.3969 41.247C61.8795 41.6643 62.3095 42.4823 62.3095 43.7363C62.3095 45.5348 62.294 46.9823 62.294 47.4252C62.294 47.7828 62.5361 48.2019 63.2183 48.0699C68.5621 46.2906 72.413 41.2538 72.413 35.3168C72.413 27.893 66.3882 21.875 58.9566 21.875Z" fill="#161614"/>
<path d="M50.5402 41.0229C50.5106 41.0896 50.4051 41.1097 50.3095 41.0639C50.2118 41.02 50.157 40.9288 50.1887 40.8619C50.2178 40.7931 50.323 40.7739 50.4205 40.8202C50.5182 40.8639 50.574 40.956 50.5402 41.0229ZM51.2021 41.6129C51.138 41.6723 51.0124 41.6446 50.9273 41.5507C50.8392 41.4571 50.8228 41.3318 50.8879 41.2713C50.9539 41.2121 51.0758 41.2397 51.1639 41.3335C51.252 41.4284 51.2692 41.5529 51.2021 41.6129ZM51.6562 42.3677C51.5736 42.4249 51.4388 42.3712 51.3555 42.2516C51.273 42.1322 51.273 41.9888 51.3573 41.9314C51.4408 41.874 51.5738 41.9256 51.6582 42.0442C51.7405 42.1658 51.7406 42.3092 51.6562 42.3677ZM52.424 43.2419C52.3504 43.3231 52.1933 43.3013 52.0782 43.1905C51.9606 43.0821 51.9278 42.9283 52.0017 42.8469C52.0765 42.7656 52.2345 42.7886 52.3502 42.8985C52.4672 43.0066 52.5026 43.1616 52.424 43.2419ZM53.4165 43.5371C53.3842 43.6423 53.2327 43.6902 53.0803 43.6455C52.9283 43.5994 52.8285 43.476 52.8592 43.3696C52.891 43.2637 53.043 43.2138 53.1965 43.2617C53.3485 43.3076 53.4481 43.43 53.4165 43.5371ZM54.5462 43.6622C54.55 43.773 54.4207 43.865 54.2606 43.867C54.0997 43.8705 53.9697 43.7809 53.968 43.6717C53.968 43.5598 54.0942 43.4688 54.2551 43.466C54.4152 43.463 54.5462 43.552 54.5462 43.6622ZM55.6559 43.6197C55.6751 43.7279 55.5638 43.8391 55.405 43.8685C55.2488 43.8969 55.1042 43.8302 55.0842 43.723C55.0649 43.6122 55.1781 43.5012 55.3341 43.4723C55.4931 43.4447 55.6356 43.5098 55.6559 43.6197Z" fill="#161614"/>
</g>
<defs>
<clipPath id="clip0_35_551">
<rect width="175" height="70" fill="white"/>
</clipPath>
</defs>
</svg>
