<svg width="175" height="70" viewBox="0 0 175 70" fill="none" xmlns="http://www.w3.org/2000/svg">
<g clip-path="url(#clip0_35_430)">
<path d="M175 0H0V70H175V0Z" fill="white"/>
<path d="M110.384 28.7637H108.708L108.714 41.2353H115.492V39.6931H110.389L110.384 28.7637Z" fill="#8C929D"/>
<path d="M121.947 39.0465C121.528 39.4844 120.823 39.9224 119.871 39.9224C118.595 39.9224 118.081 39.294 118.081 38.4752C118.081 37.2376 118.938 36.6473 120.766 36.6473C121.109 36.6473 121.661 36.6854 121.947 36.7425V39.0465ZM120.214 31.4873C118.861 31.4873 117.62 31.967 116.651 32.7654L117.244 33.7913C117.929 33.3914 118.767 32.9915 119.966 32.9915C121.337 32.9915 121.947 33.6961 121.947 34.8766V35.4859C121.68 35.4288 121.128 35.3906 120.785 35.3906C117.853 35.3906 116.368 36.4188 116.368 38.5705C116.368 40.4936 117.548 41.4647 119.338 41.4647C120.544 41.4647 121.699 40.9124 122.099 40.0176L122.404 41.2361H123.584V34.8575C123.584 32.8392 122.708 31.4873 120.214 31.4873Z" fill="#8C929D"/>
<path d="M128.991 39.9796C128.362 39.9796 127.81 39.9034 127.391 39.713V34.5434V33.9437C127.963 33.4676 128.667 33.1249 129.562 33.1249C131.18 33.1249 131.809 34.2673 131.809 36.1143C131.809 38.7419 130.8 39.9796 128.991 39.9796ZM129.695 31.4874C128.197 31.4874 127.391 32.5062 127.391 32.5062V30.8972L127.386 28.7646H126.63H125.749L125.754 40.9317C126.573 41.2744 127.696 41.4647 128.915 41.4647C132.037 41.4647 133.541 39.4655 133.541 36.0192C133.541 33.2963 132.151 31.4874 129.695 31.4874Z" fill="#8C929D"/>
<path d="M92.1697 30.1156C93.6548 30.1156 94.6069 30.6106 95.2352 31.1057L95.9553 29.8584C94.9739 28.9977 93.6538 28.5352 92.2458 28.5352C88.6852 28.5352 86.1909 30.7059 86.1909 35.0852C86.1909 39.6741 88.8818 41.4639 91.9602 41.4639C93.5025 41.4639 94.8164 41.1021 95.6732 40.7403L95.6381 35.8374V35.2589V34.295H91.0683V35.8374H93.9815L94.0166 39.5597C93.6358 39.7502 92.9694 39.9025 92.0745 39.9025C89.5992 39.9025 87.9427 38.3454 87.9427 35.0661C87.9427 31.7341 89.6563 30.1156 92.1697 30.1156Z" fill="#8C929D"/>
<path d="M103.953 28.7637H102.316L102.321 30.8581V31.715V32.2144V33.086V38.0746V38.0936C102.321 40.112 103.197 41.4639 105.691 41.4639C106.036 41.4639 106.373 41.4325 106.701 41.3731V39.9026C106.464 39.9389 106.211 39.9596 105.939 39.9596C104.568 39.9596 103.959 39.2551 103.959 38.0746V33.086H106.701V31.715H103.959L103.953 28.7637Z" fill="#8C929D"/>
<path d="M98.1611 41.2362H99.7987V31.7158H98.1611V41.2362Z" fill="#8C929D"/>
<path d="M98.1611 30.4022H99.7987V28.7646H98.1611V30.4022Z" fill="#8C929D"/>
<path d="M54.7598 50.6718L60.8501 31.9277H48.6694L54.7598 50.6718Z" fill="#E24329"/>
<path d="M54.7596 50.6727L48.6693 31.9287H40.1338L54.7596 50.6727Z" fill="#FC6D26"/>
<path d="M40.1338 31.9277L38.283 37.6239C38.1142 38.1434 38.2991 38.7126 38.7411 39.0336L54.7597 50.6718L40.1338 31.9277Z" fill="#FCA326"/>
<path d="M40.1338 31.9282H48.6693L45.0011 20.6388C44.8123 20.0579 43.9906 20.0579 43.8019 20.6388L40.1338 31.9282Z" fill="#E24329"/>
<path d="M54.7598 50.6727L60.8501 31.9287H69.3856L54.7598 50.6727Z" fill="#FC6D26"/>
<path d="M69.3856 31.9277L71.2365 37.6239C71.4053 38.1434 71.2203 38.7126 70.7783 39.0336L54.7598 50.6718L69.3856 31.9277Z" fill="#FCA326"/>
<path d="M69.3856 31.9282H60.8501L64.5183 20.6388C64.7071 20.0579 65.5288 20.0579 65.7175 20.6388L69.3856 31.9282Z" fill="#E24329"/>
</g>
<defs>
<clipPath id="clip0_35_430">
<rect width="175" height="70" fill="white"/>
</clipPath>
</defs>
</svg>
