<svg width="21" height="21" viewBox="0 0 21 21" fill="none" xmlns="http://www.w3.org/2000/svg">
<g clip-path="url(#clip0_35_109)">
<path d="M4.65407 12.6906L3.92308 15.4194L1.25135 15.4759C0.452897 13.995 0 12.3006 0 10.5C0 8.75882 0.423448 7.11688 1.17404 5.67111H1.17461L3.5532 6.10719L4.59517 8.47151C4.37709 9.10729 4.25823 9.7898 4.25823 10.5C4.25831 11.2708 4.39793 12.0092 4.65407 12.6906Z" fill="#FBBB00"/>
<path d="M20.8166 8.53859C20.9372 9.17376 21 9.82972 21 10.5001C21 11.2519 20.921 11.9851 20.7704 12.6925C20.2593 15.0994 18.9237 17.2011 17.0735 18.6885L17.0729 18.6879L14.077 18.535L13.6529 15.8881C14.8806 15.1681 15.8401 14.0413 16.3455 12.6925H10.7308V8.53859H16.4274H20.8166Z" fill="#518EF8"/>
<path d="M17.0729 18.6879L17.0735 18.6885C15.2741 20.1348 12.9883 21.0002 10.5 21.0002C6.50133 21.0002 3.02478 18.7652 1.2513 15.4761L4.65401 12.6908C5.54074 15.0573 7.82364 16.7419 10.5 16.7419C11.6504 16.7419 12.7281 16.4309 13.6529 15.8881L17.0729 18.6879Z" fill="#28B446"/>
<path d="M17.2024 2.41731L13.8008 5.20212C12.8437 4.60387 11.7123 4.25827 10.5002 4.25827C7.76327 4.25827 5.43767 6.02018 4.59537 8.47158L1.17477 5.67118H1.1742C2.92172 2.30193 6.44211 0 10.5002 0C13.0479 0 15.3839 0.907517 17.2024 2.41731Z" fill="#F14336"/>
</g>
<defs>
<clipPath id="clip0_35_109">
<rect width="20.88" height="20.88" fill="white" transform="scale(1.00575)"/>
</clipPath>
</defs>
</svg>
