<svg width="72" height="72" viewBox="0 0 72 72" fill="none" xmlns="http://www.w3.org/2000/svg">
<path d="M56.2224 16.0382C53.5971 13.416 50.4753 11.3435 47.0396 9.94197C43.6039 8.54042 39.9233 7.83788 36.2129 7.87545C32.5017 7.84736 28.8216 8.55407 25.3847 9.95485C21.9479 11.3556 18.8223 13.4228 16.1881 16.0371C13.5538 18.6515 11.4631 21.7614 10.0363 25.1875C8.60956 28.6136 7.875 32.2883 7.875 35.9996V51.7496C7.87664 53.241 8.4698 54.6707 9.52433 55.7253C10.5789 56.7798 12.0087 57.373 13.5 57.3746H18C19.4913 57.373 20.9211 56.7798 21.9757 55.7253C23.0302 54.6707 23.6234 53.241 23.625 51.7496V40.4996C23.6234 39.0083 23.0302 37.5785 21.9757 36.5239C20.9211 35.4694 19.4913 34.8762 18 34.8746H10.1489C10.4407 28.1764 13.3209 21.8529 18.1827 17.2362C23.0446 12.6196 29.5086 10.0702 36.2129 10.1252C42.9144 10.0745 49.3742 12.6258 54.2325 17.242C59.0908 21.8583 61.9686 28.1793 62.2603 34.8746H54.4092C52.9179 34.8762 51.4881 35.4694 50.4336 36.5239C49.379 37.5785 48.7859 39.0083 48.7842 40.4996V51.7496C48.7859 53.241 49.379 54.6707 50.4336 55.7253C51.4881 56.7798 52.9179 57.373 54.4092 57.3746H58.9092C60.128 57.3742 61.3132 56.9754 62.2842 56.2389V58.4996C62.2819 60.5875 61.4515 62.5892 59.9751 64.0655C58.4988 65.5419 56.4971 66.3723 54.4092 66.3746H38.25C37.9516 66.3746 37.6655 66.4931 37.4545 66.7041C37.2435 66.9151 37.125 67.2012 37.125 67.4996C37.125 67.798 37.2435 68.0841 37.4545 68.2951C37.6655 68.5061 37.9516 68.6246 38.25 68.6246H54.4095C57.0939 68.6216 59.6675 67.5539 61.5657 65.6558C63.4638 63.7576 64.5315 61.184 64.5345 58.4996V35.9996C64.5452 32.2869 63.8156 28.6094 62.3884 25.1819C60.9612 21.7545 58.865 18.646 56.2224 16.0382ZM18 37.1246C18.8948 37.1256 19.7527 37.4815 20.3854 38.1142C21.0181 38.7469 21.374 39.6048 21.375 40.4996V51.7496C21.374 52.6444 21.0181 53.5023 20.3854 54.135C19.7527 54.7677 18.8948 55.1236 18 55.1246H13.5C12.6052 55.1236 11.7473 54.7677 11.1146 54.135C10.4819 53.5023 10.126 52.6444 10.125 51.7496V37.1246H18ZM58.9095 55.1246H54.4095C53.5147 55.1236 52.6568 54.7677 52.0241 54.135C51.3914 53.5023 51.0355 52.6444 51.0345 51.7496V40.4996C51.0355 39.6048 51.3914 38.7469 52.0241 38.1142C52.6568 37.4815 53.5147 37.1256 54.4095 37.1246H62.2845V51.7496C62.2835 52.6444 61.9276 53.5023 61.2949 54.135C60.6622 54.7677 59.8043 55.1236 58.9095 55.1246Z" fill="#333333"/>
</svg>
