<svg width="116" height="20" viewBox="0 0 116 20" fill="none" xmlns="http://www.w3.org/2000/svg">
<g clip-path="url(#clip0_35_672)">
<path d="M13.771 1.01375C14.1914 1.62272 14.8273 2.19396 14.935 2.85412C14.9808 3.13974 13.9865 3.78374 13.3803 3.93194C12.4803 4.16637 11.5318 3.93194 11.1681 2.9188C10.7746 1.81403 11.8255 1.52841 12.421 1.00298L13.771 1.01375Z" fill="#CD5335"/>
<path d="M8.37606 1.01567C9.87687 2.01804 10.2056 3.09586 9.07394 3.58357C8.19314 3.91761 7.21827 3.90412 6.34706 3.54585C5.2854 3.05544 5.57373 2.14199 7.02878 1.01567H8.37606Z" fill="#CD5335"/>
<path d="M2.98557 1.01567C3.37752 1.22299 3.74919 1.46657 4.09572 1.7432C4.30589 1.9399 4.55917 2.42762 4.47295 2.55156C4.07685 3.0743 3.64033 3.74255 3.07717 3.92039C2.17989 4.18985 1.12094 4.12788 0.652085 3.05006C0.32335 2.27672 0.67903 1.66236 1.46045 1.32824C1.6135 1.24436 1.75636 1.14308 1.88619 1.02645L2.98557 1.01567Z" fill="#CD5335"/>
<path d="M11.3344 17.033C7.83152 17.8413 5.74055 16.2704 5.72977 12.9912C5.72977 11.0672 5.72977 9.1433 5.72977 7.21944C5.72977 5.82097 6.37916 5.15003 7.72913 5.10422C9.1276 5.05572 9.84969 5.74013 9.88478 7.22482C9.91169 8.92239 9.90097 10.6227 9.88478 12.3229C9.8686 14.0232 9.8066 15.7288 11.3344 17.033Z" fill="#CD5335"/>
<path d="M6.32183 17.3004C5.03653 17.2411 4.13924 17.2761 3.26891 17.1387C1.76535 16.907 0.60939 15.5058 0.574361 13.8918C0.531248 11.5125 0.542026 9.13319 0.574361 6.75662C0.574361 5.6788 1.31806 5.0402 2.55217 5.11564C3.568 5.17762 4.57306 5.3851 4.57845 6.75662C4.57845 8.72902 4.62965 10.7068 4.57845 12.6846C4.51378 14.3094 4.79132 15.7914 6.32183 17.3004Z" fill="#CD5335"/>
<path d="M16.7881 17.2224C15.775 17.2224 15.104 17.2709 14.4412 17.2224C12.4446 17.0554 11.1431 15.7 11.1054 13.7033C11.0649 11.4615 11.0838 9.21694 11.1054 6.96698C11.1054 5.69785 11.8328 5.0808 13.1667 5.10236C14.5005 5.12392 15.1068 5.71941 15.1175 6.93735C15.1364 8.73191 15.166 10.5265 15.1175 12.3264C15.0529 14.0644 15.2253 15.7135 16.7881 17.2224Z" fill="#CD5335"/>
<path d="M79.6583 17.3279L78.4377 16.1396C77.1982 17.4518 75.5141 17.7564 73.6711 17.2175C72.2941 16.8052 71.5154 15.7381 71.5397 14.4609C71.564 13.0651 72.4639 11.8176 73.9405 11.6397C75.471 11.4565 77.0393 11.5993 78.6101 11.5993C79.0844 9.98257 78.1413 8.6865 76.2066 8.57063C75.339 8.51674 74.4552 8.82123 73.5741 8.90745C73.2663 8.89157 72.9629 8.82888 72.6741 8.72153C72.8816 8.45208 73.0621 7.96705 73.3046 7.93472C74.6223 7.75149 75.9668 7.51438 77.2817 7.60869C77.9863 7.6755 78.6448 7.98845 79.1416 8.49257C79.6382 8.99669 79.9415 9.65975 79.9979 10.3652C80.1083 12.5936 80.0275 14.8327 80.0275 17.0666L79.6583 17.3279ZM76.1365 12.2675L76.0907 12.1274C75.3309 12.3349 74.5037 12.4158 73.8246 12.7768C72.41 13.5259 72.437 15.307 73.8031 16.1477C75.1693 16.9884 77.4973 16.498 78.4108 15.2181C79.3781 13.8708 78.9228 12.6501 77.3329 12.3672C76.9361 12.3137 76.5368 12.2804 76.1365 12.2675Z" fill="#CD5335" stroke="#CD5335" stroke-width="1.01559"/>
<path d="M113.945 12.8706C111.789 12.8706 109.679 12.8706 107.58 12.8706C106.064 12.8706 105.855 13.2586 106.613 14.6033C107.855 16.802 110.466 17.0687 112.854 15.2256C113.707 15.5571 113.544 15.9559 112.972 16.4544C111.126 18.0711 107.691 17.7451 106.061 15.805C104.7 14.1883 104.519 11.5126 105.648 9.63448C106.702 7.88303 108.532 7.107 110.609 7.53274C112.778 7.96656 114.117 10.0037 113.945 12.8706ZM112.745 11.9491C112.476 9.46739 111.221 8.32223 109.173 8.47852C107.502 8.60786 106.263 10.0656 106.319 11.9491H112.745Z" fill="#CD5335" stroke="#CD5335" stroke-width="1.01559"/>
<path d="M54.7198 17.4549C51.9255 17.4415 49.7133 15.2994 49.6944 12.5859C49.6756 9.87249 52.0117 7.5552 54.7709 7.5552C55.4317 7.55023 56.0869 7.67567 56.699 7.92435C57.3112 8.17301 57.8682 8.54002 58.3383 9.00434C58.8084 9.46867 59.1823 10.0211 59.4384 10.6302C59.6946 11.2392 59.8282 11.8929 59.8313 12.5536C59.8205 15.3316 57.603 17.4549 54.7198 17.4549ZM54.6713 8.49021C52.6018 8.49021 50.9528 10.2363 50.9447 12.4351C50.9447 14.5906 52.7177 16.4365 54.8248 16.4391C55.8421 16.4206 56.8105 15.9996 57.5177 15.2682C58.2249 14.5367 58.6131 13.5547 58.5972 12.5374C58.5892 10.2067 56.905 8.47673 54.6713 8.47943V8.49021Z" fill="#CD5335" stroke="#CD5335" stroke-width="1.01559"/>
<path d="M28.5417 17.1808H27.3103C27.3103 14.1656 27.2888 11.1774 27.3481 8.18914C27.3481 7.91968 27.887 7.68526 28.4097 7.2191L28.6307 9.08103C28.9513 8.81158 29.1884 8.63913 29.404 8.44243C30.6732 7.28378 32.1416 7.18947 33.6722 7.72029C35.2027 8.25111 35.6823 9.59028 35.7604 11.0292C35.8574 12.8157 35.8197 14.613 35.7604 16.4048C35.7604 16.6743 35.3562 16.9437 35.1407 17.1916C34.9494 16.906 34.6018 16.6231 34.6018 16.3321C34.5452 14.8096 34.5883 13.2845 34.5668 11.7513C34.5398 9.63337 33.5051 8.46937 31.6809 8.46668C29.7759 8.46668 28.5525 9.78164 28.5417 11.8698C28.5337 13.6294 28.5417 15.3728 28.5417 17.1808Z" fill="#CD5335" stroke="#CD5335" stroke-width="1.01559"/>
<path d="M38.8735 7.79124C40.3771 7.14186 39.9702 8.40021 40.2855 9.0523C41.4199 7.77239 42.751 7.22539 44.3974 7.50562C45.8686 7.75621 47.0272 8.75859 47.1215 10.2244C47.2562 12.2345 47.2509 14.2663 47.2401 16.2736C47.2401 16.5701 46.8818 16.8665 46.7012 17.1628C46.5126 16.8692 46.1623 16.5836 46.1623 16.2817C46.0841 14.5788 46.2027 12.8623 46.0248 11.1621C45.7554 8.63464 43.2495 7.5676 41.2878 9.1574C40.675 9.72168 40.2832 10.486 40.1831 11.3131C40.008 12.9109 40.1534 14.5465 40.0753 16.1632C40.0564 16.5188 39.6603 16.8557 39.4394 17.2006C39.2561 16.8611 38.9221 16.5216 38.9166 16.1766C38.852 13.3932 38.8735 10.6151 38.8735 7.79124Z" fill="#CD5335" stroke="#CD5335" stroke-width="1.01559"/>
<path d="M60.9957 7.74911C62.0358 7.37458 62.3888 7.81378 62.677 8.54131C63.6048 10.9719 64.6791 13.3438 65.8943 15.6441C66.2716 14.7145 66.6434 13.7849 67.0233 12.8607C67.6351 11.3706 68.2063 9.86167 68.9095 8.40928C69.1009 8.00509 69.6533 7.77606 70.0413 7.46618L70.4077 7.84342C69.1009 10.8694 67.8102 13.9034 66.471 16.9159C66.4117 17.0696 66.3069 17.2015 66.1705 17.2939C66.0342 17.3864 65.8729 17.435 65.7082 17.4332C65.5435 17.4315 65.3833 17.3795 65.249 17.2841C65.1147 17.1887 65.0127 17.0546 64.9567 16.8998C63.6094 13.8684 62.3241 10.8263 60.9957 7.74911Z" fill="#CD5335" stroke="#CD5335" stroke-width="1.01559"/>
<path d="M103.701 7.80227C102.386 10.8282 101.087 13.8596 99.7481 16.8721C99.419 17.6105 98.5808 17.632 98.2581 16.9045C96.9108 13.8946 95.6199 10.8606 94.2917 7.7915C95.259 7.33073 95.639 7.75108 95.949 8.52441C96.8808 10.8768 97.859 13.2102 98.9718 15.9264C99.5381 14.6464 99.9718 13.7114 100.365 12.763C100.968 11.3213 101.499 9.84739 102.162 8.43279C102.365 8.00436 102.904 7.73221 103.288 7.39001L103.701 7.80227Z" fill="#CD5335" stroke="#CD5335" stroke-width="1.01559"/>
<path d="M84.8314 7.58535H87.7092C88.1268 8.71975 87.4559 8.71167 86.7849 8.70628H84.8637C84.8637 10.9589 84.7641 13.0553 84.9042 15.1355C84.985 16.3049 85.8877 16.5717 87.9678 16.1863C87.7631 16.6174 87.6984 17.0352 87.472 17.178C85.9496 18.1156 83.7428 17.0324 83.6431 15.2621C83.5434 13.4918 83.5946 11.7592 83.5919 10.0212C83.5919 9.32063 83.6296 8.63891 82.6003 8.65509C82.4413 8.65509 82.1503 8.32366 82.1476 8.13774C82.1449 7.95181 82.4413 7.62308 82.595 7.62847C83.6431 7.67158 83.5892 6.96561 83.5892 6.28119C83.5549 5.92162 83.5694 5.55906 83.6323 5.20337C83.697 4.97433 83.9772 4.80458 84.1712 4.61058C84.3491 4.81536 84.6535 5.00128 84.6859 5.22763C84.7802 5.96863 84.7829 6.72041 84.8314 7.58535Z" fill="#CD5335" stroke="#CD5335" stroke-width="1.01559"/>
<path d="M23.9243 7.81355V17.1663L22.7305 17.2472C22.7305 14.1942 22.709 11.2518 22.7682 8.31205C22.7682 8.02372 23.2829 7.74618 23.5578 7.46326L23.9243 7.81355Z" fill="#CD5335" stroke="#CD5335" stroke-width="1.01559"/>
<path d="M90.6304 12.4369C90.6304 11.1381 90.5872 9.83668 90.6573 8.54061C90.6735 8.21996 91.0457 7.91548 91.2529 7.60291C91.452 7.88853 91.8211 8.16876 91.8266 8.45708C91.8702 11.0995 91.8702 13.7429 91.8266 16.3871C91.8266 16.6566 91.4257 16.926 91.2093 17.1955C91.0184 16.9072 90.6707 16.6269 90.6707 16.3306C90.5873 15.0291 90.6304 13.7357 90.6304 12.4369Z" fill="#CD5335" stroke="#CD5335" stroke-width="1.01559"/>
<path d="M90.6388 3.8078H91.7974C91.8274 4.09342 91.9811 4.47065 91.8538 4.65658C91.7274 4.8425 91.1938 5.12273 91.0456 5.03112C90.7304 4.83172 90.5445 4.42215 90.3047 4.09881L90.6388 3.8078Z" fill="#CD5335" stroke="#CD5335" stroke-width="1.01559"/>
<path d="M23.0785 3.6115L24.0216 4.41987L23.3749 5.06925L22.5665 4.13964L23.0785 3.6115Z" fill="#CD5335" stroke="#CD5335" stroke-width="1.01559"/>
</g>
<defs>
<clipPath id="clip0_35_672">
<rect width="115.45" height="19.9992" fill="white"/>
</clipPath>
</defs>
</svg>
