<svg width="72" height="72" viewBox="0 0 72 72" fill="none" xmlns="http://www.w3.org/2000/svg">
<g clip-path="url(#clip0_35_327)">
<path d="M34.8835 1.38477H4.73464C2.88551 1.38477 1.38477 2.88551 1.38477 4.73464V33.7669H14.7843V32.6503C12.7833 31.4912 11.4344 29.5461 11.4344 27.0671C11.4344 23.3678 14.4336 20.3674 18.1341 20.3674C21.8335 20.3674 24.8339 23.3678 24.8339 27.0671C24.8339 29.5461 23.485 31.4912 21.484 32.6503V33.7669H34.8835" stroke="#333333" stroke-width="2.76923"/>
<path d="M1.38477 37.1172V67.2661C1.38477 69.1152 2.88551 70.6159 4.73464 70.6159H33.7669V57.2164H32.6503C31.4912 59.2174 29.5461 60.5663 27.0671 60.5663C23.3667 60.5663 20.3674 57.5659 20.3674 53.8666C20.3674 50.1672 23.3667 47.1668 27.0671 47.1668C29.5461 47.1668 31.4912 48.5157 32.6503 50.5167H33.7669V37.1172" stroke="#333333" stroke-width="2.76923"/>
<path d="M37.1167 70.6155H67.2656C69.1147 70.6155 70.6155 69.1148 70.6155 67.2657V38.2334H57.216V39.35C59.4492 40.5091 60.5658 42.4542 60.5658 44.9331C60.5658 48.6325 57.5655 51.6329 53.8661 51.6329C50.1656 51.6329 47.1663 48.6325 47.1663 44.9331C47.1663 42.4542 48.283 40.5091 50.5162 39.35V38.2334H37.1167" stroke="#333333" stroke-width="2.76923"/>
<path d="M70.6155 34.8835V4.73464C70.6155 2.88551 69.1148 1.38477 67.2657 1.38477H38.2334V14.7843H39.35C40.5091 12.7833 42.4542 11.4344 44.9331 11.4344C48.6325 11.4344 51.6329 14.4336 51.6329 18.1341C51.6329 21.8346 48.6325 24.8339 44.9331 24.8339C42.4542 24.8339 40.5091 23.485 39.35 21.484H38.2334V34.8835" stroke="#333333" stroke-width="2.76923"/>
</g>
<defs>
<clipPath id="clip0_35_327">
<rect width="72" height="72" fill="white"/>
</clipPath>
</defs>
</svg>
