<svg width="175" height="70" viewBox="0 0 175 70" fill="none" xmlns="http://www.w3.org/2000/svg">
<g clip-path="url(#clip0_35_470)">
<path d="M175 70L0 70L0 0L175 0V70Z" fill="white"/>
<path fill-rule="evenodd" clip-rule="evenodd" d="M54.6745 34.8576C54.6745 42.2729 48.7945 48.2842 41.5413 48.2842C34.2881 48.2842 28.4082 42.2729 28.4082 34.8576C28.4082 27.4421 34.2881 21.4307 41.5413 21.4307C48.7945 21.4307 54.6745 27.4421 54.6745 34.8576Z" fill="#D33833"/>
<path d="M28.9432 38.1836C28.9432 38.1836 27.9924 24.1819 40.9005 23.7818L40 22.2816L32.9957 24.6319L30.9944 26.9322L29.2434 30.2827L28.2427 34.1832L28.5429 36.7835" fill="#EF3D3A"/>
<path d="M32.5461 25.6985C30.2418 28.055 28.816 31.3086 28.816 34.908C28.816 38.5067 30.2418 41.7607 32.5461 44.1168C34.8514 46.4729 38.0285 47.9267 41.541 47.9267C45.0535 47.9267 48.2308 46.4729 50.5359 44.1168C52.84 41.7607 54.2662 38.5067 54.2662 34.908C54.2662 31.3086 52.84 28.055 50.5359 25.6985C48.2308 23.3429 45.0535 21.8891 41.541 21.8888C38.0285 21.8891 34.8514 23.3429 32.5461 25.6985ZM31.9628 44.6867C29.5139 42.1835 28 38.7241 28 34.908C28 31.0914 29.5139 27.6323 31.9628 25.1289C34.4111 22.6251 37.8002 21.0731 41.541 21.0736C45.2818 21.0731 48.6712 22.6251 51.1191 25.1289C53.5681 27.6323 55.0823 31.0917 55.082 34.908C55.0823 38.7241 53.5681 42.1835 51.1191 44.6867C48.6712 47.1904 45.2818 48.7422 41.541 48.7422C37.8002 48.7422 34.4111 47.1904 31.9628 44.6867Z" fill="#231F20"/>
<path fill-rule="evenodd" clip-rule="evenodd" d="M47.0695 34.932L45.0681 35.232L42.3664 35.5321L40.6152 35.582L38.9142 35.5321L37.6133 35.132L36.4626 33.8819L35.5621 31.3315L35.3619 30.7814L34.1612 30.3815L33.4607 29.2313L32.9604 27.5811L33.5109 26.1308L34.8116 25.6808L35.8622 26.1809L36.3626 27.281L36.963 27.181L37.1631 26.931L36.963 25.7808L36.9129 24.3306L37.2131 22.3304L37.2014 21.1878L38.1136 19.7301L39.7147 18.5799L42.5165 17.3798L45.6183 17.8298L48.32 19.7801L49.5709 21.7803L50.3714 23.2305L50.5714 26.831L49.9711 29.9314L48.8704 32.6817L47.8198 34.1319" fill="#F0D6B7"/>
<path fill-rule="evenodd" clip-rule="evenodd" d="M45.3686 43.5829L38.214 43.883V45.0831L38.8144 49.2836L38.5142 49.6338L33.5112 47.9335L33.1609 47.3334L32.6606 41.6828L31.51 38.2823L31.2598 37.4822L35.2622 34.7319L36.513 34.2318L37.6136 35.5819L38.5642 36.4321L39.665 36.7821L40.1652 36.9321L40.7656 39.5324L41.2159 40.0825L42.3667 39.6824L41.5661 41.2327L45.9188 43.2829L45.3686 43.5829Z" fill="#335061"/>
<path fill-rule="evenodd" clip-rule="evenodd" d="M33.5108 26.1311L34.8115 25.681L35.8621 26.1812L36.3625 27.2812L36.9629 27.1812L37.113 26.5811L36.8128 25.4311L37.113 22.6806L36.8628 21.1804L37.7633 20.1303L39.7146 18.5801L39.1642 17.83L36.4125 19.1802L35.2618 20.0803L34.6114 21.4805L33.6107 22.8306L33.3105 24.4309L33.5108 26.1311Z" fill="#6D6B6D"/>
<path fill-rule="evenodd" clip-rule="evenodd" d="M35.5622 21.4302C35.5622 21.4302 36.3127 19.58 39.3146 18.6799C42.3164 17.7798 39.4647 18.0297 39.4647 18.0297L36.2127 19.28L34.9619 20.5301L34.4116 21.5303L35.5622 21.4302Z" fill="#DCD9D8"/>
<path fill-rule="evenodd" clip-rule="evenodd" d="M34.061 25.7809C34.061 25.7809 33.0104 22.2803 37.0129 21.7803L36.8628 21.1802L34.1111 21.8304L33.3105 24.4307L33.5108 26.1309L34.061 25.7809Z" fill="#DCD9D8"/>
<path fill-rule="evenodd" clip-rule="evenodd" d="M35.6621 30.4318L36.3172 29.7974C36.3172 29.7974 36.6129 29.8317 36.6628 30.1817C36.7128 30.5319 36.8629 33.6823 39.0142 35.3826C39.2104 35.5377 37.4133 35.1324 37.4133 35.1324L35.8122 32.6321" fill="#F7E4CD"/>
<path fill-rule="evenodd" clip-rule="evenodd" d="M44.8682 29.4814C44.8682 29.4814 44.9848 27.9657 45.3932 28.0822C45.8016 28.1988 45.8016 28.607 45.8016 28.607C45.8016 28.607 44.8098 29.2483 44.8682 29.4814Z" fill="#F7E4CD"/>
<path d="M49.0205 23.9312C49.0205 23.9312 48.1959 24.1052 48.1199 24.8313C48.044 25.5575 49.0205 24.9813 49.1706 24.9313" fill="#F7E4CD"/>
<path d="M42.967 23.9808C42.967 23.9808 41.8662 24.1308 41.8662 24.8308C41.8662 25.531 43.1171 25.481 43.4673 25.181" fill="#F7E4CD"/>
<path fill-rule="evenodd" clip-rule="evenodd" d="M36.1626 27.2311C36.1626 27.2311 34.2613 26.0809 34.0613 27.1811C33.8612 28.2812 33.4108 29.0814 34.3614 30.2314L33.7111 30.0315L33.1107 28.4813L32.9106 26.9811L34.0613 25.7808L35.3621 25.8809L36.1126 26.481L36.1626 27.2311Z" fill="#F7E4CD"/>
<path fill-rule="evenodd" clip-rule="evenodd" d="M37.0631 24.0811C37.0631 24.0811 37.9136 19.6805 42.2164 18.8304C45.7588 18.1305 47.6196 18.9804 48.3201 19.7805C48.3201 19.7805 45.1681 16.0301 42.1662 17.1802C39.1644 18.3304 36.9631 20.4306 37.013 21.7807C37.0982 24.0802 37.0631 24.0811 37.0631 24.0811Z" fill="#F7E4CD"/>
<path fill-rule="evenodd" clip-rule="evenodd" d="M48.6704 20.2805C48.6704 20.2805 47.2196 20.2305 47.1694 21.5307C47.1694 21.5307 47.1693 21.7307 47.2694 21.9307C47.2694 21.9307 48.4203 20.6305 49.1206 21.3306" fill="#F7E4CD"/>
<path fill-rule="evenodd" clip-rule="evenodd" d="M42.3172 22.0663C42.3172 22.0663 42.0675 20.0706 40.3651 21.2308C39.2645 21.9809 39.3646 23.0311 39.5646 23.231C39.7647 23.4312 39.7103 23.834 39.8627 23.5575C40.0149 23.281 39.9648 22.3809 40.5152 22.131C41.0656 21.8809 41.9678 21.6015 42.3172 22.0663Z" fill="#F7E4CD"/>
<path fill-rule="evenodd" clip-rule="evenodd" d="M37.6136 35.5824L32.9108 37.6826C32.9108 37.6826 34.862 45.4337 33.8613 47.834L33.1609 47.5841L33.1108 44.6336L31.8102 39.033L31.2598 37.4827L36.1627 34.1824L37.6136 35.5824Z" fill="#49728B"/>
<path fill-rule="evenodd" clip-rule="evenodd" d="M38.0971 39.8695L38.7643 40.6832V43.6836H37.9637C37.9637 43.6836 37.8638 41.5833 37.8638 41.3332C37.8638 41.0832 37.9637 40.183 37.9637 40.183" fill="#49728B"/>
<path fill-rule="evenodd" clip-rule="evenodd" d="M38.1137 44.1336L35.8623 44.2335L36.5128 44.6835L38.1137 44.9336" fill="#49728B"/>
<path fill-rule="evenodd" clip-rule="evenodd" d="M45.8188 43.633L47.67 43.583L48.1202 48.1837L46.219 48.4336L45.8188 43.633Z" fill="#335061"/>
<path fill-rule="evenodd" clip-rule="evenodd" d="M46.3188 43.6338L49.1206 43.4838C49.1206 43.4838 50.2713 40.5834 50.2713 40.4334C50.2713 40.2834 51.2719 36.2329 51.2719 36.2329L49.0205 33.8827L48.5703 33.4826L47.3695 34.6827V39.3333L46.3188 43.6338Z" fill="#335061"/>
<path fill-rule="evenodd" clip-rule="evenodd" d="M47.5698 43.283L45.8188 43.633L46.0689 45.0333C46.7193 45.3333 47.82 44.5331 47.82 44.5331" fill="#49728B"/>
<path fill-rule="evenodd" clip-rule="evenodd" d="M47.6196 34.5325L51.1218 37.1328L51.2219 35.9327L48.5702 33.4824L47.6196 34.5325Z" fill="#49728B"/>
<path fill-rule="evenodd" clip-rule="evenodd" d="M39.8501 53.4853L38.8142 49.2842L38.2991 46.1844L38.2139 43.8835L42.902 43.634L45.8187 43.6336L45.5535 48.8847L46.0038 52.9352L45.9538 53.6853L42.1515 53.9854L39.8501 53.4853Z" fill="white"/>
<path fill-rule="evenodd" clip-rule="evenodd" d="M45.1683 43.5833C45.1683 43.5833 44.9183 48.784 45.6687 52.4844C45.6687 52.4844 44.1678 53.4346 41.9663 53.6846L46.169 53.5346L46.6692 53.2345L46.0689 45.0336L45.9188 43.2831" fill="#DCD9D8"/>
<path fill-rule="evenodd" clip-rule="evenodd" d="M48.2055 47.7842L50.1567 47.2341L53.8589 47.0341L54.4093 45.3339L53.4086 42.3835L52.258 42.2335L50.6569 42.7335L49.1209 43.4831L48.3054 43.3336L47.6699 43.5832" fill="white"/>
<path fill-rule="evenodd" clip-rule="evenodd" d="M48.1699 46.7839C48.1699 46.7839 49.4706 46.1839 49.6709 46.2339L49.1206 43.4834L49.771 43.2335C49.771 43.2335 50.2213 45.8337 50.2213 46.1338C50.2213 46.1338 53.0229 46.2838 53.2731 46.2838C53.2731 46.2838 53.8735 45.1336 53.7234 43.9335L54.2738 45.5337L54.3238 46.4338L53.5233 47.634L52.6227 47.834L51.1218 47.784L50.6216 47.134L48.8704 47.3839L48.32 47.5841" fill="#DCD9D8"/>
<path d="M46.204 43.2344L45.1034 40.434L43.9526 38.7837C43.9526 38.7837 44.2027 38.0836 44.553 38.0836C44.9033 38.0836 45.7038 38.0836 45.7038 38.0836L46.8044 38.4837L46.7045 40.3339L46.204 43.2344Z" fill="white"/>
<path fill-rule="evenodd" clip-rule="evenodd" d="M46.4193 42.283C46.4193 42.283 45.0183 39.5828 45.0183 39.1827C45.0183 39.1827 45.2683 38.5827 45.6187 38.7327C45.969 38.8827 46.7195 39.2827 46.7195 39.2827V38.3326L45.0183 37.9824L43.8677 38.1325L45.8189 42.7331L46.219 42.7832" fill="#DCD9D8"/>
<path d="M40.3002 35.6826L38.9142 35.532L37.6133 35.1319V35.5819L38.2489 36.2825L40.2501 37.1826" fill="white"/>
<path fill-rule="evenodd" clip-rule="evenodd" d="M38.0637 35.833C38.0637 35.833 39.6147 36.4832 40.115 36.3331L40.1648 36.9326L38.7642 36.6332L37.9136 36.0331L38.0637 35.833Z" fill="#DCD9D8"/>
<path fill-rule="evenodd" clip-rule="evenodd" d="M48.1997 38.2539C47.3508 38.229 46.5838 38.1282 45.9123 37.9389C45.9579 37.6637 45.8725 37.3937 45.9411 37.1955C46.1283 37.0608 46.442 37.0629 46.7249 37.0312C46.4802 36.9111 46.1365 36.8635 45.8542 36.933C45.8476 36.742 45.7619 36.6236 45.71 36.4742C46.1873 36.304 47.314 35.1877 47.9479 35.5573C48.2498 35.7331 48.3782 36.7374 48.4016 37.2257C48.4211 37.6307 48.3648 38.0394 48.1997 38.2539Z" fill="#D33833"/>
<path fill-rule="evenodd" clip-rule="evenodd" d="M48.1997 38.2539C47.3508 38.229 46.5838 38.1282 45.9123 37.9389C45.9579 37.6637 45.8725 37.3937 45.9411 37.1955C46.1283 37.0608 46.442 37.0629 46.7249 37.0312C46.4802 36.9111 46.1365 36.8635 45.8542 36.933C45.8476 36.742 45.7619 36.6236 45.71 36.4742C46.1873 36.304 47.314 35.1877 47.9479 35.5573C48.2498 35.7331 48.3782 36.7374 48.4016 37.2257C48.4211 37.6307 48.3648 38.0394 48.1997 38.2539Z" stroke="#D33833" stroke-width="2.1875"/>
<path fill-rule="evenodd" clip-rule="evenodd" d="M44.1401 36.866C44.1379 36.9302 44.1352 36.9949 44.1326 37.0597C43.8676 37.2337 43.4397 37.2316 43.1488 37.3779C43.5776 37.3967 43.9152 37.4999 44.2072 37.6454C44.2008 37.8071 44.1946 37.9687 44.1883 38.1304C43.7025 38.4628 43.2586 38.9579 42.6866 39.2697C42.4161 39.4171 41.4669 39.7965 41.1792 39.7294C41.0164 39.6916 41.0017 39.4897 40.9366 39.2994C40.798 38.8917 40.4787 38.2429 40.4509 37.6293C40.4154 36.8543 40.3371 35.5555 41.1727 35.7151C41.8469 35.8437 42.6309 36.154 43.1528 36.4391C43.4718 36.6134 43.6562 36.8288 44.1401 36.866Z" fill="#D33833"/>
<path fill-rule="evenodd" clip-rule="evenodd" d="M44.1401 36.866C44.1379 36.9302 44.1352 36.9949 44.1326 37.0597C43.8676 37.2337 43.4397 37.2316 43.1488 37.3779C43.5776 37.3967 43.9152 37.4999 44.2072 37.6454C44.2008 37.8071 44.1946 37.9687 44.1883 38.1304C43.7025 38.4628 43.2586 38.9579 42.6866 39.2697C42.4161 39.4171 41.4669 39.7965 41.1792 39.7294C41.0164 39.6916 41.0017 39.4897 40.9366 39.2994C40.798 38.8917 40.4787 38.2429 40.4509 37.6293C40.4154 36.8543 40.3371 35.5555 41.1727 35.7151C41.8469 35.8437 42.6309 36.154 43.1528 36.4391C43.4718 36.6134 43.6562 36.8288 44.1401 36.866Z" stroke="#D33833" stroke-width="2.1875"/>
<path fill-rule="evenodd" clip-rule="evenodd" d="M44.6228 37.7916C44.5486 37.3694 44.4629 37.2489 44.4961 36.8806C45.6226 36.13 45.834 38.1701 44.6228 37.7916Z" fill="#D33833"/>
<path fill-rule="evenodd" clip-rule="evenodd" d="M44.6228 37.7916C44.5486 37.3694 44.4629 37.2489 44.4961 36.8806C45.6226 36.13 45.834 38.1701 44.6228 37.7916Z" stroke="#D33833" stroke-width="2.1875"/>
<path fill-rule="evenodd" clip-rule="evenodd" d="M46.2537 38.1328C46.2537 38.1328 45.9034 37.6326 46.1536 37.4826C46.4038 37.3326 46.654 37.4828 46.8041 37.2327C46.9542 36.9826 46.8041 36.8326 46.8541 36.5326C46.9041 36.2325 47.1544 36.1824 47.4045 36.1325C47.6545 36.0825 48.3552 35.9824 48.4551 36.2325L48.1549 35.3324L47.5546 35.1324L45.6533 36.2325L45.5532 36.7826V37.8827" fill="#EF3D3A"/>
<path fill-rule="evenodd" clip-rule="evenodd" d="M41.0009 39.7832C40.9408 39.0028 40.8772 38.2234 40.8064 37.4438C40.7005 36.2796 41.0862 36.4828 42.0958 36.4828C42.25 36.4828 43.0453 36.6665 43.1021 36.7828C43.375 37.3398 42.6459 37.2161 43.4164 37.6361C44.067 37.9906 45.2161 37.4208 44.9533 36.6328C44.8062 36.4576 44.1869 36.5782 43.9649 36.4631C43.574 36.2606 43.1832 36.0581 42.7923 35.8555C42.295 35.5977 41.1457 35.2217 40.6155 35.5821C39.2721 36.4952 40.7003 38.7769 41.1795 39.7295" fill="#EF3D3A"/>
<path fill-rule="evenodd" clip-rule="evenodd" d="M42.317 22.0664C40.9534 21.749 40.2758 22.6368 39.8624 23.5576C39.4934 23.4682 39.6402 22.9665 39.7334 22.7109C39.9775 22.04 40.9612 21.147 41.7649 21.268C42.1107 21.3201 42.5788 21.6362 42.317 22.0664Z" fill="#231F20"/>
<path fill-rule="evenodd" clip-rule="evenodd" d="M48.9615 23.6186C48.9829 23.6195 49.0047 23.6202 49.0262 23.6211C49.3343 24.261 49.601 24.9388 49.9898 25.5036C49.7293 26.1098 48.0178 26.6463 48.0442 25.5577C48.4144 25.396 49.0533 25.5247 49.3814 25.3182C49.1917 24.7977 48.9179 24.3547 48.9615 23.6186Z" fill="#231F20"/>
<path fill-rule="evenodd" clip-rule="evenodd" d="M43.0152 23.6347C43.3076 24.1704 43.4028 24.7333 43.8184 25.1382C44.0055 25.3205 44.3695 25.5427 44.1891 26.0496C44.1469 26.1691 43.8388 26.4357 43.6609 26.4881C43.0112 26.6798 41.4971 26.5277 42.0099 25.718C42.5472 25.7431 43.2695 26.0668 43.6711 25.6769C43.3627 25.1841 42.8128 24.2091 43.0152 23.6347Z" fill="#231F20"/>
<path fill-rule="evenodd" clip-rule="evenodd" d="M48.7174 29.0799C47.7391 29.7081 46.6483 30.3911 45.0453 30.2327C44.7027 29.935 44.5722 29.2727 44.9049 28.8353C45.0781 29.1329 44.9693 29.6803 45.452 29.7627C46.3616 29.9182 47.4202 29.2065 48.0744 28.9578C48.4801 28.2742 48.0395 28.0227 47.674 27.5827C46.9258 26.6813 45.9221 25.5639 45.9586 24.2144C46.261 23.9952 46.2871 24.5489 46.3305 24.6497C46.7212 25.5636 47.7045 26.7324 48.4221 27.5146C48.5983 27.7073 48.8884 27.8921 48.9207 28.0194C49.0137 28.3898 48.6786 28.8336 48.7174 29.0799Z" fill="#231F20"/>
<path fill-rule="evenodd" clip-rule="evenodd" d="M35.8199 28.4187C35.5133 28.2438 35.4403 27.4733 35.0803 27.4514C34.5658 27.4202 34.6597 28.4509 34.6617 29.0537C34.3076 28.7324 34.2453 27.743 34.5055 27.2349C34.209 27.0894 34.0766 27.3954 33.9121 27.5033C34.1235 25.9686 36.1582 26.7914 35.8199 28.4187Z" fill="#231F20"/>
<path fill-rule="evenodd" clip-rule="evenodd" d="M49.3403 29.7191C48.8849 30.5855 48.2407 31.5396 46.9044 31.5674C46.8773 31.2876 46.8564 30.8618 46.9059 30.6934C47.9275 30.5953 48.5582 30.0756 49.3403 29.7191Z" fill="#231F20"/>
<path fill-rule="evenodd" clip-rule="evenodd" d="M42.9385 30.2801C43.7908 30.7281 45.3571 30.7762 46.5156 30.7423C46.5777 30.996 46.5762 31.3094 46.5786 31.6187C45.0895 31.693 43.3289 31.3247 42.9385 30.2801Z" fill="#231F20"/>
<path fill-rule="evenodd" clip-rule="evenodd" d="M42.7765 31.1159C43.3658 32.5949 45.3915 32.4247 47.0997 32.3839C47.0245 32.5759 46.8615 32.8027 46.6589 32.8848C46.1115 33.1074 44.6017 33.2763 43.8418 32.8729C43.3598 32.6168 43.0502 32.0382 42.7861 31.699C42.6586 31.5352 42.0236 31.1168 42.7765 31.1159Z" fill="#231F20"/>
<path fill-rule="evenodd" clip-rule="evenodd" d="M48.6461 39.2744C47.9545 40.4584 47.2927 41.6744 46.4722 42.7188C46.8162 41.7078 46.9634 40.0156 47.0154 38.7257C47.7351 38.389 48.3513 38.8014 48.6461 39.2744Z" fill="#81B0C4"/>
<path fill-rule="evenodd" clip-rule="evenodd" d="M52.3678 43.5295C51.5935 43.6845 51.0494 44.4367 50.2939 44.3884C50.7091 43.8034 51.4366 43.5568 52.3678 43.5295Z" fill="#231F20"/>
<path fill-rule="evenodd" clip-rule="evenodd" d="M52.7094 44.6904C52.0782 44.7825 51.3369 44.9237 50.6968 44.851C50.9998 44.2114 52.1674 44.4321 52.7094 44.6904Z" fill="#231F20"/>
<path fill-rule="evenodd" clip-rule="evenodd" d="M52.9283 45.7822C52.219 45.8055 51.3373 45.7841 50.6631 45.6983C51.0619 45.0489 52.4683 45.4574 52.9283 45.7822Z" fill="#231F20"/>
<path fill-rule="evenodd" clip-rule="evenodd" d="M47.3117 48.6424C47.4135 49.5328 47.7667 50.435 47.7224 51.4101C47.3302 51.5423 47.1049 51.6579 46.5794 51.6572C46.5424 50.8285 46.4314 49.5616 46.4646 48.7716C46.7231 48.7887 47.1042 48.5871 47.3117 48.6424Z" fill="#DCD9D8"/>
<path fill-rule="evenodd" clip-rule="evenodd" d="M46.1679 35.5205C45.8118 35.7529 45.5084 36.043 45.1664 36.2911C44.4078 36.3286 43.9938 36.2386 43.4365 35.8033C43.4457 35.7683 43.5017 35.7839 43.5038 35.741C44.3158 36.1027 45.348 35.5937 46.1679 35.5205Z" fill="#F0D6B7"/>
<path fill-rule="evenodd" clip-rule="evenodd" d="M41.9053 41.0527C42.1284 40.0864 43.0025 39.586 43.7964 39.0539C44.6157 40.0932 45.114 41.4299 45.6628 42.7197C44.3663 42.3291 43.0416 41.6953 41.9053 41.0527Z" fill="#81B0C4"/>
<path fill-rule="evenodd" clip-rule="evenodd" d="M46.4647 48.7719C46.4315 49.5619 46.5425 50.8288 46.5795 51.6575C47.105 51.6582 47.3303 51.5426 47.7225 51.4104C47.7668 50.4353 47.4136 49.5331 47.3118 48.6427C47.1043 48.5873 46.7232 48.789 46.4647 48.7719ZM38.2825 44.279C38.629 47.4628 39.1309 50.1393 40.0514 52.9586C42.0943 53.5786 44.5572 53.6327 46.363 53.0732C46.0314 51.4819 46.1762 49.5447 45.9825 47.8466C45.8364 46.5702 45.9109 45.286 45.7106 43.9839C43.5226 43.5289 40.4298 43.8775 38.2825 44.279ZM46.228 44.0038C46.2096 45.3712 46.2893 46.7201 46.3937 48.0892C46.9191 48.0103 47.2755 47.9577 47.7636 47.8508C47.6051 46.5327 47.6246 45.0496 47.3018 43.8837C46.9287 43.8872 46.6001 43.8793 46.228 44.0038ZM48.8929 43.7834C48.6436 43.7263 48.3533 43.7812 48.1151 43.7858C48.2271 44.9005 48.4988 46.1305 48.5944 47.3005C48.9692 47.3122 49.1694 47.1355 49.4777 47.0761C49.4942 46.049 49.3879 44.634 48.8929 43.7834ZM52.928 47.4683C53.7093 47.2787 54.2005 46.3223 53.982 45.3402C53.8354 44.6801 53.5742 43.4372 53.2947 43.0149C53.0882 42.7025 52.5282 42.2936 52.0811 42.5798C51.3537 43.0454 50.0724 43.1805 49.5419 43.744C49.8079 44.6291 49.8905 45.8449 50.0002 46.9664C50.9088 47.023 52.0269 46.7164 52.7826 47.0417C52.255 47.2125 51.5704 47.2139 51.1146 47.4628C51.4871 47.6427 52.3593 47.6063 52.928 47.4683ZM45.6631 42.7197C45.1143 41.4298 44.616 40.0931 43.7967 39.0538C43.0028 39.5859 42.1286 40.0864 41.9056 41.0526C43.0418 41.6952 44.3666 42.329 45.6631 42.7197ZM47.0157 38.7254C46.9638 40.0154 46.8165 41.7075 46.4725 42.7185C47.2931 41.6742 47.9548 40.4581 48.6465 39.2741C48.3517 38.8012 47.7354 38.3887 47.0157 38.7254ZM45.4824 38.1808C45.1715 38.1474 44.9076 38.538 44.5034 38.3691C44.4108 38.4714 44.3266 38.5823 44.2322 38.6822C45.125 39.7575 45.5307 41.2832 46.2202 42.5469C46.5902 41.333 46.5476 40.0031 46.6291 38.6781C46.1207 38.7104 45.8387 38.2186 45.4824 38.1808ZM44.4964 36.8802C44.4632 37.2485 44.5489 37.3689 44.6231 37.7911C45.8343 38.1696 45.6228 36.1295 44.4964 36.8802ZM43.1532 36.4394C42.6313 36.1544 41.8472 35.844 41.1731 35.7154C40.3375 35.5556 40.4158 36.8547 40.4512 37.6297C40.4791 38.2432 40.7983 38.8921 40.937 39.2997C41.0021 39.49 41.0167 39.692 41.1795 39.7298C41.4673 39.7968 42.4165 39.4174 42.687 39.27C43.259 38.9582 43.7028 38.4632 44.1887 38.1307C44.195 37.969 44.2012 37.8074 44.2076 37.6457C43.9155 37.5002 43.578 37.397 43.1491 37.3782C43.44 37.232 43.8679 37.2341 44.133 37.06C44.1356 36.9952 44.1383 36.9306 44.1405 36.8664C43.6566 36.8291 43.4722 36.6137 43.1532 36.4394ZM38.1681 35.5343C37.7349 35.9739 39.383 36.5731 39.9077 36.6053C39.9048 36.3272 40.0663 36.065 40.0338 35.8654C39.4105 35.7561 38.5915 35.8282 38.1681 35.5343ZM43.5041 35.7408C43.502 35.7837 43.446 35.7681 43.4369 35.803C43.9942 36.2384 44.4081 36.3284 45.1667 36.2909C45.5088 36.0427 45.8121 35.7526 46.1683 35.5202C45.3483 35.5934 44.3161 36.1025 43.5041 35.7408ZM48.402 37.2252C48.3786 36.7369 48.2502 35.7327 47.9482 35.5568C47.3144 35.187 46.1876 36.3035 45.7103 36.4738C45.7623 36.6232 45.848 36.7415 45.8546 36.9325C46.1369 36.8631 46.4806 36.9106 46.7253 37.0308C46.4424 37.0624 46.1287 37.0603 45.9415 37.195C45.8729 37.3932 45.9583 37.6633 45.9127 37.9384C46.5842 38.1277 47.3512 38.2285 48.2001 38.2534C48.3652 38.0389 48.4215 37.6303 48.402 37.2252ZM37.4388 35.9595C37.3028 35.8626 36.3826 34.6659 36.2565 34.7155C34.5914 35.3719 33.0345 36.5068 31.6432 37.5801C32.9697 40.4251 33.5052 43.9107 33.5998 47.2702C35.1194 47.9805 36.4541 49.0046 38.5161 49.1115C38.2775 47.4241 38.0597 45.9186 37.9243 44.33C37.4062 44.1117 36.6628 44.3399 36.178 44.2623C36.1739 43.6783 36.9185 44.0065 36.9805 43.6138C37.0272 43.3167 36.5708 43.2942 36.7194 42.8265C37.0985 42.9642 37.2975 43.2684 37.7018 43.3826C38.0711 42.5749 37.6966 41.1458 37.7498 40.4707C37.7599 40.344 37.8132 39.7685 38.0972 39.8695C38.3486 39.9588 38.0829 41.3999 38.1104 42.0389C38.1355 42.6275 38.0393 43.1971 38.2778 43.5667C40.2704 43.2956 42.2951 43.1204 44.4511 43.0612C43.9768 42.8578 43.4133 42.6653 42.7956 42.3173C42.4607 42.1286 41.405 41.736 41.3084 41.4181C41.1542 40.9115 41.713 40.6416 41.8085 40.2073C40.8027 40.7556 40.6065 39.6818 40.3686 38.921C40.153 38.232 40.0303 37.7173 39.9774 37.3199C39.1109 36.907 38.1846 36.4889 37.4388 35.9595ZM47.522 34.8603C48.9093 34.1879 49.1593 37.3733 48.6156 38.3994C48.6996 38.7054 48.9887 38.8226 49.1067 39.0977C48.3325 40.4839 47.4726 41.7778 46.6827 43.1477C47.2703 42.7821 48.1096 43.0823 48.8011 42.8086C49.0538 42.7087 49.2368 42.1304 49.4282 41.6677C49.9545 40.3948 50.5072 38.79 50.753 37.5753C50.8086 37.2986 50.9599 36.6955 50.9259 36.4492C50.8655 36.0081 50.2667 35.6811 49.9622 35.4083C49.4011 34.9046 49.0478 34.4612 48.4626 33.9902C48.2253 34.3403 47.716 34.5756 47.522 34.8603ZM34.266 22.5635C33.605 23.2905 33.7433 24.6527 33.8234 25.6218C35.0183 24.8705 36.6042 25.6812 36.5893 26.9591C37.1597 26.9439 36.8024 26.2469 36.6992 25.7979C36.362 24.3314 37.2673 22.738 36.7402 21.3968C35.7168 21.4744 34.8761 21.8922 34.266 22.5635ZM38.996 18.3441C37.4995 18.768 35.5815 19.8549 34.9665 21.1987C35.4427 21.1295 35.7733 20.8895 36.243 20.8598C36.4206 20.8482 36.6532 20.9342 36.8572 20.8835C37.2638 20.7826 37.607 19.8714 37.9137 19.5324C38.2127 19.2013 38.5721 19.0598 38.8181 18.758C38.9761 18.6818 39.2097 18.687 39.2187 18.4498C39.1502 18.3766 39.0781 18.3208 38.996 18.3441ZM46.7864 18.7428C45.233 17.8669 42.6038 17.208 40.9515 18.0313C39.6183 18.6957 37.8161 19.7951 37.2016 21.1881C37.7756 22.5325 37.0316 23.7643 36.9841 25.1292C36.9589 25.8554 37.3262 26.4894 37.3544 27.28C37.158 27.6039 36.5579 27.6438 36.1425 27.6216C36.0027 26.9222 35.7579 26.1361 35.0373 26.0572C34.0177 25.9457 33.2722 26.7891 33.2259 27.6705C33.1711 28.707 34.0224 30.4248 35.229 30.3056C35.6951 30.2595 35.8097 29.7925 36.3175 29.7973C36.5928 30.3462 35.8929 30.5186 35.8209 30.9112C35.8021 31.0126 35.879 31.409 35.9236 31.5948C36.1428 32.4999 36.6314 33.6712 37.1122 34.3603C37.7226 35.2343 38.9217 35.366 40.2117 35.4517C40.4421 34.9556 41.2909 34.9964 41.844 35.1261C41.1812 34.8637 40.565 34.2277 40.0543 33.6646C39.4677 33.0187 38.8735 32.3257 38.8435 31.4814C39.952 33.0185 40.8678 34.3609 42.8835 35.037C44.4087 35.5483 46.19 34.8027 47.362 33.9801C47.8483 33.6382 48.1386 33.0958 48.4842 32.5992C49.7776 30.7397 50.3811 28.0856 50.2484 25.5131C50.1938 24.4521 50.1962 23.3948 49.84 22.681C49.4678 21.9346 48.2088 21.2669 47.4718 21.942C47.3353 21.2162 48.0847 20.7673 48.965 21.0285C48.3373 20.2189 47.6785 19.246 46.7864 18.7428ZM49.6803 42.681C50.8941 42.0779 53.162 41.0576 53.923 42.6832C54.2038 43.2824 54.5333 44.2953 54.6787 44.9139C54.8842 45.7865 54.456 47.6207 53.5586 47.9135C52.7659 48.1721 51.8411 48.1563 50.8863 47.9646C50.7739 47.8712 50.6487 47.7083 50.5612 47.5384C49.8795 47.512 49.2411 47.575 48.7026 47.8551C48.7536 48.359 48.4126 48.4399 48.0929 48.5437C47.8559 49.4829 48.5671 50.7095 48.3969 51.566C48.2754 52.1761 47.5244 52.2705 46.9723 52.3846C46.9543 52.7237 46.9965 53.0067 47.0342 53.2936C46.9079 53.7585 46.3418 54.0231 45.8054 54.0879C44.0404 54.3001 41.3606 54.3954 39.6629 53.7852C39.1892 52.6238 38.816 51.2112 38.4214 49.885C36.7657 50.0617 35.4266 49.1709 34.1642 48.5873C33.7271 48.3848 33.1225 48.2732 32.9592 47.9255C32.8009 47.5888 32.8656 46.9436 32.8264 46.3341C32.7264 44.7773 32.6408 43.2758 32.2295 41.6818C32.0448 40.9665 31.7229 40.3354 31.4984 39.6462C31.2908 39.0074 30.9282 38.218 30.8336 37.581C30.6934 36.637 31.5828 36.5845 32.1515 36.1754C33.0307 35.5427 33.7208 35.1929 34.6729 34.6219C34.9549 34.4528 35.8054 34.0248 35.9021 33.8277C36.0944 33.4369 35.572 32.8859 35.4324 32.5796C35.2114 32.0951 35.0962 31.6836 35.0646 31.2057C34.2658 31.0795 33.6604 30.6044 33.2946 30.0687C32.6896 29.1821 32.2701 27.5418 32.7935 26.2941C32.8346 26.1958 33.0393 26.0026 33.0695 25.8516C33.1291 25.5545 32.9574 25.1593 32.9467 24.8432C32.8917 23.2215 33.2212 21.8242 34.3135 21.3352C34.7569 19.5696 36.344 18.9826 37.8392 18.1051C38.3982 17.7772 39.0143 17.5676 39.6506 17.3336C41.9333 16.4939 45.4355 16.652 47.33 18.0841C48.1333 18.6914 49.4174 19.9736 49.8766 20.9019C51.0897 23.3528 51.0035 27.4487 50.1551 30.4301C50.041 30.8303 49.8756 31.4187 49.6446 31.8995C49.4835 32.2353 48.983 32.907 49.0438 33.2035C49.1064 33.51 50.1851 34.3286 50.4164 34.5516C50.8329 34.9532 51.6242 35.4862 51.6883 35.9929C51.7572 36.5323 51.4505 37.2701 51.2952 37.7905C50.7759 39.5272 50.2691 41.1326 49.6803 42.681Z" fill="#231F20"/>
<path fill-rule="evenodd" clip-rule="evenodd" d="M41.5823 30.6586C41.6482 30.571 42.0102 30.4379 42.5168 30.6817C42.5168 30.6817 41.9164 30.7817 41.9664 31.7822L41.7162 31.7321C41.7162 31.7321 41.4576 30.825 41.5823 30.6586Z" fill="#F7E4CD"/>
<path fill-rule="evenodd" clip-rule="evenodd" d="M45.9689 39.2582C45.9689 39.4101 45.8456 39.5332 45.6936 39.5332C45.5417 39.5332 45.4185 39.4101 45.4185 39.2582C45.4185 39.1064 45.5417 38.9831 45.6936 38.9831C45.8456 38.9831 45.9689 39.1064 45.9689 39.2582Z" fill="#1D1919"/>
<path fill-rule="evenodd" clip-rule="evenodd" d="M46.2438 40.5327C46.2438 40.6845 46.1205 40.8076 45.9685 40.8076C45.8166 40.8076 45.6934 40.6845 45.6934 40.5327C45.6934 40.3808 45.8166 40.2575 45.9685 40.2575C46.1205 40.2575 46.2438 40.3808 46.2438 40.5327Z" fill="#1D1919"/>
<path d="M78.8887 29.398C78.6633 29.4262 78.4717 29.4544 78.314 29.4825C78.1562 29.5107 77.9787 29.5502 77.7815 29.6009C77.5505 29.6629 77.4025 29.7727 77.3377 29.9305C77.273 30.0883 77.2406 30.2686 77.2406 30.4714V37.081C77.2406 37.6895 77.118 38.2474 76.8729 38.7545C76.6278 39.2616 76.2911 39.687 75.8629 40.0308C75.429 40.3689 74.9444 40.6238 74.4091 40.7957C73.8738 40.9675 73.3019 41.0535 72.6933 41.0535C71.6396 41.0535 70.7902 40.7999 70.145 40.2928C69.4998 39.7857 69.1772 39.0898 69.1772 38.2051C69.1772 37.6811 69.3252 37.2472 69.621 36.9035C69.9168 36.5598 70.3239 36.3879 70.8423 36.3879C71.3325 36.3879 71.7227 36.5316 72.0129 36.819C72.3031 37.1063 72.4482 37.4613 72.4482 37.8839C72.4482 38.2446 72.3228 38.5784 72.0721 38.8855C71.8213 39.1926 71.5354 39.4757 71.2142 39.7349V39.8448C71.2649 39.9575 71.3748 40.0533 71.5438 40.1322C71.7129 40.2111 71.8847 40.2505 72.0594 40.2505C72.7356 40.2505 73.2667 40.0082 73.6526 39.5236C74.0386 39.0391 74.2316 38.3065 74.2316 37.3261V30.556C74.2316 30.3531 74.2006 30.1841 74.1386 30.0488C74.0766 29.9136 73.9273 29.7953 73.6907 29.6938C73.5216 29.6206 73.3174 29.5586 73.0779 29.5079C72.8384 29.4572 72.6398 29.4206 72.482 29.398V28.7388H78.8887V29.398ZM88.9129 38.7122C88.7157 39.0334 88.4776 39.3363 88.1987 39.6208C87.9198 39.9054 87.6028 40.1491 87.2478 40.3519C86.8703 40.5661 86.4886 40.7281 86.1026 40.8379C85.7166 40.9478 85.2729 41.0028 84.7714 41.0028C83.9374 41.0028 83.2176 40.8844 82.6119 40.6478C82.0061 40.4111 81.506 40.0928 81.1116 39.6927C80.7172 39.2926 80.4228 38.8207 80.2284 38.277C80.034 37.7332 79.9368 37.143 79.9368 36.5062C79.9368 35.9315 80.0424 35.3807 80.2537 34.8539C80.465 34.327 80.7651 33.8579 81.1539 33.4466C81.537 33.0465 82.0202 32.7225 82.6034 32.4746C83.1866 32.2267 83.8388 32.1027 84.5601 32.1027C85.3489 32.1027 85.9969 32.1985 86.5041 32.3901C87.0112 32.5816 87.431 32.8465 87.7634 33.1846C88.0846 33.5057 88.3184 33.8847 88.4649 34.3214C88.6114 34.7581 88.6847 35.2159 88.6847 35.6948V36.2442H82.9711C82.9711 37.3994 83.1936 38.2784 83.6388 38.8813C84.0839 39.4842 84.7911 39.7857 85.7603 39.7857C86.2899 39.7857 86.7661 39.6406 87.1887 39.3504C87.6113 39.0602 87.9719 38.6925 88.2705 38.2474L88.9129 38.7122ZM85.6842 35.5004C85.6842 35.1624 85.6673 34.8158 85.6335 34.4608C85.5997 34.1058 85.5405 33.8157 85.456 33.5903C85.3602 33.3254 85.2292 33.1254 85.063 32.9902C84.8967 32.8549 84.6869 32.7873 84.4333 32.7873C83.9994 32.7873 83.6529 33.0071 83.3937 33.4466C83.1345 33.8861 82.9936 34.582 82.9711 35.5342L85.6842 35.5004ZM100.881 40.7323H95.7929V40.1153C95.9 40.104 96.0296 40.0899 96.1817 40.073C96.3338 40.0561 96.4494 40.0279 96.5282 39.9885C96.6466 39.9265 96.7311 39.8364 96.7818 39.718C96.8325 39.5997 96.8579 39.425 96.8579 39.194V35.2384C96.8579 34.6637 96.7522 34.2312 96.5409 33.941C96.3296 33.6508 96.0183 33.5057 95.607 33.5057C95.3816 33.5057 95.1717 33.5396 94.9773 33.6072C94.7829 33.6748 94.5927 33.7734 94.4068 33.903C94.2434 34.0157 94.1124 34.1312 94.0137 34.2495C93.9151 34.3679 93.832 34.4721 93.7644 34.5623V39.101C93.7644 39.2983 93.7926 39.4631 93.8489 39.5955C93.9053 39.7279 93.9983 39.8279 94.1278 39.8955C94.218 39.9462 94.3307 39.9913 94.4659 40.0308C94.6012 40.0702 94.7336 40.0984 94.8632 40.1153V40.7323H89.7243V40.1153C89.8652 40.104 90.0075 40.0885 90.1511 40.0688C90.2948 40.0491 90.4174 40.0223 90.5188 39.9885C90.6991 39.9265 90.8231 39.8307 90.8907 39.7011C90.9583 39.5715 90.9921 39.4025 90.9921 39.194V34.2749C90.9921 34.1002 90.947 33.9283 90.8569 33.7593C90.7667 33.5903 90.6484 33.4522 90.5019 33.3452C90.4005 33.2775 90.2723 33.2212 90.1173 33.1761C89.9624 33.131 89.7919 33.1 89.606 33.0831V32.4661L93.6376 32.2464L93.7644 32.3732V33.5987H93.7982C93.956 33.4578 94.1476 33.2888 94.373 33.0916C94.5984 32.8944 94.8068 32.7338 94.9984 32.6098C95.2069 32.4746 95.4802 32.3591 95.8183 32.2633C96.1564 32.1675 96.517 32.1196 96.9001 32.1196C97.8186 32.1196 98.5074 32.3802 98.9667 32.9014C99.4259 33.4226 99.6555 34.1143 99.6555 34.9764V39.1179C99.6555 39.3264 99.6865 39.4926 99.7485 39.6166C99.8105 39.7406 99.926 39.8392 100.095 39.9124C100.185 39.9519 100.296 39.9913 100.429 40.0308C100.561 40.0702 100.712 40.0984 100.881 40.1153V40.7323ZM112.511 40.7323H108.53C108.04 39.8702 107.592 39.1391 107.186 38.539C106.781 37.9389 106.397 37.3824 106.037 36.8697L105.53 37.3007V39.1433C105.53 39.3461 105.559 39.5124 105.618 39.642C105.678 39.7716 105.792 39.8674 105.961 39.9293C106.062 39.9744 106.181 40.0139 106.316 40.0477C106.451 40.0815 106.586 40.104 106.721 40.1153V40.7323H101.49V40.1153C101.631 40.104 101.771 40.0885 101.912 40.0688C102.053 40.0491 102.177 40.0223 102.284 39.9885C102.464 39.9265 102.587 39.8307 102.652 39.7011C102.717 39.5715 102.749 39.4025 102.749 39.194V29.7699C102.749 29.584 102.708 29.391 102.626 29.1909C102.545 28.9909 102.425 28.8402 102.267 28.7388C102.16 28.6711 102 28.6148 101.785 28.5697C101.571 28.5246 101.377 28.4965 101.202 28.4852V27.8682L105.403 27.6484L105.53 27.7837V36.5062C105.947 36.1343 106.416 35.7033 106.937 35.2131C107.458 34.7228 107.877 34.3171 108.192 33.996C108.378 33.8044 108.481 33.6593 108.501 33.5607C108.52 33.4621 108.53 33.4015 108.53 33.379C108.53 33.2775 108.441 33.193 108.264 33.1254C108.086 33.0578 107.82 32.9986 107.465 32.9479V32.3478H111.759V32.931C111.195 33.0888 110.766 33.2367 110.47 33.3747C110.174 33.5128 109.852 33.6973 109.502 33.9283C109.271 34.0805 109.047 34.2397 108.83 34.4059C108.613 34.5721 108.364 34.7792 108.082 35.0271C108.634 35.8273 109.144 36.5682 109.612 37.25C110.08 37.9318 110.57 38.6531 111.083 39.4138C111.257 39.6786 111.474 39.8561 111.734 39.9462C111.993 40.0364 112.252 40.0927 112.511 40.1153V40.7323ZM117.946 40.7323H112.604V40.1153C112.751 40.104 112.894 40.0899 113.035 40.073C113.176 40.0561 113.297 40.0279 113.399 39.9885C113.579 39.9209 113.706 39.8237 113.779 39.6969C113.852 39.5701 113.889 39.4025 113.889 39.194V34.2749C113.889 34.0777 113.844 33.9044 113.754 33.7551C113.663 33.6058 113.551 33.486 113.416 33.3959C113.314 33.3282 113.161 33.2635 112.955 33.2015C112.749 33.1395 112.562 33.1 112.393 33.0831V32.4661L116.534 32.2464L116.661 32.3732V39.0841C116.661 39.2813 116.703 39.449 116.788 39.587C116.872 39.7251 116.994 39.8279 117.151 39.8955C117.264 39.9462 117.388 39.9913 117.523 40.0308C117.659 40.0702 117.799 40.0984 117.946 40.1153V40.7323ZM116.712 29.2036C116.712 29.6319 116.547 29.9967 116.217 30.2982C115.888 30.5996 115.498 30.7504 115.047 30.7504C114.59 30.7504 114.197 30.5996 113.868 30.2982C113.538 29.9967 113.373 29.6319 113.373 29.2036C113.373 28.7754 113.538 28.4091 113.868 28.1049C114.197 27.8006 114.59 27.6484 115.047 27.6484C115.503 27.6484 115.895 27.8006 116.222 28.1049C116.548 28.4091 116.712 28.7754 116.712 29.2036ZM129.88 40.7323H124.792V40.1153C124.899 40.104 125.029 40.0899 125.181 40.073C125.333 40.0561 125.449 40.0279 125.527 39.9885C125.646 39.9265 125.73 39.8364 125.781 39.718C125.832 39.5997 125.857 39.425 125.857 39.194V35.2384C125.857 34.6637 125.751 34.2312 125.54 33.941C125.329 33.6508 125.017 33.5057 124.606 33.5057C124.381 33.5057 124.171 33.5396 123.976 33.6072C123.782 33.6748 123.592 33.7734 123.406 33.903C123.243 34.0157 123.112 34.1312 123.013 34.2495C122.914 34.3679 122.831 34.4721 122.764 34.5623V39.101C122.764 39.2983 122.792 39.4631 122.848 39.5955C122.904 39.7279 122.997 39.8279 123.127 39.8955C123.217 39.9462 123.33 39.9913 123.465 40.0308C123.6 40.0702 123.733 40.0984 123.862 40.1153V40.7323H118.723V40.1153C118.864 40.104 119.007 40.0885 119.15 40.0688C119.294 40.0491 119.417 40.0223 119.518 39.9885C119.698 39.9265 119.822 39.8307 119.89 39.7011C119.957 39.5715 119.991 39.4025 119.991 39.194V34.2749C119.991 34.1002 119.946 33.9283 119.856 33.7593C119.766 33.5903 119.648 33.4522 119.501 33.3452C119.4 33.2775 119.271 33.2212 119.116 33.1761C118.962 33.131 118.791 33.1 118.605 33.0831V32.4661L122.637 32.2464L122.764 32.3732V33.5987H122.797C122.955 33.4578 123.147 33.2888 123.372 33.0916C123.598 32.8944 123.806 32.7338 123.998 32.6098C124.206 32.4746 124.479 32.3591 124.817 32.2633C125.156 32.1675 125.516 32.1196 125.899 32.1196C126.818 32.1196 127.507 32.3802 127.966 32.9014C128.425 33.4226 128.655 34.1143 128.655 34.9764V39.1179C128.655 39.3264 128.686 39.4926 128.748 39.6166C128.81 39.7406 128.925 39.8392 129.094 39.9124C129.184 39.9519 129.296 39.9913 129.428 40.0308C129.56 40.0702 129.711 40.0984 129.88 40.1153V40.7323ZM134.58 41.0197C134.033 41.0197 133.499 40.9394 132.978 40.7788C132.457 40.6182 132.052 40.4477 131.765 40.2674L131.511 40.8422H130.852L130.742 37.6895H131.359C131.444 37.9431 131.585 38.2291 131.782 38.5474C131.979 38.8658 132.205 39.1517 132.458 39.4053C132.723 39.6589 133.026 39.873 133.367 40.0477C133.708 40.2223 134.072 40.3097 134.461 40.3097C134.974 40.3097 135.356 40.2097 135.607 40.0096C135.857 39.8096 135.983 39.5011 135.983 39.0841C135.983 38.8587 135.926 38.6728 135.814 38.5263C135.701 38.3798 135.546 38.253 135.349 38.1459C135.129 38.0333 134.888 37.9375 134.626 37.8586C134.364 37.7797 134.041 37.6839 133.658 37.5712C133.275 37.4585 132.947 37.3444 132.674 37.2289C132.4 37.1134 132.117 36.9317 131.824 36.6837C131.571 36.464 131.368 36.1991 131.216 35.8892C131.064 35.5793 130.987 35.2103 130.987 34.782C130.987 33.9875 131.321 33.3452 131.989 32.8549C132.657 32.3647 133.532 32.1196 134.613 32.1196C135.126 32.1196 135.598 32.1717 136.029 32.276C136.46 32.3802 136.822 32.4943 137.115 32.6183L137.293 32.1196H137.935L138.07 35.0018H137.47C137.273 34.4158 136.935 33.91 136.456 33.4846C135.977 33.0592 135.461 32.8465 134.909 32.8465C134.475 32.8465 134.134 32.9366 133.887 33.1169C133.639 33.2973 133.515 33.548 133.515 33.8692C133.515 34.2974 133.696 34.6073 134.06 34.7989C134.423 34.9905 134.932 35.1708 135.585 35.3399C136.594 35.599 137.332 35.9526 137.8 36.4006C138.268 36.8486 138.501 37.4191 138.501 38.1121C138.501 39.0362 138.139 39.7518 137.415 40.259C136.691 40.7661 135.746 41.0197 134.58 41.0197Z" fill="black"/>
<path d="M78.8887 29.398C78.6633 29.4262 78.4717 29.4544 78.314 29.4825C78.1562 29.5107 77.9787 29.5502 77.7815 29.6009C77.5505 29.6629 77.4025 29.7727 77.3377 29.9305C77.273 30.0883 77.2406 30.2686 77.2406 30.4714V37.081C77.2406 37.6895 77.118 38.2474 76.8729 38.7545C76.6278 39.2616 76.2911 39.687 75.8629 40.0308C75.429 40.3689 74.9444 40.6238 74.4091 40.7957C73.8738 40.9675 73.3019 41.0535 72.6933 41.0535C71.6396 41.0535 70.7902 40.7999 70.145 40.2928C69.4998 39.7857 69.1772 39.0898 69.1772 38.2051C69.1772 37.6811 69.3252 37.2472 69.621 36.9035C69.9168 36.5598 70.3239 36.3879 70.8423 36.3879C71.3325 36.3879 71.7227 36.5316 72.0129 36.819C72.3031 37.1063 72.4482 37.4613 72.4482 37.8839C72.4482 38.2446 72.3228 38.5784 72.0721 38.8855C71.8213 39.1926 71.5354 39.4757 71.2142 39.7349V39.8448C71.2649 39.9575 71.3748 40.0533 71.5438 40.1322C71.7129 40.2111 71.8847 40.2505 72.0594 40.2505C72.7356 40.2505 73.2667 40.0082 73.6526 39.5236C74.0386 39.0391 74.2316 38.3065 74.2316 37.3261V30.556C74.2316 30.3531 74.2006 30.1841 74.1386 30.0488C74.0766 29.9136 73.9273 29.7953 73.6907 29.6938C73.5216 29.6206 73.3174 29.5586 73.0779 29.5079C72.8384 29.4572 72.6398 29.4206 72.482 29.398V28.7388H78.8887V29.398ZM88.9129 38.7122C88.7157 39.0334 88.4776 39.3363 88.1987 39.6208C87.9198 39.9054 87.6028 40.1491 87.2478 40.3519C86.8703 40.5661 86.4886 40.7281 86.1026 40.8379C85.7166 40.9478 85.2729 41.0028 84.7714 41.0028C83.9374 41.0028 83.2176 40.8844 82.6119 40.6478C82.0061 40.4111 81.506 40.0928 81.1116 39.6927C80.7172 39.2926 80.4228 38.8207 80.2284 38.277C80.034 37.7332 79.9368 37.143 79.9368 36.5062C79.9368 35.9315 80.0424 35.3807 80.2537 34.8539C80.465 34.327 80.7651 33.8579 81.1539 33.4466C81.537 33.0465 82.0202 32.7225 82.6034 32.4746C83.1866 32.2267 83.8388 32.1027 84.5601 32.1027C85.3489 32.1027 85.9969 32.1985 86.5041 32.3901C87.0112 32.5816 87.431 32.8465 87.7634 33.1846C88.0846 33.5057 88.3184 33.8847 88.4649 34.3214C88.6114 34.7581 88.6847 35.2159 88.6847 35.6948V36.2442H82.9711C82.9711 37.3994 83.1936 38.2784 83.6388 38.8813C84.0839 39.4842 84.7911 39.7857 85.7603 39.7857C86.2899 39.7857 86.7661 39.6406 87.1887 39.3504C87.6113 39.0602 87.9719 38.6925 88.2705 38.2474L88.9129 38.7122ZM85.6842 35.5004C85.6842 35.1624 85.6673 34.8158 85.6335 34.4608C85.5997 34.1058 85.5405 33.8157 85.456 33.5903C85.3602 33.3254 85.2292 33.1254 85.063 32.9902C84.8967 32.8549 84.6869 32.7873 84.4333 32.7873C83.9994 32.7873 83.6529 33.0071 83.3937 33.4466C83.1345 33.8861 82.9936 34.582 82.9711 35.5342L85.6842 35.5004ZM100.881 40.7323H95.7929V40.1153C95.9 40.104 96.0296 40.0899 96.1817 40.073C96.3338 40.0561 96.4494 40.0279 96.5282 39.9885C96.6466 39.9265 96.7311 39.8364 96.7818 39.718C96.8325 39.5997 96.8579 39.425 96.8579 39.194V35.2384C96.8579 34.6637 96.7522 34.2312 96.5409 33.941C96.3296 33.6508 96.0183 33.5057 95.607 33.5057C95.3816 33.5057 95.1717 33.5396 94.9773 33.6072C94.7829 33.6748 94.5927 33.7734 94.4068 33.903C94.2434 34.0157 94.1124 34.1312 94.0137 34.2495C93.9151 34.3679 93.832 34.4721 93.7644 34.5623V39.101C93.7644 39.2983 93.7926 39.4631 93.8489 39.5955C93.9053 39.7279 93.9983 39.8279 94.1278 39.8955C94.218 39.9462 94.3307 39.9913 94.4659 40.0308C94.6012 40.0702 94.7336 40.0984 94.8632 40.1153V40.7323H89.7243V40.1153C89.8652 40.104 90.0075 40.0885 90.1511 40.0688C90.2948 40.0491 90.4174 40.0223 90.5188 39.9885C90.6991 39.9265 90.8231 39.8307 90.8907 39.7011C90.9583 39.5715 90.9921 39.4025 90.9921 39.194V34.2749C90.9921 34.1002 90.947 33.9283 90.8569 33.7593C90.7667 33.5903 90.6484 33.4522 90.5019 33.3452C90.4005 33.2775 90.2723 33.2212 90.1173 33.1761C89.9624 33.131 89.7919 33.1 89.606 33.0831V32.4661L93.6376 32.2464L93.7644 32.3732V33.5987H93.7982C93.956 33.4578 94.1476 33.2888 94.373 33.0916C94.5984 32.8944 94.8068 32.7338 94.9984 32.6098C95.2069 32.4746 95.4802 32.3591 95.8183 32.2633C96.1564 32.1675 96.517 32.1196 96.9001 32.1196C97.8186 32.1196 98.5074 32.3802 98.9667 32.9014C99.4259 33.4226 99.6555 34.1143 99.6555 34.9764V39.1179C99.6555 39.3264 99.6865 39.4926 99.7485 39.6166C99.8105 39.7406 99.926 39.8392 100.095 39.9124C100.185 39.9519 100.296 39.9913 100.429 40.0308C100.561 40.0702 100.712 40.0984 100.881 40.1153V40.7323ZM112.511 40.7323H108.53C108.04 39.8702 107.592 39.1391 107.186 38.539C106.781 37.9389 106.397 37.3824 106.037 36.8697L105.53 37.3007V39.1433C105.53 39.3461 105.559 39.5124 105.618 39.642C105.678 39.7716 105.792 39.8674 105.961 39.9293C106.062 39.9744 106.181 40.0139 106.316 40.0477C106.451 40.0815 106.586 40.104 106.721 40.1153V40.7323H101.49V40.1153C101.631 40.104 101.771 40.0885 101.912 40.0688C102.053 40.0491 102.177 40.0223 102.284 39.9885C102.464 39.9265 102.587 39.8307 102.652 39.7011C102.717 39.5715 102.749 39.4025 102.749 39.194V29.7699C102.749 29.584 102.708 29.391 102.626 29.1909C102.545 28.9909 102.425 28.8402 102.267 28.7388C102.16 28.6711 102 28.6148 101.785 28.5697C101.571 28.5246 101.377 28.4965 101.202 28.4852V27.8682L105.403 27.6484L105.53 27.7837V36.5062C105.947 36.1343 106.416 35.7033 106.937 35.2131C107.458 34.7228 107.877 34.3171 108.192 33.996C108.378 33.8044 108.481 33.6593 108.501 33.5607C108.52 33.4621 108.53 33.4015 108.53 33.379C108.53 33.2775 108.441 33.193 108.264 33.1254C108.086 33.0578 107.82 32.9986 107.465 32.9479V32.3478H111.759V32.931C111.195 33.0888 110.766 33.2367 110.47 33.3747C110.174 33.5128 109.852 33.6973 109.502 33.9283C109.271 34.0805 109.047 34.2397 108.83 34.4059C108.613 34.5721 108.364 34.7792 108.082 35.0271C108.634 35.8273 109.144 36.5682 109.612 37.25C110.08 37.9318 110.57 38.6531 111.083 39.4138C111.257 39.6786 111.474 39.8561 111.734 39.9462C111.993 40.0364 112.252 40.0927 112.511 40.1153V40.7323ZM117.946 40.7323H112.604V40.1153C112.751 40.104 112.894 40.0899 113.035 40.073C113.176 40.0561 113.297 40.0279 113.399 39.9885C113.579 39.9209 113.706 39.8237 113.779 39.6969C113.852 39.5701 113.889 39.4025 113.889 39.194V34.2749C113.889 34.0777 113.844 33.9044 113.754 33.7551C113.663 33.6058 113.551 33.486 113.416 33.3959C113.314 33.3282 113.161 33.2635 112.955 33.2015C112.749 33.1395 112.562 33.1 112.393 33.0831V32.4661L116.534 32.2464L116.661 32.3732V39.0841C116.661 39.2813 116.703 39.449 116.788 39.587C116.872 39.7251 116.994 39.8279 117.151 39.8955C117.264 39.9462 117.388 39.9913 117.523 40.0308C117.659 40.0702 117.799 40.0984 117.946 40.1153V40.7323ZM116.712 29.2036C116.712 29.6319 116.547 29.9967 116.217 30.2982C115.888 30.5996 115.498 30.7504 115.047 30.7504C114.59 30.7504 114.197 30.5996 113.868 30.2982C113.538 29.9967 113.373 29.6319 113.373 29.2036C113.373 28.7754 113.538 28.4091 113.868 28.1049C114.197 27.8006 114.59 27.6484 115.047 27.6484C115.503 27.6484 115.895 27.8006 116.222 28.1049C116.548 28.4091 116.712 28.7754 116.712 29.2036ZM129.88 40.7323H124.792V40.1153C124.899 40.104 125.029 40.0899 125.181 40.073C125.333 40.0561 125.449 40.0279 125.527 39.9885C125.646 39.9265 125.73 39.8364 125.781 39.718C125.832 39.5997 125.857 39.425 125.857 39.194V35.2384C125.857 34.6637 125.751 34.2312 125.54 33.941C125.329 33.6508 125.017 33.5057 124.606 33.5057C124.381 33.5057 124.171 33.5396 123.976 33.6072C123.782 33.6748 123.592 33.7734 123.406 33.903C123.243 34.0157 123.112 34.1312 123.013 34.2495C122.914 34.3679 122.831 34.4721 122.764 34.5623V39.101C122.764 39.2983 122.792 39.4631 122.848 39.5955C122.904 39.7279 122.997 39.8279 123.127 39.8955C123.217 39.9462 123.33 39.9913 123.465 40.0308C123.6 40.0702 123.733 40.0984 123.862 40.1153V40.7323H118.723V40.1153C118.864 40.104 119.007 40.0885 119.15 40.0688C119.294 40.0491 119.417 40.0223 119.518 39.9885C119.698 39.9265 119.822 39.8307 119.89 39.7011C119.957 39.5715 119.991 39.4025 119.991 39.194V34.2749C119.991 34.1002 119.946 33.9283 119.856 33.7593C119.766 33.5903 119.648 33.4522 119.501 33.3452C119.4 33.2775 119.271 33.2212 119.116 33.1761C118.962 33.131 118.791 33.1 118.605 33.0831V32.4661L122.637 32.2464L122.764 32.3732V33.5987H122.797C122.955 33.4578 123.147 33.2888 123.372 33.0916C123.598 32.8944 123.806 32.7338 123.998 32.6098C124.206 32.4746 124.479 32.3591 124.817 32.2633C125.156 32.1675 125.516 32.1196 125.899 32.1196C126.818 32.1196 127.507 32.3802 127.966 32.9014C128.425 33.4226 128.655 34.1143 128.655 34.9764V39.1179C128.655 39.3264 128.686 39.4926 128.748 39.6166C128.81 39.7406 128.925 39.8392 129.094 39.9124C129.184 39.9519 129.296 39.9913 129.428 40.0308C129.56 40.0702 129.711 40.0984 129.88 40.1153V40.7323ZM134.58 41.0197C134.033 41.0197 133.499 40.9394 132.978 40.7788C132.457 40.6182 132.052 40.4477 131.765 40.2674L131.511 40.8422H130.852L130.742 37.6895H131.359C131.444 37.9431 131.585 38.2291 131.782 38.5474C131.979 38.8658 132.205 39.1517 132.458 39.4053C132.723 39.6589 133.026 39.873 133.367 40.0477C133.708 40.2223 134.072 40.3097 134.461 40.3097C134.974 40.3097 135.356 40.2097 135.607 40.0096C135.857 39.8096 135.983 39.5011 135.983 39.0841C135.983 38.8587 135.926 38.6728 135.814 38.5263C135.701 38.3798 135.546 38.253 135.349 38.1459C135.129 38.0333 134.888 37.9375 134.626 37.8586C134.364 37.7797 134.041 37.6839 133.658 37.5712C133.275 37.4585 132.947 37.3444 132.674 37.2289C132.4 37.1134 132.117 36.9317 131.824 36.6837C131.571 36.464 131.368 36.1991 131.216 35.8892C131.064 35.5793 130.987 35.2103 130.987 34.782C130.987 33.9875 131.321 33.3452 131.989 32.8549C132.657 32.3647 133.532 32.1196 134.613 32.1196C135.126 32.1196 135.598 32.1717 136.029 32.276C136.46 32.3802 136.822 32.4943 137.115 32.6183L137.293 32.1196H137.935L138.07 35.0018H137.47C137.273 34.4158 136.935 33.91 136.456 33.4846C135.977 33.0592 135.461 32.8465 134.909 32.8465C134.475 32.8465 134.134 32.9366 133.887 33.1169C133.639 33.2973 133.515 33.548 133.515 33.8692C133.515 34.2974 133.696 34.6073 134.06 34.7989C134.423 34.9905 134.932 35.1708 135.585 35.3399C136.594 35.599 137.332 35.9526 137.8 36.4006C138.268 36.8486 138.501 37.4191 138.501 38.1121C138.501 39.0362 138.139 39.7518 137.415 40.259C136.691 40.7661 135.746 41.0197 134.58 41.0197Z" fill="black"/>
</g>
<defs>
<clipPath id="clip0_35_470">
<rect width="175" height="70" fill="white"/>
</clipPath>
</defs>
</svg>
