<svg width="175" height="70" viewBox="0 0 175 70" fill="none" xmlns="http://www.w3.org/2000/svg">
<g clip-path="url(#clip0_35_572)">
<path d="M175 0H0V70H175V0Z" fill="white"/>
<path d="M94.8737 31.614H98.5191C100.404 31.614 100.783 32.3618 100.783 33.5684V35.3703C100.783 36.8721 100.212 37.3788 98.5191 37.3788H94.8737V31.614ZM106.004 45.9876L101.999 40.1634C103.723 39.4422 104.597 37.9308 104.597 35.6706V33.2954C104.597 29.7566 102.764 28.1787 98.6543 28.1787H91.5279C91.2691 28.1787 91.0591 28.3902 91.0591 28.6511V46.295C91.0591 46.5561 91.2691 46.7676 91.5279 46.7676H94.4049C94.6637 46.7676 94.8737 46.5561 94.8737 46.295V40.7615H97.818L101.822 46.5648C101.91 46.6917 102.054 46.7676 102.207 46.7676H105.645H105.648C105.907 46.7676 106.117 46.5561 106.117 46.295C106.117 46.1775 106.075 46.0701 106.004 45.9876Z" fill="#274970"/>
<path d="M115.444 28.5092C115.383 28.3124 115.202 28.1787 114.997 28.1787H110.623C110.418 28.1787 110.237 28.3124 110.176 28.5092L104.657 46.1529C104.612 46.2965 104.638 46.4531 104.726 46.5746C104.814 46.6961 104.955 46.7676 105.104 46.7676H108.115C108.323 46.7676 108.506 46.6299 108.565 46.4289L112.366 33.4526C112.366 33.4526 112.465 33.1284 112.809 33.1284C113.159 33.1284 113.244 33.4656 113.244 33.4656L115.008 39.6192H112.585C112.375 39.6192 112.191 39.7599 112.134 39.9636L111.454 42.3996C111.414 42.5421 111.443 42.695 111.532 42.8127C111.621 42.9308 111.759 42.9999 111.905 42.9999H115.994L117.056 46.4355C117.117 46.6331 117.298 46.7676 117.503 46.7676H120.516C120.666 46.7676 120.806 46.6961 120.894 46.5746C120.983 46.4531 121.008 46.2965 120.963 46.1529L115.444 28.5092Z" fill="#274970"/>
<path d="M80.826 28.1787H77.9139C77.6673 28.1787 77.4663 28.3803 77.4663 28.6287V42.435C77.4663 44.1701 76.1546 44.7404 75.2669 44.786C75.1473 44.7918 75.008 44.8679 74.9315 44.9805C74.8547 45.0936 74.8333 45.2355 74.8732 45.3663L75.5812 47.6877C75.639 47.8778 75.8421 47.9999 76.1726 47.9999C78.9589 47.9999 81.2724 45.7949 81.2724 42.8393V28.6289C81.2724 28.5095 81.2255 28.3949 81.1416 28.3104C81.058 28.226 80.9444 28.1787 80.826 28.1787Z" fill="#274970"/>
<path d="M87.2191 28.3125H84.5195C84.2766 28.3125 84.0796 28.5229 84.0796 28.7824V46.3366C84.0796 46.5964 84.2766 46.8068 84.5195 46.8068H87.2191C87.4621 46.8068 87.6591 46.5964 87.6591 46.3366V28.7824C87.6591 28.5229 87.4621 28.3125 87.2191 28.3125Z" fill="#274970"/>
<path d="M58.1277 23.54C57.3036 23.54 56.6362 24.2059 56.6362 25.0314C56.6362 25.8548 57.3036 26.523 58.1277 26.523C58.9525 26.523 59.6192 25.8548 59.6192 25.0314C59.6192 24.2059 58.9525 23.54 58.1277 23.54Z" fill="#274970"/>
<path d="M68.8664 23.54C68.0417 23.54 67.375 24.2059 67.375 25.0314C67.375 25.8548 68.0417 26.523 68.8664 26.523C69.6888 26.523 70.358 25.8548 70.358 25.0314C70.358 24.2059 69.6888 23.5411 68.8664 23.54Z" fill="#274970"/>
<path d="M63.7637 21.875C62.8528 21.875 62.1152 22.6043 62.1152 23.5089C62.1152 24.411 62.8528 25.1432 63.7637 25.1432C64.6752 25.1432 65.4119 24.411 65.4119 23.5089C65.4119 22.6043 64.6752 21.875 63.7637 21.875Z" fill="#274970"/>
<path d="M73.076 27.9186C72.9842 27.8496 72.8741 27.8137 72.7622 27.8137C72.7001 27.8137 72.6374 27.825 72.578 27.8476C71.4618 28.2703 70.3283 28.5912 69.2937 28.8299C69.0827 28.8787 68.9122 29.0338 68.8416 29.2202C68.0878 31.2648 66.1631 33.2117 64.1437 35.2509C64.0627 35.3271 63.9492 35.4277 63.7644 35.4277C63.58 35.4277 63.4675 35.3303 63.385 35.2509C61.3659 33.2117 59.4412 31.2715 58.6871 29.2268C58.6163 29.0406 58.4459 28.8854 58.2353 28.8365C57.2001 28.5978 56.0637 28.267 54.9489 27.8443C54.8892 27.8218 54.8265 27.8105 54.7642 27.8105C54.6524 27.8105 54.5442 27.8454 54.4527 27.9145C54.3097 28.0226 54.2354 28.1978 54.2524 28.3661C54.4233 30.0664 55.1018 31.7286 56.3262 33.4704C57.4771 35.1079 58.9783 36.6238 60.4297 38.0895C63.1039 40.7907 65.6301 43.3419 65.8518 46.3002C65.8718 46.567 66.0963 46.7739 66.3671 46.7739H69.5089C69.6504 46.7739 69.7856 46.7163 69.8833 46.6147C69.9806 46.5133 70.0321 46.3771 70.025 46.2369C69.9262 44.2591 69.1745 42.2784 67.7271 40.1823C67.4237 39.7428 67.0989 39.3152 66.7592 38.8968C66.6212 38.7263 66.6789 38.5146 66.7845 38.4078C66.8889 38.302 66.9937 38.1965 67.0992 38.0895C68.5507 36.6236 70.0516 35.1079 71.2028 33.4704C72.4271 31.7284 73.1053 30.076 73.2763 28.3761C73.2934 28.2052 73.2151 28.0239 73.076 27.9186Z" fill="#274970"/>
<path d="M60.2571 40.4003C60.1794 40.323 60.0652 40.2441 59.8735 40.2441C59.6282 40.2441 59.4828 40.4053 59.4278 40.4851C58.046 42.4838 57.3322 44.3702 57.2335 46.2659C57.2264 46.4056 57.2806 46.5445 57.3823 46.6466C57.4845 46.7481 57.6277 46.8066 57.7754 46.8066H61.0551C61.3373 46.8066 61.5749 46.5967 61.5957 46.3293C61.6671 45.4157 61.9664 44.4998 62.5112 43.5374C62.7001 43.2045 62.5534 42.8917 62.4447 42.758C61.9041 42.0899 61.242 41.3771 60.2571 40.4003Z" fill="#274970"/>
<path d="M63.5001 29.5664C64.4202 29.5664 64.9538 29.5059 65.1412 29.5059C65.3683 29.5059 65.5853 29.7098 65.5853 29.9953C65.5853 30.0787 65.5673 30.1382 65.5495 30.1909C65.4275 30.5484 64.8714 31.8349 63.836 32.9384C63.7199 33.0623 63.5883 33.0854 63.4977 33.0854H63.4965C63.4061 33.0854 63.2746 33.0623 63.1585 32.9384C62.1231 31.8349 61.5669 30.5484 61.4451 30.1909C61.4272 30.1382 61.4092 30.0787 61.4092 29.9953C61.4092 29.7098 61.6265 29.5059 61.8536 29.5059C62.041 29.5059 62.5743 29.5664 63.494 29.5664H63.5001Z" fill="#274970"/>
</g>
<defs>
<clipPath id="clip0_35_572">
<rect width="175" height="70" fill="white"/>
</clipPath>
</defs>
</svg>
