<svg width="147" height="26" viewBox="0 0 147 26" fill="none" xmlns="http://www.w3.org/2000/svg">
<g clip-path="url(#clip0_35_1465)">
<path d="M7.97254 20.8804V23.155C7.97254 23.6368 7.44628 23.9339 7.02727 23.6809L5.9694 23.0016L5.71635 22.8588C5.69828 22.8486 4.23557 22.0027 1.05726 20.1647L0.804823 20.0199C0.555933 19.8762 0.351753 19.6706 0.210649 19.4224C0.0711023 19.1762 -0.00151815 18.8967 0.00121225 18.6191L0 12.9545V7.28086C0 6.97966 0.0850449 6.68558 0.243374 6.43279C0.399992 6.17917 0.626778 5.97077 0.862493 5.85681L5.45798 3.20049L5.7089 3.05358C5.79238 3.00574 5.79238 3.00574 5.96211 2.90904L10.3637 0.367388L10.6205 0.215238C10.8884 0.0608671 11.1915 -0.0125612 11.4987 0.00175574C11.7971 0.0162384 12.0912 0.114036 12.2973 0.260808L16.8775 2.90809L17.1313 3.05131C17.1497 3.06195 18.6772 3.94534 21.7872 5.74378L22.0411 5.88905C22.2899 6.03307 22.4936 6.23838 22.6346 6.4865C22.7739 6.73209 22.8465 7.0115 22.8441 7.28998L22.8451 12.4481C22.8452 12.9248 22.329 13.2227 21.9163 12.9841L19.9401 11.8416C19.7487 11.731 19.6309 11.5267 19.6309 11.3057V8.20641L15.6073 5.87935C15.5725 5.86211 15.4942 5.81739 15.2766 5.69129L11.4224 3.46014L7.41237 5.77653C7.37393 5.80183 7.37393 5.80183 7.35092 5.81645C7.34165 5.82216 7.24703 5.87723 7.06708 5.98166L3.21444 8.20665V17.7024L7.23994 20.0303C7.26569 20.0432 7.32106 20.0749 7.57772 20.223L7.66067 20.2967L7.72939 20.3886C7.88174 20.5049 7.97254 20.6864 7.97254 20.8804ZM19.6309 15.0342C19.6309 14.558 20.1462 14.2601 20.5589 14.4979L22.5351 15.6362C22.7269 15.7467 22.8451 15.9512 22.8451 16.1726V18.0573C22.8451 18.2188 22.782 18.3739 22.6689 18.4898L21.7373 19.4397C21.3879 19.8863 20.875 20.064 20.4173 19.8004L13.0741 15.5429L13.0722 23.576C13.098 23.8774 12.9736 24.1723 12.737 24.3629C12.5054 24.5502 12.5054 24.5502 11.3828 25.4571C11.2145 25.613 10.9942 25.7 10.7637 25.7C10.2613 25.7 9.854 25.2924 9.854 24.7899L9.85517 13.6816L8.61772 12.9663L7.99211 13.326C7.96228 13.3469 7.97286 13.3408 7.34139 13.7053C6.89633 13.9657 6.33593 13.8279 6.07992 13.3864C6.01907 13.2812 6.01907 13.2812 5.73129 12.7839L5.38576 12.188C5.12689 11.7413 5.2651 11.1819 5.70694 10.9264C5.81499 10.8643 5.81499 10.8643 6.31461 10.5775L7.82142 9.71006L8.09307 9.55667C8.38253 9.35068 8.7662 9.33191 9.07708 9.51136L9.42023 9.7113L19.6309 15.6125V15.0342Z" fill="black"/>
<path fill-rule="evenodd" clip-rule="evenodd" d="M29.4346 18.1173C29.3188 18.1173 29.2174 18.074 29.1305 17.9876C29.0437 17.901 29 17.8 29 17.6847V6.43267C29 6.30594 29.0437 6.20198 29.1305 6.12129C29.2174 6.04035 29.3188 6 29.4346 6H31.8676C31.9951 6 32.0992 6.04035 32.1804 6.12129C32.2614 6.20198 32.3019 6.30594 32.3019 6.43267V15.3998H37.5155C37.6428 15.3998 37.7501 15.4428 37.8368 15.5295C37.9238 15.6161 37.9673 15.7228 37.9673 15.8498V17.6847C37.9673 17.8116 37.9238 17.9156 37.8368 17.9963C37.7501 18.077 37.6428 18.1173 37.5155 18.1173H29.4346ZM38.7493 18.1173C38.6566 18.1173 38.5724 18.08 38.4973 18.0047C38.4218 17.9297 38.3843 17.846 38.3843 17.7537C38.3843 17.6847 38.3902 17.6327 38.4016 17.598L42.4508 6.50198C42.5666 6.16733 42.7982 6 43.1458 6H45.8569C46.2043 6 46.4361 6.16733 46.5519 6.50198L50.601 17.598C50.6127 17.6327 50.6184 17.6847 50.6184 17.7537C50.6184 17.846 50.5807 17.9297 50.5054 18.0047C50.4301 18.08 50.3461 18.1173 50.2534 18.1173H47.9941C47.7163 18.1173 47.5193 17.9903 47.4035 17.7364L46.7778 16.0574H42.2249L41.5992 17.7364C41.4834 17.9903 41.2864 18.1173 41.0083 18.1173H38.7493ZM42.9547 13.4609H46.048L44.5013 9.04653L42.9547 13.4609ZM52.3909 18.1173C52.2635 18.1173 52.1564 18.077 52.0694 17.9963C51.9827 17.9156 51.9392 17.8116 51.9392 17.6847V6.45C51.9392 6.32327 51.9827 6.21634 52.0694 6.12995C52.1564 6.04332 52.2635 6 52.3909 6H54.3547C54.6442 6 54.853 6.12698 54.9802 6.38069L57.9693 11.7124L60.9758 6.38069C61.103 6.12698 61.3117 6 61.6012 6H63.5651C63.6925 6 63.7996 6.04332 63.8866 6.12995C63.9733 6.21634 64.0168 6.32327 64.0168 6.45V17.6847C64.0168 17.8116 63.9733 17.9156 63.8866 17.9963C63.7996 18.077 63.6925 18.1173 63.5651 18.1173H61.358C61.2422 18.1173 61.1408 18.074 61.0538 17.9876C60.9671 17.901 60.9236 17.8 60.9236 17.6847V11.3834L59.0468 14.8111C58.8962 15.0765 58.6934 15.2092 58.4384 15.2092H57.5001C57.2683 15.2092 57.0655 15.0765 56.8918 14.8111L55.0324 11.3834V17.6847C55.0324 17.8116 54.9889 17.9156 54.9022 17.9963C54.8152 18.077 54.7081 18.1173 54.5806 18.1173H52.3909ZM66.8146 18.1173C66.6988 18.1173 66.5974 18.074 66.5107 17.9876C66.4237 17.901 66.3802 17.8 66.3802 17.6847V6.45C66.3802 6.32327 66.4207 6.21634 66.5017 6.12995C66.583 6.04332 66.6873 6 66.8146 6H72.1845C73.6558 6 74.7506 6.3 75.469 6.90025C76.1871 7.50025 76.5465 8.35421 76.5465 9.46213C76.5465 10.0161 76.3986 10.495 76.1034 10.8988C75.8079 11.3027 75.4804 11.597 75.1214 11.7817C75.5965 11.9894 75.9961 12.3327 76.3206 12.8116C76.6449 13.2906 76.8071 13.8302 76.8071 14.4302C76.8071 15.5955 76.4217 16.5017 75.6514 17.148C74.8811 17.7941 73.7775 18.1173 72.3408 18.1173H66.8146ZM71.8194 10.795C72.2481 10.795 72.5783 10.6797 72.8102 10.4488C73.0417 10.2178 73.1578 9.91807 73.1578 9.54876C73.1578 9.19084 73.0447 8.8995 72.8189 8.6745C72.593 8.44926 72.2597 8.33688 71.8194 8.33688H69.6474V10.795H71.8194ZM71.976 15.7804C72.4277 15.7804 72.7783 15.6505 73.0273 15.3908C73.2763 15.1314 73.4011 14.8111 73.4011 14.4302C73.4011 14.0379 73.2736 13.7119 73.0186 13.452C72.7637 13.1926 72.4163 13.0626 71.976 13.0626H69.6474V15.7804H71.976ZM79.1009 18.1173C78.9849 18.1173 78.8838 18.074 78.7968 17.9876C78.7098 17.901 78.6663 17.8 78.6663 17.6847V6.45C78.6663 6.32327 78.7071 6.21634 78.7881 6.12995C78.8691 6.04332 78.9735 6 79.1009 6H83.6714C85.386 6 86.7182 6.40668 87.6684 7.22054C88.6181 8.03391 89.1166 9.20248 89.1626 10.7257C89.1743 11.0604 89.1802 11.5047 89.1802 12.0587C89.1802 12.6126 89.1743 13.051 89.1626 13.3743C89.0468 16.5361 87.2452 18.1173 83.7582 18.1173H79.1009ZM83.6714 15.5208C84.401 15.5208 84.9397 15.3478 85.2876 15.0015C85.635 14.6554 85.8204 14.1012 85.8435 13.3396C85.8668 13.005 85.8783 12.5723 85.8783 12.0413C85.8783 11.5104 85.8668 11.0834 85.8435 10.7604C85.8204 10.0218 85.6203 9.47649 85.2441 9.12451C84.8674 8.77252 84.3145 8.59653 83.5845 8.59653H81.9335V15.5208H83.6714ZM90.4836 18.1173C90.3909 18.1173 90.3069 18.08 90.2316 18.0047C90.156 17.9297 90.1185 17.846 90.1185 17.7537C90.1185 17.6847 90.1242 17.6327 90.1359 17.598L94.1848 6.50198C94.3009 6.16733 94.5327 6 94.8801 6H97.5911C97.9388 6 98.1704 6.16733 98.2862 6.50198L102.335 17.598C102.347 17.6327 102.352 17.6847 102.352 17.7537C102.352 17.846 102.315 17.9297 102.24 18.0047C102.165 18.08 102.081 18.1173 101.988 18.1173H99.7287C99.4506 18.1173 99.2535 17.9903 99.1377 17.7364L98.512 16.0574H93.9589L93.3333 17.7364C93.2177 17.9903 93.0209 18.1173 92.7428 18.1173H90.4836ZM94.689 13.4609H97.7822L96.2356 9.04653L94.689 13.4609Z" fill="black"/>
<path fill-rule="evenodd" clip-rule="evenodd" d="M105.962 18.2903C105.835 18.2903 105.728 18.25 105.641 18.1693C105.554 18.0886 105.51 17.9847 105.51 17.8577V8.99455H102.452C102.325 8.99455 102.217 8.95421 102.13 8.87351C102.043 8.79257 102 8.68886 102 8.56188V6.62302C102 6.49629 102.043 6.38936 102.13 6.30297C102.217 6.21634 102.325 6.17302 102.452 6.17302H111.888C112.015 6.17302 112.123 6.21634 112.21 6.30297C112.296 6.38936 112.34 6.49629 112.34 6.62302V8.56188C112.34 8.68886 112.296 8.79257 112.21 8.87351C112.123 8.95421 112.015 8.99455 111.888 8.99455H108.83V17.8577C108.83 17.9847 108.786 18.0886 108.699 18.1693C108.612 18.25 108.505 18.2903 108.378 18.2903H105.962ZM114.304 18.2903C114.188 18.2903 114.086 18.247 114 18.1606C113.913 18.074 113.869 17.973 113.869 17.8577V6.62302C113.869 6.49629 113.91 6.38936 113.991 6.30297C114.072 6.21634 114.176 6.17302 114.304 6.17302H122.506C122.633 6.17302 122.741 6.21634 122.827 6.30297C122.914 6.38936 122.958 6.49629 122.958 6.62302V8.33688C122.958 8.46386 122.914 8.56757 122.827 8.64827C122.741 8.72921 122.633 8.76955 122.506 8.76955H117.015V10.9681H122.124C122.251 10.9681 122.358 11.0114 122.445 11.0978C122.532 11.1844 122.576 11.2911 122.576 11.4181V12.9933C122.576 13.1203 122.532 13.227 122.445 13.3136C122.358 13.4 122.251 13.4436 122.124 13.4436H117.015V15.6938H122.645C122.772 15.6938 122.88 15.7371 122.967 15.8235C123.053 15.9101 123.097 16.0168 123.097 16.1438V17.8577C123.097 17.9847 123.053 18.0886 122.967 18.1693C122.88 18.25 122.772 18.2903 122.645 18.2903H114.304ZM129.631 18.4634C128.507 18.4634 127.552 18.302 126.764 17.9787C125.976 17.6557 125.379 17.2287 124.974 16.6975C124.568 16.1671 124.354 15.5899 124.331 14.9666C124.331 14.8629 124.368 14.7762 124.444 14.7069C124.519 14.6379 124.609 14.6032 124.713 14.6032H127.024C127.163 14.6032 127.276 14.6262 127.363 14.6725C127.45 14.7186 127.546 14.7993 127.65 14.9146C127.801 15.1916 128.035 15.4196 128.354 15.5985C128.672 15.7775 129.098 15.8668 129.631 15.8668C130.257 15.8668 130.737 15.7715 131.073 15.5814C131.409 15.3908 131.577 15.1285 131.577 14.7936C131.577 14.5515 131.49 14.3522 131.317 14.1965C131.143 14.0406 130.865 13.902 130.483 13.7809C130.1 13.6599 129.55 13.5243 128.832 13.3743C127.43 13.0973 126.381 12.676 125.686 12.1104C124.991 11.545 124.644 10.7371 124.644 9.68713C124.644 8.97153 124.843 8.33391 125.243 7.77426C125.643 7.21436 126.21 6.77896 126.946 6.46733C127.682 6.15569 128.536 6 129.509 6C130.529 6 131.412 6.17599 132.16 6.52772C132.907 6.87995 133.48 7.31832 133.88 7.84332C134.28 8.36856 134.491 8.8849 134.514 9.39282C134.514 9.49653 134.479 9.58614 134.41 9.66114C134.34 9.73614 134.254 9.77351 134.149 9.77351H131.717C131.462 9.77351 131.265 9.6698 131.126 9.46188C131.056 9.21955 130.877 9.01485 130.587 8.84752C130.297 8.6802 129.938 8.59653 129.509 8.59653C129.023 8.59653 128.646 8.68317 128.38 8.85619C128.113 9.02921 127.98 9.28317 127.98 9.61782C127.98 9.95248 128.154 10.2151 128.502 10.4054C128.849 10.596 129.498 10.7891 130.448 10.9854C131.537 11.1814 132.403 11.4267 133.046 11.721C133.689 12.0151 134.164 12.3963 134.471 12.8634C134.778 13.3309 134.931 13.9225 134.931 14.6379C134.931 15.4225 134.705 16.1035 134.254 16.6804C133.802 17.2574 133.176 17.6988 132.377 18.0047C131.577 18.3106 130.662 18.4634 129.631 18.4634ZM139.728 18.2903C139.6 18.2903 139.493 18.25 139.406 18.1693C139.319 18.0886 139.276 17.9847 139.276 17.8577V8.99455H136.217C136.09 8.99455 135.983 8.95421 135.896 8.87351C135.809 8.79257 135.766 8.68886 135.766 8.56188V6.62302C135.766 6.49629 135.809 6.38936 135.896 6.30297C135.983 6.21634 136.09 6.17302 136.217 6.17302H145.653C145.781 6.17302 145.888 6.21634 145.975 6.30297C146.062 6.38936 146.105 6.49629 146.105 6.62302V8.56188C146.105 8.68886 146.062 8.79257 145.975 8.87351C145.888 8.95421 145.781 8.99455 145.653 8.99455H142.595V17.8577C142.595 17.9847 142.551 18.0886 142.464 18.1693C142.378 18.25 142.271 18.2903 142.143 18.2903H139.728Z" fill="black"/>
</g>
<defs>
<clipPath id="clip0_35_1465">
<rect width="147" height="26" fill="white"/>
</clipPath>
</defs>
</svg>
