<svg width="127" height="64" viewBox="0 0 127 64" fill="none" xmlns="http://www.w3.org/2000/svg">
<path d="M48.3702 31.8509L47.75 33.6082H47.6983C47.5949 33.2119 47.4054 32.6089 47.0954 31.8853L43.7702 23.5296H40.514V36.8471H42.6676V28.6291C42.6676 28.1123 42.6676 27.5266 42.6504 26.803C42.6331 26.4411 42.5987 26.1655 42.5815 25.9587H42.6331C42.7365 26.4756 42.8572 26.8546 42.9433 27.0958L46.9402 36.8127H48.4564L52.4189 27.0097C52.505 26.7857 52.5912 26.3378 52.6773 25.9587H52.729C52.6773 26.9408 52.6428 27.8194 52.6257 28.3535V36.7954H54.917V23.4952H51.7814L48.3702 31.8509ZM57.0878 27.2509H59.3275V36.7954H57.0878V27.2509ZM58.2249 23.2195C57.8458 23.2195 57.5357 23.3573 57.2772 23.5985C57.0189 23.8397 56.881 24.1497 56.881 24.5288C56.881 24.8906 57.0189 25.2008 57.2772 25.442C57.5357 25.6832 57.8458 25.8037 58.2249 25.8037C58.6039 25.8037 58.9312 25.6659 59.1724 25.442C59.4309 25.2008 59.5686 24.8906 59.5686 24.5288C59.5686 24.167 59.4309 23.8569 59.1724 23.5985C58.9485 23.3573 58.6211 23.2195 58.2249 23.2195ZM67.2697 27.1647C66.8563 27.0786 66.4256 27.0269 66.0121 27.0269C64.9956 27.0269 64.0653 27.2509 63.29 27.6989C62.5147 28.1467 61.8945 28.767 61.4982 29.5423C61.0848 30.3347 60.878 31.2479 60.878 32.2988C60.878 33.2119 61.0848 34.0216 61.4811 34.7625C61.8773 35.4861 62.4286 36.0719 63.1694 36.4681C63.8757 36.8643 64.7027 37.0711 65.6331 37.0711C66.7012 37.0711 67.6143 36.8471 68.3379 36.4336L68.3551 36.4164V34.349L68.269 34.4179C67.9416 34.6591 67.5626 34.8659 67.1837 34.9864C66.7873 35.1243 66.4256 35.1932 66.1155 35.1932C65.2196 35.1932 64.5132 34.9348 64.0136 34.3662C63.4967 33.815 63.2383 33.0569 63.2383 32.1094C63.2383 31.1273 63.4968 30.352 64.0308 29.7835C64.5649 29.2149 65.2713 28.9221 66.1326 28.9221C66.8563 28.9221 67.597 29.1633 68.269 29.6457L68.3551 29.7146V27.5266L68.3379 27.5093C68.045 27.3888 67.7177 27.2509 67.2697 27.1647ZM74.6608 27.0958C74.1094 27.0958 73.5926 27.2681 73.1446 27.63C72.7656 27.9401 72.5072 28.3879 72.2832 28.9221H72.266V27.2509H70.0263V36.7954H72.266V31.9198C72.266 31.0928 72.4383 30.4037 72.8173 29.9041C73.1964 29.3872 73.6788 29.1288 74.2644 29.1288C74.4712 29.1288 74.6779 29.1805 74.9364 29.2149C75.1776 29.2838 75.3499 29.3528 75.4705 29.4389L75.5567 29.5079V27.2681L75.5049 27.2509C75.3499 27.1476 75.0398 27.0958 74.6608 27.0958ZM80.7596 27.0442C79.1918 27.0442 77.9341 27.5093 77.0555 28.4224C76.1596 29.3356 75.7288 30.5932 75.7288 32.1782C75.7288 33.6599 76.1768 34.8659 77.0382 35.7445C77.8997 36.6059 79.0712 37.0539 80.5356 37.0539C82.0689 37.0539 83.2921 36.5887 84.1708 35.6584C85.0667 34.728 85.4974 33.4876 85.4974 31.9543C85.4974 30.4381 85.0839 29.2322 84.2397 28.3535C83.43 27.4749 82.2412 27.0442 80.7596 27.0442ZM82.5514 34.3835C82.1379 34.9175 81.4832 35.176 80.6735 35.176C79.8638 35.176 79.2091 34.9175 78.7438 34.349C78.2787 33.815 78.0547 33.0396 78.0547 32.0576C78.0547 31.0412 78.2959 30.2658 78.7438 29.7146C79.2091 29.1633 79.8465 28.8876 80.6562 28.8876C81.4487 28.8876 82.0689 29.146 82.5169 29.6801C82.9648 30.2142 83.206 30.9894 83.206 32.006C83.1716 33.0396 82.982 33.8494 82.5514 34.3835ZM90.4936 31.2135C89.7873 30.9205 89.3393 30.6966 89.1326 30.507C88.9603 30.3347 88.8742 30.0935 88.8742 29.7835C88.8742 29.525 88.9776 29.2667 89.2359 29.0944C89.4944 28.9221 89.7873 28.8359 90.2179 28.8359C90.597 28.8359 90.9933 28.9048 91.3723 29.0082C91.7513 29.1115 92.0958 29.2667 92.3715 29.4734L92.4577 29.5423V27.4404L92.4059 27.4232C92.1476 27.3199 91.803 27.2165 91.3895 27.1303C90.976 27.0614 90.597 27.0269 90.2868 27.0269C89.2188 27.0269 88.34 27.2854 87.651 27.8539C86.9618 28.3879 86.6344 29.1115 86.6344 29.9557C86.6344 30.4037 86.7033 30.8 86.8585 31.1273C87.0135 31.4547 87.2375 31.7648 87.5476 32.0232C87.8576 32.2644 88.3056 32.54 88.9258 32.7984C89.4427 33.0224 89.839 33.1947 90.0801 33.3326C90.3213 33.4704 90.4764 33.6254 90.597 33.7461C90.6832 33.8839 90.7348 34.0562 90.7348 34.2801C90.7348 34.9175 90.2524 35.2276 89.2704 35.2276C88.8914 35.2276 88.4951 35.1587 88.0299 35.0037C87.5648 34.8486 87.1341 34.6247 86.7723 34.3662L86.6862 34.2973V36.4853L86.7378 36.5026C87.0652 36.6576 87.4614 36.7609 87.9438 36.8816C88.4262 36.9677 88.8569 37.0366 89.2359 37.0366C90.3902 37.0366 91.3378 36.7782 92.0097 36.2096C92.6989 35.6584 93.0606 34.952 93.0606 34.0389C93.0606 33.4015 92.8883 32.8329 92.5093 32.4022C92.0097 31.9887 91.3895 31.558 90.4936 31.2135ZM98.97 27.0442C97.4022 27.0442 96.1445 27.5093 95.2659 28.4224C94.3872 29.3356 93.9394 30.5932 93.9394 32.1782C93.9394 33.6599 94.3872 34.8659 95.2486 35.7445C96.1101 36.6059 97.2816 37.0539 98.746 37.0539C100.279 37.0539 101.503 36.5887 102.381 35.6584C103.277 34.728 103.708 33.4876 103.708 31.9543C103.708 30.4381 103.294 29.2322 102.45 28.3535C101.64 27.4749 100.452 27.0442 98.97 27.0442ZM100.745 34.3835C100.331 34.9175 99.6764 35.176 98.8666 35.176C98.0397 35.176 97.4022 34.9175 96.9371 34.349C96.4718 33.815 96.2479 33.0396 96.2479 32.0576C96.2479 31.0412 96.4891 30.2658 96.9371 29.7146C97.4022 29.1633 98.0396 28.8876 98.8494 28.8876C99.6247 28.8876 100.262 29.146 100.71 29.6801C101.158 30.2142 101.399 30.9894 101.399 32.006C101.399 33.0396 101.175 33.8494 100.745 34.3835ZM115.682 29.0944V27.2509H113.424V24.4254L113.356 24.4427L111.22 25.0801L111.168 25.0974V27.2509H107.791V26.0449C107.791 25.4936 107.928 25.0629 108.17 24.7873C108.411 24.5116 108.773 24.3738 109.221 24.3738C109.531 24.3738 109.858 24.4427 110.22 24.5977L110.307 24.6494V22.7026L110.255 22.6853C109.945 22.582 109.531 22.5131 108.997 22.5131C108.325 22.5131 107.739 22.6682 107.206 22.9266C106.671 23.2195 106.274 23.6157 105.982 24.1497C105.689 24.6666 105.534 25.2524 105.534 25.9244V27.2509H103.966V29.0771H105.534V36.7954H107.791V29.0944H111.168V34.0044C111.168 36.0202 112.115 37.0366 114.011 37.0366C114.321 37.0366 114.648 36.985 114.958 36.9332C115.285 36.8643 115.526 36.7782 115.664 36.7093L115.682 36.692V34.8486L115.595 34.9175C115.457 35.0037 115.337 35.0726 115.13 35.1243C114.958 35.176 114.802 35.1932 114.683 35.1932C114.234 35.1932 113.924 35.0898 113.701 34.8314C113.493 34.5902 113.391 34.1939 113.391 33.6082V29.0944H115.682Z" fill="#666666"/>
<path d="M11.6414 19.0498H22.2024V29.6108H11.6414V19.0498Z" fill="#F25022"/>
<path d="M23.304 19.0498H33.865V29.6108H23.304V19.0498Z" fill="#7FBA00"/>
<path d="M11.6414 30.7134H22.2024V41.2743H11.6414V30.7134Z" fill="#00A4EF"/>
<path d="M23.304 30.7134H33.865V41.2743H23.304V30.7134Z" fill="#FFB900"/>
</svg>
