<svg width="67" height="20" viewBox="0 0 67 20" fill="none" xmlns="http://www.w3.org/2000/svg">
<g clip-path="url(#clip0_35_656)">
<mask id="mask0_35_656" style="mask-type:luminance" maskUnits="userSpaceOnUse" x="0" y="0" width="67" height="16">
<path d="M66.6355 0H0V15.489H66.6355V0Z" fill="white"/>
</mask>
<g mask="url(#mask0_35_656)">
<path d="M66.5588 -0.000976658C66.8502 1.40186 66.3203 2.35256 64.9693 2.85111C64.0385 3.19102 63.744 3.82231 63.7924 4.83559C63.888 6.79902 63.8264 8.77055 63.8183 10.7405C63.807 13.2672 62.8634 14.5022 60.4014 15.1109C58.6609 15.5429 56.8286 15.4149 55.165 14.7451C53.7357 14.185 52.9782 13.1021 52.9571 11.5757C52.9199 8.8531 52.9409 6.1289 52.9231 3.40469C52.9231 2.98384 53.0268 2.78798 53.4946 2.73133C54.3962 2.62125 55.2881 2.42216 56.2851 2.24573C56.3013 2.57917 56.324 2.85919 56.324 3.13922C56.324 5.56722 56.324 7.99521 56.324 10.4232C56.324 11.9949 56.9358 12.7201 58.2356 12.7363C59.7361 12.7541 60.4095 12.0661 60.4241 10.4037C60.4484 7.73461 60.4338 5.0622 60.4354 2.39464V1.48172L66.3969 -0.000976658H66.5588Z" fill="#87D780"/>
<path d="M38.6654 1.15418C41.0934 1.15418 43.4761 0.992312 45.828 1.19465C48.617 1.42936 49.996 4.22154 48.5555 6.36627C48.2318 6.84054 47.9322 7.32291 47.6215 7.80203L47.2605 7.53333C47.4224 7.63207 47.5842 7.73566 47.7575 7.82631C49.2142 8.60812 49.7873 9.83023 49.6124 11.4473C49.4377 13.0643 48.5118 14.029 46.9886 14.4515C46.4503 14.6197 45.8928 14.7188 45.3295 14.7461C43.1248 14.78 40.9186 14.7607 38.6654 14.7607V1.15418ZM42.1877 12.14C43.0083 12.14 43.7869 12.2016 44.5509 12.1222C45.3149 12.0429 45.8151 11.3728 45.8232 10.5894C45.8313 9.76709 45.3878 9.17951 44.5444 9.09696C43.7788 9.02088 43.0002 9.08077 42.1877 9.08077V12.14ZM42.2055 3.73433V6.33228C42.908 6.33228 43.5748 6.36141 44.2401 6.33228C45.1498 6.2821 45.5868 5.89362 45.6257 5.1798C45.6678 4.40122 45.1773 3.83469 44.2886 3.75375C43.6218 3.69386 42.9452 3.7408 42.2055 3.7408V3.73433Z" fill="#87D780"/>
<path d="M26.2726 8.05771C26.2726 9.02891 26.2904 10.0001 26.2726 10.9713C26.2192 13.422 25.2221 14.67 22.8055 15.2316C21.0392 15.6745 19.1788 15.5557 17.4833 14.8917C16.0572 14.3236 15.2171 13.273 15.2058 11.6819C15.1863 9.39149 15.1912 7.09946 15.1944 4.80905C15.1944 3.11431 16.109 2.02657 17.6046 1.41957C19.8368 0.513125 22.0802 0.610245 24.2719 1.58144C25.5523 2.14959 26.1933 3.2001 26.2402 4.58244C26.2775 5.73978 26.2402 6.90036 26.2402 8.06095L26.2726 8.05771ZM18.6325 8.19368C18.6325 9.16487 18.6455 10.1361 18.6325 11.0992C18.6212 11.8098 18.987 12.2646 19.573 12.5738C21.0897 13.3831 22.8103 12.4038 22.8379 10.6945C22.8685 8.91398 22.8588 7.14317 22.8379 5.3675C22.8265 4.19396 22.0997 3.53193 20.8743 3.51413C19.4985 3.49308 18.7021 4.10332 18.6503 5.29465C18.5985 6.25452 18.6325 7.2241 18.6325 8.19368Z" fill="#87D780"/>
<path d="M11.038 14.7477H7.6388V13.8574C7.6388 11.0247 7.6388 8.1921 7.62585 5.35944C7.62585 4.24256 7.02209 3.61452 5.9214 3.52712C4.53906 3.41542 3.67955 3.94958 3.49341 5.06808C3.44044 5.44331 3.41931 5.82235 3.43028 6.20114C3.43028 9.02894 3.43028 11.8567 3.43028 14.7396H0.00195332V12.8668C0.00195332 10.3303 0.00195332 7.79391 0.00195332 5.25909C0.00195332 3.10626 0.799952 1.9473 2.83299 1.25451C4.81623 0.569287 6.98391 0.649531 8.91106 1.4795C10.2222 2.02014 11.0153 3.02047 11.038 4.45622C11.0979 7.79877 11.0963 11.1445 11.1157 14.492C11.1004 14.5801 11.0743 14.666 11.038 14.7477Z" fill="#87D780"/>
<path d="M34.1986 14.7726H30.8204V1.16613H34.1986V14.7726Z" fill="#87D780"/>
</g>
<path d="M55.7766 19.7435C56.5944 19.7435 57.2574 19.0805 57.2574 18.2627C57.2574 17.4449 56.5944 16.7819 55.7766 16.7819C54.9588 16.7819 54.2958 17.4449 54.2958 18.2627C54.2958 19.0805 54.9588 19.7435 55.7766 19.7435Z" fill="#87D780"/>
<path d="M61.6991 19.7435C62.5169 19.7435 63.1798 19.0805 63.1798 18.2627C63.1798 17.4449 62.5169 16.7819 61.6991 16.7819C60.8813 16.7819 60.2183 17.4449 60.2183 18.2627C60.2183 19.0805 60.8813 19.7435 61.6991 19.7435Z" fill="#87D780"/>
</g>
<defs>
<clipPath id="clip0_35_656">
<rect width="66.66" height="19.998" fill="white"/>
</clipPath>
</defs>
</svg>
