<svg width="127" height="64" viewBox="0 0 127 64" fill="none" xmlns="http://www.w3.org/2000/svg">
<path d="M116.125 37.2915V36.9894H116.315C116.415 36.9894 116.561 37.0006 116.561 37.1237C116.561 37.2468 116.483 37.2915 116.36 37.2915H116.125ZM116.125 37.5041H116.259L116.561 38.03H116.886L116.55 37.4817C116.718 37.4929 116.852 37.3698 116.863 37.202C116.863 37.1908 116.863 37.1684 116.863 37.1572C116.863 36.8663 116.662 36.7768 116.326 36.7768H115.845V38.03H116.125V37.5041ZM117.535 37.4034C117.535 36.6649 116.964 36.2397 116.326 36.2397C115.688 36.2397 115.118 36.6649 115.118 37.4034C115.118 38.1419 115.688 38.5671 116.326 38.5671C116.964 38.5671 117.535 38.1419 117.535 37.4034ZM117.176 37.4034C117.199 37.8734 116.83 38.2762 116.36 38.2986C116.349 38.2986 116.337 38.2986 116.326 38.2986C115.834 38.321 115.419 37.9293 115.397 37.4369C115.375 36.9446 115.766 36.5306 116.259 36.5081C116.752 36.4858 117.166 36.8775 117.188 37.3698C117.176 37.3811 117.176 37.3922 117.176 37.4034Z" fill="black"/>
<path d="M73.1667 24.9711V38.1752H76.8929V24.9711H73.1667ZM43.8491 24.9487V38.164H47.6089V27.9028L50.5406 27.914C51.5029 27.914 52.1743 28.1491 52.6331 28.6414C53.2262 29.268 53.4611 30.2863 53.4611 32.1326V38.164H57.1091V30.8681C57.1091 25.6536 53.7857 24.9487 50.5406 24.9487H43.8491ZM79.1756 24.9711V38.1752H85.2182C88.4409 38.1752 89.4928 37.6381 90.623 36.4408C91.4286 35.6015 91.9434 33.7439 91.9434 31.7186C91.9434 29.8611 91.5069 28.205 90.7349 27.1755C89.3697 25.3291 87.3778 24.9711 84.4014 24.9711H79.1756ZM82.8684 27.8357H84.4685C86.796 27.8357 88.2954 28.8764 88.2954 31.5843C88.2954 34.2923 86.796 35.3441 84.4685 35.3441H82.8684V27.8357ZM67.7955 24.9711L64.6846 35.4337L61.7082 24.9711H57.6798L61.9319 38.1752H67.3032L71.6001 24.9711H67.7955ZM93.689 38.1752H97.4153V24.9711H93.689V38.1752ZM104.14 24.9711L98.937 38.164H102.607L103.435 35.8254H109.59L110.373 38.1528H114.368L109.12 24.9711H104.14ZM106.557 27.3769L108.818 33.5538H104.23L106.557 27.3769Z" fill="black"/>
<path d="M19.802 27.1646V25.3519C19.9811 25.3407 20.1601 25.3295 20.3391 25.3295C25.3074 25.1728 28.5637 29.6041 28.5637 29.6041C28.5637 29.6041 25.0502 34.4829 21.2791 34.4829C20.7756 34.4829 20.2832 34.4046 19.8132 34.2478V28.7424C21.7491 28.9774 22.1407 29.8278 23.2933 31.7637L25.8782 29.5928C25.8782 29.5928 23.9871 27.1198 20.8091 27.1198C20.4734 27.1087 20.1377 27.1311 19.802 27.1646ZM19.802 21.1668V23.8748C19.9811 23.8636 20.1601 23.8525 20.3391 23.8412C27.2433 23.6063 31.7529 29.5033 31.7529 29.5033C31.7529 29.5033 26.5832 35.792 21.2008 35.792C20.7308 35.792 20.272 35.7474 19.8132 35.6689V37.3475C20.1937 37.3922 20.5854 37.4258 20.9657 37.4258C25.9789 37.4258 29.6044 34.8633 33.118 31.842C33.6999 32.312 36.0834 33.4422 36.5757 33.9345C33.2411 36.732 25.4642 38.9812 21.0553 38.9812C20.63 38.9812 20.2272 38.9589 19.8244 38.9141V41.2751H38.8697V21.1668H19.802ZM19.802 34.2478V35.6802C15.1694 34.8521 13.8825 30.0293 13.8825 30.0293C13.8825 30.0293 16.1094 27.5675 19.802 27.1646V28.7313H19.7909C17.855 28.4962 16.3331 30.309 16.3331 30.309C16.3331 30.309 17.1948 33.3639 19.802 34.2478ZM11.5774 29.8278C11.5774 29.8278 14.319 25.777 19.8132 25.3519V23.8748C13.7259 24.3671 8.46663 29.5145 8.46663 29.5145C8.46663 29.5145 11.4432 38.1307 19.802 38.9141V37.3475C13.6699 36.5865 11.5774 29.8278 11.5774 29.8278Z" fill="#76B900"/>
</svg>
