<svg width="127" height="64" viewBox="0 0 127 64" fill="none" xmlns="http://www.w3.org/2000/svg">
<g clip-path="url(#clip0_35_59)">
<path d="M127 0H0V63.4999H127V0Z" fill="white"/>
<path d="M89.2499 27.6049C88.3096 27.6049 87.8822 27.8613 87.006 28.9085V28.4597C87.006 27.9254 86.9418 27.84 86.3862 27.84H85.9374C85.4031 27.84 85.3176 27.9041 85.3176 28.4597V37.0081C85.3176 37.5423 85.3818 37.6278 85.9374 37.6278H86.3862C86.9205 37.6278 87.006 37.5637 87.006 37.0081V32.4561C87.006 31.2806 87.1341 30.5754 87.3907 30.1052C87.7539 29.4641 88.5233 29.1222 89.2499 29.229C89.4209 29.2504 89.5704 29.3145 89.7201 29.3573C89.7842 29.3787 89.8482 29.4001 89.9124 29.3573C89.9765 29.3359 90.0193 29.2932 90.062 29.229C90.1475 29.1009 90.2116 28.9512 90.2971 28.8231C90.3398 28.7375 90.3826 28.652 90.4467 28.5665C90.5321 28.3742 90.6176 28.2459 90.6176 28.1605C90.6176 27.8613 89.9765 27.6049 89.2499 27.6049Z" fill="#797D82"/>
<path d="M59.525 27.6049C58.5846 27.6049 58.1573 27.8613 57.2811 28.9085V28.4597C57.2811 27.9254 57.217 27.84 56.6613 27.84H56.2125C55.6782 27.84 55.5927 27.9041 55.5927 28.4597V37.0081C55.5927 37.5423 55.6569 37.6278 56.2125 37.6278H56.6613C57.1956 37.6278 57.2811 37.5637 57.2811 37.0081V32.4561C57.2811 31.2806 57.4092 30.5754 57.6657 30.1052C58.029 29.4641 58.7984 29.1222 59.525 29.229C59.696 29.2504 59.8455 29.3145 59.9952 29.3573C60.0592 29.3787 60.1233 29.4001 60.1875 29.3573C60.2516 29.3359 60.2944 29.2932 60.3371 29.229C60.4225 29.1009 60.4867 28.9512 60.5722 28.8231C60.6149 28.7375 60.6576 28.652 60.7217 28.5665C60.8072 28.3742 60.8928 28.2459 60.8928 28.1605C60.8714 27.8613 60.2516 27.6049 59.525 27.6049Z" fill="#797D82"/>
<path d="M64.3532 33.5238C64.3532 34.4428 64.4388 34.9343 64.6524 35.3616C64.973 35.9814 65.7209 36.3447 66.5545 36.3447C67.3879 36.3447 68.1146 35.9601 68.435 35.3616C68.6488 34.9343 68.7342 34.4428 68.7342 33.5238V28.4375C68.7342 27.9033 68.7983 27.8177 69.354 27.8177H69.8028C70.3371 27.8177 70.4226 27.8819 70.4226 28.4375V33.7161C70.4226 35.148 70.1875 35.9387 69.525 36.6653C68.8197 37.4561 67.7512 37.8834 66.5545 37.8834C65.3363 37.8834 64.2677 37.4561 63.5625 36.6653C62.9 35.9387 62.6649 35.1693 62.6649 33.7161V28.4375C62.6649 27.9033 62.729 27.8177 63.2846 27.8177H63.7335C64.2677 27.8177 64.3532 27.8819 64.3532 28.4375V33.5238Z" fill="#797D82"/>
<path d="M74.8476 29.2282C75.8093 28.1169 76.8565 27.6254 78.267 27.6254C80.9597 27.6254 82.9258 29.7625 82.9258 32.7117C82.9258 35.7036 80.9169 37.8834 78.2242 37.8834C76.8565 37.8834 75.7665 37.3706 74.869 36.2592V36.9859C74.869 37.5201 74.8048 37.6056 74.2492 37.6056H73.8005C73.2661 37.6056 73.1807 37.5415 73.1807 36.9859V21.0645C73.1807 20.5303 73.2448 20.4448 73.8005 20.4448H74.2492C74.7835 20.4448 74.869 20.5089 74.869 21.0645V29.2282H74.8476ZM74.7194 32.7117C74.7194 34.8702 76.0657 36.3661 77.9891 36.3661C79.8484 36.3661 81.1947 34.806 81.1947 32.6689C81.1947 30.6815 79.8057 29.1642 77.9678 29.1642C76.0657 29.1428 74.7194 30.6174 74.7194 32.7117Z" fill="#797D82"/>
<path d="M94.828 24.142C94.828 24.8045 94.2938 25.3387 93.6313 25.3387C92.9688 25.3387 92.4345 24.8045 92.4345 24.1206C92.4345 23.4794 92.9688 22.9452 93.6313 22.9452C94.2938 22.9452 94.828 23.4794 94.828 24.142ZM94.4433 36.9859C94.4433 37.5201 94.3793 37.6056 93.8236 37.6056H93.3748C92.8406 37.6056 92.7551 37.5415 92.7551 36.9859V28.4375C92.7551 27.9032 92.8192 27.8178 93.3748 27.8178H93.8236C94.3579 27.8178 94.4433 27.8818 94.4433 28.4375V36.9859Z" fill="#797D82"/>
<path d="M102.479 28.1169C102.757 27.8391 102.757 27.8391 103.163 27.8391H103.89C104.317 27.8391 104.488 27.9673 104.488 28.2238C104.488 28.3092 104.403 28.4589 104.21 28.6512L100.834 32.0064L105.087 36.8148C105.258 37.0286 105.343 37.1782 105.343 37.2637C105.343 37.4987 105.151 37.627 104.723 37.627H103.997C103.569 37.627 103.569 37.627 103.313 37.3278L99.6371 33.1818L99.2096 33.6093V37.0286C99.2096 37.5629 99.1456 37.6484 98.5899 37.6484H98.1411C97.6069 37.6484 97.5214 37.5842 97.5214 37.0286V21.0645C97.5214 20.5303 97.5855 20.4448 98.1411 20.4448H98.5899C99.1242 20.4448 99.2096 20.5089 99.2096 21.0645V31.4508L102.479 28.1169Z" fill="#797D82"/>
<path d="M37.4045 27.3266C37.2122 27.5189 36.8917 27.5189 36.6994 27.3266L33.4937 24.1423C33.3014 23.95 33.3014 23.6294 33.4937 23.4371L36.678 20.2528C36.8703 20.0605 37.1908 20.0605 37.3833 20.2528L40.5675 23.4371C40.7598 23.6294 40.7598 23.95 40.5675 24.1423L37.4045 27.3266Z" fill="url(#paint0_linear_35_59)"/>
<path d="M37.4058 43.2473C37.2135 43.4397 36.8929 43.4397 36.7006 43.2473L33.5163 40.0631C33.324 39.8707 33.324 39.5502 33.5163 39.3578L36.7006 36.1736C36.8929 35.9812 37.2135 35.9812 37.4058 36.1736L40.5901 39.3578C40.7824 39.5502 40.7824 39.8707 40.5901 40.0631L37.4058 43.2473Z" fill="url(#paint1_linear_35_59)"/>
<path d="M45.3548 35.2766C45.1625 35.469 44.8419 35.469 44.6496 35.2766L41.4653 32.0924C41.273 31.9001 41.273 31.5795 41.4653 31.3871L44.6496 28.2029C44.8419 28.0105 45.1625 28.0105 45.3548 28.2029L48.5391 31.3871C48.7314 31.5795 48.7314 31.9001 48.5391 32.0924L45.3548 35.2766Z" fill="url(#paint2_linear_35_59)"/>
<path d="M33.0448 40.2767C33.0448 39.9989 32.8951 39.9348 32.6815 40.1271L31.271 41.5376C31.0786 41.73 31.1214 42.0078 31.3564 42.136L32.5746 42.713C32.831 42.8198 33.0448 42.6703 33.0448 42.3925V40.2767Z" fill="url(#paint3_linear_35_59)"/>
<path d="M42.7263 42.136C42.9614 42.0078 43.0042 41.73 42.8117 41.5376L41.4013 40.1271C41.209 39.9348 41.038 39.9989 41.038 40.2767V42.4138C41.038 42.6917 41.2518 42.8199 41.5082 42.7343L42.7263 42.136Z" fill="url(#paint4_linear_35_59)"/>
<path d="M44.9283 36.2379C44.9283 35.9601 44.6931 35.725 44.4153 35.725H41.5303C41.2525 35.725 41.0173 35.9601 41.0173 36.2379V39.1016C41.0173 39.3794 41.2525 39.6145 41.5303 39.6145H44.4153C44.6931 39.6145 44.9283 39.3794 44.9283 39.1016V36.2379Z" fill="url(#paint5_linear_35_59)"/>
<path d="M47.4499 26.0661C47.3217 25.831 47.0439 25.7883 46.8515 25.9806L45.4411 27.3911C45.2488 27.5834 45.3128 27.7544 45.5906 27.7544H47.7277C48.0056 27.7544 48.1338 27.5407 48.0483 27.2842L47.4499 26.0661Z" fill="url(#paint6_linear_35_59)"/>
<path d="M42.8117 21.9409C43.0042 21.7486 42.9614 21.4707 42.7263 21.3425L41.5082 20.7655C41.2518 20.6587 41.038 20.8082 41.038 21.086V23.2231C41.038 23.5009 41.1876 23.5651 41.4013 23.3728L42.8117 21.9409Z" fill="url(#paint7_linear_35_59)"/>
<path d="M27.2327 25.9806C27.0404 25.7883 26.7626 25.831 26.6343 26.0661L26.0573 27.2842C25.9505 27.5407 26.1001 27.7544 26.3779 27.7544H28.515C28.7928 27.7544 28.8569 27.6048 28.6646 27.3911L27.2327 25.9806Z" fill="url(#paint8_linear_35_59)"/>
<path d="M33.0447 24.3772C33.0447 24.0994 32.8096 23.8644 32.5318 23.8644H29.6681C29.3903 23.8644 29.1552 24.0994 29.1552 24.3772V27.241C29.1552 27.5188 29.3903 27.7538 29.6681 27.7538H32.5532C32.831 27.7538 33.0661 27.5188 33.0661 27.241V24.3772H33.0447Z" fill="url(#paint9_linear_35_59)"/>
<path d="M33.0448 21.0648C33.0448 20.787 32.831 20.6587 32.5746 20.7443L31.3564 21.3213C31.1214 21.4494 31.0786 21.7272 31.271 21.9196L32.6815 23.3301C32.8738 23.5225 33.0448 23.4583 33.0448 23.1805V21.0648Z" fill="url(#paint10_linear_35_59)"/>
<path d="M48.0272 36.1951C48.1341 35.9387 47.9844 35.725 47.7066 35.725H45.5695C45.2917 35.725 45.2276 35.8746 45.42 36.0882L46.8304 37.4988C47.0227 37.6911 47.3007 37.6483 47.4288 37.4133L48.0272 36.1951Z" fill="url(#paint11_linear_35_59)"/>
<path d="M33.0447 36.2379C33.0447 35.9601 32.8096 35.725 32.5318 35.725H29.6681C29.3903 35.725 29.1552 35.9601 29.1552 36.2379V39.1016C29.1552 39.3794 29.3903 39.6145 29.6681 39.6145H32.5532C32.831 39.6145 33.0661 39.3794 33.0661 39.1016V36.2379H33.0447Z" fill="url(#paint12_linear_35_59)"/>
<path d="M28.6443 36.0882C28.8367 35.8959 28.7725 35.725 28.4947 35.725H26.3576C26.0798 35.725 25.9516 35.9387 26.0371 36.1951L26.6141 37.4133C26.7423 37.6483 27.0202 37.6911 27.2125 37.4988L28.6443 36.0882Z" fill="url(#paint13_linear_35_59)"/>
<path d="M44.9283 27.241C44.9283 27.5188 44.6931 27.7538 44.4153 27.7538H41.5303C41.2525 27.7538 41.0173 27.5188 41.0173 27.241V24.3772C41.0173 24.0994 41.2525 23.8644 41.5303 23.8644H44.4153C44.6931 23.8644 44.9283 24.0994 44.9283 24.3772V27.241Z" fill="url(#paint14_linear_35_59)"/>
<path d="M29.455 35.2765C29.2627 35.4688 28.9421 35.4688 28.7498 35.2765L25.5441 32.0922C25.3518 31.8999 25.3518 31.5793 25.5441 31.3869L28.7284 28.2027C28.9207 27.9889 29.2413 27.9889 29.455 28.2027L32.6393 31.3869C32.8316 31.5793 32.8316 31.8999 32.6393 32.0922L29.455 35.2765Z" fill="url(#paint15_linear_35_59)"/>
</g>
<defs>
<linearGradient id="paint0_linear_35_59" x1="33.0689" y1="19.8136" x2="48.9842" y2="35.7289" gradientUnits="userSpaceOnUse">
<stop stop-color="#00B482"/>
<stop offset="0.216" stop-color="#00B19E"/>
<stop offset="0.559" stop-color="#00ADC6"/>
<stop offset="0.8324" stop-color="#00ABDE"/>
<stop offset="1" stop-color="#00AAE7"/>
</linearGradient>
<linearGradient id="paint1_linear_35_59" x1="25.1105" y1="27.7727" x2="41.0257" y2="43.6879" gradientUnits="userSpaceOnUse">
<stop stop-color="#00B482"/>
<stop offset="0.216" stop-color="#00B19E"/>
<stop offset="0.559" stop-color="#00ADC6"/>
<stop offset="0.8324" stop-color="#00ABDE"/>
<stop offset="1" stop-color="#00AAE7"/>
</linearGradient>
<linearGradient id="paint2_linear_35_59" x1="33.0722" y1="19.8106" x2="48.9875" y2="35.7258" gradientUnits="userSpaceOnUse">
<stop stop-color="#00B482"/>
<stop offset="0.216" stop-color="#00B19E"/>
<stop offset="0.559" stop-color="#00ADC6"/>
<stop offset="0.8324" stop-color="#00ABDE"/>
<stop offset="1" stop-color="#00AAE7"/>
</linearGradient>
<linearGradient id="paint3_linear_35_59" x1="21.9757" y1="30.906" x2="37.891" y2="46.8213" gradientUnits="userSpaceOnUse">
<stop stop-color="#00B482"/>
<stop offset="0.216" stop-color="#00B19E"/>
<stop offset="0.559" stop-color="#00ADC6"/>
<stop offset="0.8324" stop-color="#00ABDE"/>
<stop offset="1" stop-color="#00AAE7"/>
</linearGradient>
<linearGradient id="paint4_linear_35_59" x1="26.3739" y1="26.5084" x2="42.2891" y2="42.4237" gradientUnits="userSpaceOnUse">
<stop stop-color="#00B482"/>
<stop offset="0.216" stop-color="#00B19E"/>
<stop offset="0.559" stop-color="#00ADC6"/>
<stop offset="0.8324" stop-color="#00ABDE"/>
<stop offset="1" stop-color="#00AAE7"/>
</linearGradient>
<linearGradient id="paint5_linear_35_59" x1="29.0973" y1="23.786" x2="45.0125" y2="39.7013" gradientUnits="userSpaceOnUse">
<stop stop-color="#00B482"/>
<stop offset="0.216" stop-color="#00B19E"/>
<stop offset="0.559" stop-color="#00ADC6"/>
<stop offset="0.8324" stop-color="#00ABDE"/>
<stop offset="1" stop-color="#00AAE7"/>
</linearGradient>
<linearGradient id="paint6_linear_35_59" x1="36.2145" y1="16.6694" x2="52.1298" y2="32.5846" gradientUnits="userSpaceOnUse">
<stop stop-color="#00B482"/>
<stop offset="0.216" stop-color="#00B19E"/>
<stop offset="0.559" stop-color="#00ADC6"/>
<stop offset="0.8324" stop-color="#00ABDE"/>
<stop offset="1" stop-color="#00AAE7"/>
</linearGradient>
<linearGradient id="paint7_linear_35_59" x1="36.2123" y1="16.6704" x2="52.1276" y2="32.5855" gradientUnits="userSpaceOnUse">
<stop stop-color="#00B482"/>
<stop offset="0.216" stop-color="#00B19E"/>
<stop offset="0.559" stop-color="#00ADC6"/>
<stop offset="0.8324" stop-color="#00ABDE"/>
<stop offset="1" stop-color="#00AAE7"/>
</linearGradient>
<linearGradient id="paint8_linear_35_59" x1="26.3688" y1="26.5149" x2="42.284" y2="42.4301" gradientUnits="userSpaceOnUse">
<stop stop-color="#00B482"/>
<stop offset="0.216" stop-color="#00B19E"/>
<stop offset="0.559" stop-color="#00ADC6"/>
<stop offset="0.8324" stop-color="#00ABDE"/>
<stop offset="1" stop-color="#00AAE7"/>
</linearGradient>
<linearGradient id="paint9_linear_35_59" x1="29.0915" y1="23.7906" x2="45.0067" y2="39.7059" gradientUnits="userSpaceOnUse">
<stop stop-color="#00B482"/>
<stop offset="0.216" stop-color="#00B19E"/>
<stop offset="0.559" stop-color="#00ADC6"/>
<stop offset="0.8324" stop-color="#00ABDE"/>
<stop offset="1" stop-color="#00AAE7"/>
</linearGradient>
<linearGradient id="paint10_linear_35_59" x1="31.8143" y1="21.068" x2="47.7295" y2="36.9832" gradientUnits="userSpaceOnUse">
<stop stop-color="#00B482"/>
<stop offset="0.216" stop-color="#00B19E"/>
<stop offset="0.559" stop-color="#00ADC6"/>
<stop offset="0.8324" stop-color="#00ABDE"/>
<stop offset="1" stop-color="#00AAE7"/>
</linearGradient>
<linearGradient id="paint11_linear_35_59" x1="31.8212" y1="21.0623" x2="47.7365" y2="36.9775" gradientUnits="userSpaceOnUse">
<stop stop-color="#00B482"/>
<stop offset="0.216" stop-color="#00B19E"/>
<stop offset="0.559" stop-color="#00ADC6"/>
<stop offset="0.8324" stop-color="#00ABDE"/>
<stop offset="1" stop-color="#00AAE7"/>
</linearGradient>
<linearGradient id="paint12_linear_35_59" x1="23.163" y1="29.719" x2="39.0782" y2="45.6342" gradientUnits="userSpaceOnUse">
<stop stop-color="#00B482"/>
<stop offset="0.216" stop-color="#00B19E"/>
<stop offset="0.559" stop-color="#00ADC6"/>
<stop offset="0.8324" stop-color="#00ABDE"/>
<stop offset="1" stop-color="#00AAE7"/>
</linearGradient>
<linearGradient id="paint13_linear_35_59" x1="21.9762" y1="30.9077" x2="37.8914" y2="46.823" gradientUnits="userSpaceOnUse">
<stop stop-color="#00B482"/>
<stop offset="0.216" stop-color="#00B19E"/>
<stop offset="0.559" stop-color="#00ADC6"/>
<stop offset="0.8324" stop-color="#00ABDE"/>
<stop offset="1" stop-color="#00AAE7"/>
</linearGradient>
<linearGradient id="paint14_linear_35_59" x1="35.0258" y1="17.8577" x2="50.941" y2="33.7729" gradientUnits="userSpaceOnUse">
<stop stop-color="#00B482"/>
<stop offset="0.216" stop-color="#00B19E"/>
<stop offset="0.559" stop-color="#00ADC6"/>
<stop offset="0.8324" stop-color="#00ABDE"/>
<stop offset="1" stop-color="#00AAE7"/>
</linearGradient>
<linearGradient id="paint15_linear_35_59" x1="25.1165" y1="27.7664" x2="41.0316" y2="43.6816" gradientUnits="userSpaceOnUse">
<stop stop-color="#00B482"/>
<stop offset="0.216" stop-color="#00B19E"/>
<stop offset="0.559" stop-color="#00ADC6"/>
<stop offset="0.8324" stop-color="#00ABDE"/>
<stop offset="1" stop-color="#00AAE7"/>
</linearGradient>
<clipPath id="clip0_35_59">
<rect width="126.16" height="63.08" fill="white" transform="scale(1.00666)"/>
</clipPath>
</defs>
</svg>
