<svg width="175" height="70" viewBox="0 0 175 70" fill="none" xmlns="http://www.w3.org/2000/svg">
<g clip-path="url(#clip0_35_410)">
<path d="M175 0H0V70H175V0Z" fill="white"/>
<path d="M71.4067 42.1167L72.5626 39.4404C73.8116 40.3697 75.4707 40.8529 77.1113 40.8529C78.323 40.8529 79.0873 40.3882 79.0873 39.682C79.0687 37.712 71.8355 39.2546 71.7796 34.311C71.7609 31.802 73.998 29.8691 77.1672 29.8691C79.05 29.8691 80.9329 30.3338 82.2751 31.3931L81.1939 34.1251C79.9635 33.3445 78.4349 32.787 76.9808 32.787C75.9927 32.787 75.3402 33.2516 75.3402 33.8463C75.3589 35.7792 82.648 34.7198 82.7226 39.4404C82.7226 42.0051 80.5414 43.8079 77.4095 43.8079C75.1165 43.8079 73.01 43.2689 71.4067 42.1167ZM115.757 38.474C115.162 39.5169 114.052 40.1622 112.848 40.1652C111.003 40.1652 109.511 38.6784 109.511 36.8385C109.511 34.9986 111.003 33.5118 112.848 33.5118C114.052 33.5149 115.162 34.1602 115.757 35.203L118.944 33.4375C117.707 31.2388 115.377 29.8752 112.848 29.8691C108.989 29.8691 105.858 32.9914 105.858 36.8385C105.858 40.6856 108.989 43.8079 112.848 43.8079C115.477 43.8079 117.751 42.3768 118.944 40.2396L115.757 38.474Z" fill="black"/>
<path d="M88.3151 24.0898H84.3257V43.5483H88.3151V24.0898Z" fill="black"/>
<path d="M120.51 24.0898V43.5483H124.5V37.7126L129.235 43.5483H134.343L128.321 36.6161L133.895 30.1486H129.011L124.5 35.5196V24.0898H120.51Z" fill="black"/>
<path d="M100.172 38.5112C99.5937 39.459 98.4006 40.1652 97.0583 40.1652C95.2128 40.1652 93.7214 38.6784 93.7214 36.8385C93.7214 34.9986 95.2128 33.5118 97.0583 33.5118C98.4006 33.5118 99.5937 34.2552 100.172 35.2216V38.5112ZM100.172 30.1479V31.7276C99.5191 30.6311 97.8972 29.8691 96.2008 29.8691C92.6961 29.8691 89.937 32.9543 89.937 36.8199C89.937 40.6856 92.6961 43.8079 96.2008 43.8079C97.8972 43.8079 99.5191 43.0459 100.172 41.9494V43.5291H104.161V30.1479H100.172Z" fill="black"/>
<path d="M46.7428 38.4933C46.7428 39.85 45.6429 40.9465 44.2821 40.9465C42.9212 40.9465 41.8213 39.85 41.8213 38.4933C41.8213 37.1366 42.9212 36.04 44.2821 36.04H46.7428V38.4933ZM47.9732 38.4933C47.9732 37.1366 49.0731 36.04 50.434 36.04C51.7949 36.04 52.8948 37.1366 52.8948 38.4933V44.6263C52.8948 45.983 51.7949 47.0795 50.434 47.0795C49.0731 47.0795 47.9732 45.983 47.9732 44.6263V38.4933Z" fill="#E01E5A"/>
<path d="M50.4341 28.6428C49.0732 28.6428 47.9733 27.5463 47.9733 26.1895C47.9733 24.8328 49.0732 23.7363 50.4341 23.7363C51.795 23.7363 52.8949 24.8328 52.8949 26.1895V28.6428H50.4341ZM50.4341 29.888C51.795 29.888 52.8949 30.9845 52.8949 32.3412C52.8949 33.6979 51.795 34.7944 50.4341 34.7944H44.2635C42.9026 34.7944 41.8027 33.6979 41.8027 32.3412C41.8027 30.9845 42.9026 29.888 44.2635 29.888H50.4341Z" fill="#36C5F0"/>
<path d="M60.296 32.3412C60.296 30.9845 61.3959 29.888 62.7567 29.888C64.1176 29.888 65.2175 30.9845 65.2175 32.3412C65.2175 33.6979 64.1176 34.7944 62.7567 34.7944H60.296V32.3412ZM59.0656 32.3412C59.0656 33.6979 57.9657 34.7944 56.6048 34.7944C55.2439 34.7944 54.144 33.6979 54.144 32.3412V26.1895C54.144 24.8328 55.2439 23.7363 56.6048 23.7363C57.9657 23.7363 59.0656 24.8328 59.0656 26.1895V32.3412Z" fill="#2EB67D"/>
<path d="M56.6048 42.1731C57.9657 42.1731 59.0656 43.2696 59.0656 44.6263C59.0656 45.983 57.9657 47.0795 56.6048 47.0795C55.2439 47.0795 54.144 45.983 54.144 44.6263V42.1731H56.6048ZM56.6048 40.9465C55.2439 40.9465 54.144 39.85 54.144 38.4933C54.144 37.1366 55.2439 36.04 56.6048 36.04H62.7754C64.1363 36.04 65.2362 37.1366 65.2362 38.4933C65.2362 39.85 64.1363 40.9465 62.7754 40.9465H56.6048Z" fill="#ECB22E"/>
</g>
<defs>
<clipPath id="clip0_35_410">
<rect width="175" height="70" fill="white"/>
</clipPath>
</defs>
</svg>
