<svg width="127" height="64" viewBox="0 0 127 64" fill="none" xmlns="http://www.w3.org/2000/svg">
<g clip-path="url(#clip0_35_45)">
<path d="M127 0H0V63.4999H127V0Z" fill="white"/>
<path d="M42.0553 43.185C44.1045 40.7855 41.8787 35.5207 37.0839 31.4257C32.289 27.3308 26.7407 25.9563 24.6913 28.3559C22.6421 30.7554 24.8679 36.0203 29.6627 40.1152C34.4577 44.2102 40.006 45.5846 42.0553 43.185Z" fill="#0099F8"/>
<path d="M43.8166 21.5345C43.6278 22.5762 43.451 23.6199 43.2453 24.6586C43.0985 25.4026 42.622 25.7861 41.858 25.7941C40.7724 25.8052 39.6858 25.8052 38.6002 25.7921C38.3225 25.7892 38.2096 25.866 38.1626 26.1557C37.7093 28.9691 37.2399 31.7795 36.7735 34.5901C36.6556 35.2991 36.5377 36.0093 36.4039 36.7163C36.2391 37.5863 35.7957 37.9578 34.9147 37.9627C33.7282 37.9697 32.5408 37.9658 31.3543 37.9627C31.2314 37.9627 31.1076 37.9438 30.9138 37.9278C31.6579 33.8799 32.396 29.87 33.143 25.8052C31.4351 25.8052 29.7633 25.8052 28.0414 25.8052C28.1903 24.9861 28.3281 24.2231 28.4669 23.4601C28.4938 23.3113 28.5368 23.1644 28.5508 23.0146C28.6277 22.1987 29.0522 21.6953 29.8651 21.5335C34.5163 21.5345 39.1664 21.5345 43.8166 21.5345Z" fill="#001E82"/>
<path d="M62.5428 21.5345C62.0233 24.4917 61.5051 27.448 60.9847 30.4052C60.5692 32.7653 60.1507 35.1253 59.7322 37.4843C59.7083 37.6182 59.6764 37.751 59.6463 37.8939C58.1363 37.8939 56.6491 37.8939 55.1081 37.8939C55.226 37.2067 55.3368 36.5415 55.4547 35.8784C56.1258 32.0772 56.797 28.2769 57.4691 24.4757C57.6429 23.495 57.8187 22.5142 57.9945 21.5345C59.5096 21.5345 61.0256 21.5345 62.5428 21.5345Z" fill="#001E82"/>
<path d="M102.363 26.5523C102.448 26.1567 102.527 25.7782 102.613 25.3777C103.952 25.3777 105.284 25.3777 106.686 25.3777C106.623 25.7812 106.569 26.1717 106.5 26.5611C105.85 30.2486 105.199 33.9359 104.537 37.6203C104.518 37.7281 104.378 37.8959 104.292 37.8969C103.095 37.9148 101.896 37.9089 100.643 37.9089C100.705 37.4894 100.763 37.0989 100.832 36.6355C100.718 36.7373 100.647 36.7913 100.587 36.8572C98.8061 38.7998 95.7869 38.4852 94.1799 36.6435C93.371 35.7167 92.9246 34.6241 92.8276 33.4166C92.6569 31.2922 93.0583 29.2918 94.3407 27.5369C95.7979 25.5414 98.2968 24.6576 100.53 25.3437C100.875 25.4496 101.212 25.6154 101.514 25.8142C101.811 26.0109 102.06 26.2835 102.363 26.5523ZM97.304 32.1532C97.311 32.241 97.3149 32.329 97.327 32.4168C97.4348 33.2328 97.7734 33.9109 98.5954 34.1856C99.4184 34.4602 100.15 34.2006 100.717 33.5684C101.429 32.7733 101.622 31.8126 101.445 30.7808C101.304 29.9599 100.868 29.3406 100.024 29.145C99.1697 28.9472 98.4555 29.2438 97.9262 29.9429C97.4328 30.5951 97.3 31.3572 97.304 32.1532Z" fill="#001E82"/>
<path d="M46.2612 32.7555C46.1734 34.1548 47.4527 35.0367 48.819 34.5233C49.2026 34.3794 49.5102 34.0399 49.8648 33.8083C49.9556 33.7482 50.0935 33.7263 50.2043 33.7392C50.2952 33.7493 50.378 33.8351 50.4649 33.8871C51.3709 34.4345 52.2767 34.9827 53.2075 35.545C52.812 36.2581 52.2727 36.8014 51.6195 37.2509C49.64 38.6152 45.5382 38.6581 43.5207 36.6526C42.4501 35.5879 41.8619 34.2936 41.7949 32.8064C41.705 30.8089 42.2673 28.9843 43.5526 27.4263C44.7312 25.9981 46.2853 25.278 48.1129 25.0982C49.2365 24.9883 50.3402 25.0633 51.3798 25.5166C53.4252 26.4096 54.432 28.0365 54.5637 30.2247C54.6148 31.0657 54.5618 31.9087 54.3301 32.7546C51.6375 32.7555 48.9628 32.7555 46.2612 32.7555ZM46.5829 30.2837C47.8113 30.2837 49.0407 30.2837 50.2662 30.2837C50.3062 29.3669 49.7898 28.7466 48.9489 28.6517C47.7383 28.5159 46.7686 29.187 46.5829 30.2837Z" fill="#001E82"/>
<path d="M61.9404 34.4639C63.2647 34.1783 64.5441 33.9016 65.8514 33.62C66.0542 34.3021 66.4467 34.7955 67.1548 34.9144C67.4694 34.9673 67.8109 34.9533 68.1256 34.8954C68.5031 34.8255 68.7478 34.5738 68.7707 34.1603C68.7917 33.7789 68.6269 33.5061 68.1925 33.3803C67.5394 33.1905 66.8702 33.0597 66.209 32.895C65.8424 32.804 65.4719 32.7172 65.1164 32.5904C63.071 31.8622 62.4367 30.2912 63.049 28.3017C63.4575 26.9724 64.4083 26.0925 65.6707 25.5852C67.3965 24.8921 69.1673 24.8401 70.9231 25.4753C72.3902 26.0056 73.2881 27.0583 73.6006 28.6663C72.2824 28.9439 70.971 29.2205 69.6526 29.4982C69.5698 29.3404 69.5059 29.2046 69.4309 29.0758C69.0224 28.3737 68.1726 28.095 67.4275 28.4216C67.0849 28.5714 66.8761 28.823 66.8871 29.2106C66.8972 29.5851 67.1448 29.7868 67.4694 29.8677C68.2654 30.0635 69.0674 30.2323 69.8664 30.414C70.7423 30.6128 71.5642 30.9254 72.1795 31.6155C73.1533 32.7082 73.2121 34.6737 72.3302 36.043C71.6312 37.1276 70.5945 37.7109 69.372 37.9865C67.5214 38.404 65.7056 38.3311 63.9888 37.4392C62.9112 36.8799 62.2021 36.016 61.9764 34.7975C61.9584 34.6996 61.9543 34.5988 61.9404 34.4639Z" fill="#001E82"/>
<path d="M76.2294 22.3077C77.7165 22.3077 79.1787 22.3077 80.6967 22.3077C80.5349 23.3154 80.3762 24.3032 80.2094 25.3409C81.1332 25.3409 82.0351 25.3409 82.9898 25.3409C82.8261 26.2727 82.6773 27.1506 82.5164 28.0265C82.4605 28.3331 82.4725 28.7526 82.2817 28.9054C82.0849 29.0622 81.6785 28.9603 81.3639 28.9633C80.8585 28.9673 80.3532 28.9743 79.8488 28.9603C79.6381 28.9543 79.5591 29.0422 79.5282 29.235C79.3794 30.1688 79.2116 31.0997 79.0748 32.0354C78.875 33.4067 79.5892 34.1878 80.9783 34.1408C81.1162 34.1358 81.253 34.1398 81.4468 34.1398C81.3729 34.5842 81.3029 35.0247 81.2271 35.4641C81.1132 36.1223 80.9783 36.7785 80.8865 37.4396C80.8396 37.7772 80.7147 37.932 80.3552 37.9589C79.2186 38.0439 78.111 37.969 77.0533 37.5055C75.3295 36.7505 74.3078 35.1355 74.4556 33.1999C74.5495 31.9715 74.7832 30.7531 74.9849 29.5356C75.3765 27.1726 75.7889 24.8125 76.1934 22.4515C76.2004 22.4136 76.2124 22.3776 76.2294 22.3077Z" fill="#001E82"/>
<path d="M82.9907 37.908C83.1676 36.8883 83.3303 35.9315 83.4991 34.9767C84.0444 31.8836 84.5967 28.7915 85.1331 25.6964C85.18 25.4267 85.2738 25.3428 85.5435 25.3459C86.6791 25.3598 87.8147 25.3518 88.9882 25.3518C88.9363 25.7923 88.8893 26.1988 88.8274 26.7231C89.3607 26.012 89.9709 25.5895 90.711 25.3608C91.4371 25.1371 92.1692 25.1071 92.9611 25.3088C92.6795 26.7281 92.4019 28.1324 92.1242 29.5316C91.7048 29.5316 91.3103 29.4816 90.9327 29.5406C89.7152 29.7303 88.8214 30.6621 88.6156 31.8746C88.2901 33.7902 87.9575 35.7038 87.6169 37.6164C87.5979 37.7232 87.4781 37.894 87.4032 37.895C85.953 37.912 84.5019 37.908 82.9907 37.908Z" fill="#001E82"/>
</g>
<defs>
<clipPath id="clip0_35_45">
<rect width="126.16" height="63.08" fill="white" transform="scale(1.00666)"/>
</clipPath>
</defs>
</svg>
