<svg width="175" height="70" viewBox="0 0 175 70" fill="none" xmlns="http://www.w3.org/2000/svg">
<g clip-path="url(#clip0_35_456)">
<path d="M175 0H0V70H175V0Z" fill="white"/>
<g opacity="0.903929">
<path d="M53.7113 27.8542H66.2289C67.3806 27.8542 68.3152 28.7927 68.3152 29.9505V42.5286C68.3152 43.6858 67.3811 44.625 66.2289 44.625H53.7113C52.5597 44.625 51.625 43.6863 51.625 42.5286V29.9505C51.625 28.7933 52.5591 27.8542 53.7113 27.8542ZM62.0561 30.0344C61.5031 30.0344 61.055 30.4848 61.055 31.0411V36.4068C61.055 36.9627 61.5033 37.4135 62.0561 37.4135H65.1443C65.6973 37.4135 66.1455 36.9631 66.1455 36.4068V31.0411C66.1455 30.4852 65.6971 30.0344 65.1443 30.0344H62.0561ZM54.7959 30.0344C54.2429 30.0344 53.7947 30.4844 53.7947 31.041V40.5996C53.7947 41.1555 54.2431 41.6062 54.7959 41.6062H57.8841C58.437 41.6062 58.8852 41.1562 58.8852 40.5996V31.041C58.8852 30.4851 58.4369 30.0344 57.8841 30.0344H54.7959ZM108.818 39.5823C107.735 40.0241 106.881 41.5509 105.581 42.4188C105.501 42.4725 105.42 42.4995 105.366 42.4995C105.259 42.4995 105.125 42.3918 105.125 41.9076C105.125 40.2394 105.662 39.4323 106.118 38.2485C107.703 34.132 110.416 30.6076 112.834 26.76C113.022 26.4641 113.13 26.1413 113.13 25.7915C113.13 25.4956 113.022 25.2534 112.888 24.9575C112.78 24.7152 112.297 24.5 111.76 24.5C111.464 24.5 111.195 24.5269 110.846 24.5269C109.584 24.5269 109.315 26.3834 109.02 26.8675C107.005 30.2846 104.695 34.5087 103.513 37.4951C103.253 38.1646 102.973 38.8341 102.761 39.5212C101.593 39.8601 100.718 41.5049 99.3489 42.4189C99.2683 42.4726 99.1878 42.4996 99.134 42.4996C99.0266 42.4996 98.8923 42.3919 98.8923 41.9077C98.8923 40.2395 99.4295 39.4324 99.8861 38.2486C101.471 34.1321 104.184 30.6076 106.602 26.7601C106.79 26.4642 106.897 26.1414 106.897 25.7916C106.897 25.4957 106.79 25.2535 106.656 24.9576C106.548 24.7152 106.065 24.5 105.527 24.5C105.232 24.5 104.963 24.5269 104.614 24.5269C103.352 24.5269 103.083 26.3834 102.787 26.8675C100.773 30.2846 98.4625 34.5087 97.2806 37.4951C97.1866 37.7378 97.09 37.9805 96.9946 38.2241C96.9653 38.2398 96.9353 38.2569 96.9045 38.2754C95.5345 39.0826 94.3793 40.5085 92.714 41.4772C92.3916 41.6654 91.3976 42.3649 90.5917 42.3649C90.4037 42.3649 90.2425 42.3112 90.0813 42.2304C89.8396 42.1229 89.5978 41.6117 89.5978 41.4502C89.5978 41.3157 89.6247 41.2889 89.8933 41.1273C92.2574 39.7014 94.1913 37.6566 95.8569 35.6118C96.4747 34.8585 97.2806 33.3787 97.2806 32.3025C97.2806 31.603 97.0389 30.7959 96.2061 30.4999C95.615 30.2847 94.9435 30.1771 94.4063 30.1771C92.9826 30.1771 91.9349 30.8228 91.3439 31.4415C90.7422 32.0849 90.1603 32.7454 89.6196 33.4293C89.0546 32.9407 88.2578 32.7329 87.5024 32.7329C86.616 32.7329 84.9504 33.8361 84.0908 34.4818C83.9565 34.5894 83.8759 34.6431 83.8222 34.6431C83.7954 34.6431 83.7685 34.6163 83.7685 34.5625C83.7685 34.5355 83.8222 34.2934 83.8222 33.8629C83.8222 33.4863 83.7416 33.002 83.3924 32.4101C83.3119 32.2754 82.8283 31.9795 82.2373 31.9795C81.5119 31.9795 80.8404 32.3294 80.8404 32.7059C80.8404 32.975 81.082 33.0826 81.082 33.3247C81.082 33.4592 80.9747 34.078 80.8135 34.67C80.3567 36.392 79.7926 38.0869 79.2016 39.7819C78.8793 40.7236 77.8047 41.5578 77.8047 42.5801C77.8047 42.9028 78.0197 43.3334 78.3152 43.6563C78.7987 44.1944 79.0942 44.3827 79.5239 44.3827C79.712 44.3827 79.9269 44.3289 80.115 44.1675C80.5179 43.8178 80.7328 43.468 80.8403 42.9838C81.5387 39.8089 83.5534 37.6565 85.783 36.2306C86.5351 35.7463 87.556 35.2351 87.6903 35.2351C87.828 35.2351 88.0434 35.2988 88.2605 35.3608C87.6372 36.3791 87.1322 37.4527 86.8037 38.5982C86.6964 38.9749 86.6426 39.3247 86.6426 39.7014C86.6426 40.3201 86.7769 40.966 86.992 41.5847C87.2874 42.4457 87.7709 43.199 88.4424 43.5487C89.6782 44.1945 90.5646 44.5442 91.3704 44.5442C91.8272 44.5442 92.1764 44.4636 92.5524 44.2483C94.3181 43.2478 95.4007 42.4887 96.1822 41.8146C96.2037 42.4982 96.3382 42.8769 96.8237 43.3874C97.3072 43.8987 98.0593 44.3559 99.0533 44.5713C99.2144 44.5982 99.3757 44.625 99.5368 44.625C100.674 44.625 101.768 43.6993 102.612 42.7816C102.71 42.9818 102.852 43.1731 103.056 43.3874C103.539 43.8987 104.292 44.3559 105.285 44.5713C105.447 44.5982 105.608 44.625 105.769 44.625C107.101 44.625 108.374 43.3547 109.255 42.315C109.549 42.9232 110.369 43.5243 111.356 44.0062C111.625 44.1407 111.947 44.2214 112.243 44.2214C113.398 44.2214 114.231 43.2797 114.875 42.5803C116.541 40.7507 117.454 38.4907 118.153 35.6387C118.207 35.4235 118.287 35.3428 118.395 35.3428C118.663 35.3428 119.012 35.3428 119.389 35.289C120.114 35.1814 120.678 34.9391 121.35 34.8316C121.752 34.7509 121.699 34.6165 122.075 34.4819C122.343 34.3743 122.558 34.2667 122.558 33.9976C122.558 33.5403 121.726 33.0559 120.463 33.0559C119.469 33.0559 118.878 33.1366 118.475 33.1366C117.857 33.1366 117.696 32.9483 117.293 31.899C117.213 31.6838 117.132 31.5762 116.89 31.3609C116.326 30.8767 115.628 30.7152 115.064 30.7152C113.721 30.7152 112.565 32.0875 111.759 33.2444C111.571 33.5134 111.303 33.7286 111.115 34.0246C110.008 35.6871 108.949 37.5616 108.818 39.5823ZM74.4739 30.4191C75.1455 30.4191 75.5216 30.3653 75.6022 30.3653C75.6828 30.3653 75.7365 30.3922 75.7365 30.4729C75.7365 30.5267 75.7096 30.6075 75.5216 31.011C73.8828 34.5355 72.7547 38.114 71.7607 42.0689C71.7338 42.1766 71.6532 42.5802 71.6532 42.9838C71.6532 43.3604 71.7607 43.764 72.1367 43.9791C72.8621 44.4097 73.4531 44.5981 73.856 44.5981C74.4471 44.5981 74.7425 44.2213 74.7425 43.6026C74.7425 43.0645 74.7694 42.4994 74.8499 42.0689C75.602 38.1139 76.7302 35.02 78.4763 31.7913C79.309 30.2577 79.4165 30.177 79.4165 30.0424C79.4165 29.9887 79.3896 29.908 79.336 29.8272C80.4105 29.5852 81.6999 29.4237 82.8818 29.4237C83.0161 29.4237 83.5534 29.612 83.6339 29.6927C83.822 29.8811 84.0101 30.0695 84.3325 30.0695C84.6011 30.0695 85.0577 29.8811 85.2189 29.7735C85.595 29.5044 85.783 29.2085 85.783 28.7242C85.783 28.2668 84.0905 27.1367 82.9087 27.1367C81.458 27.1367 80.1418 27.3251 78.906 27.5673C78.3688 27.6748 76.4346 27.9707 75.0377 27.9707C73.6946 27.9707 73.7751 27.7825 73.2111 27.7825C72.8889 27.7825 72.7276 27.9439 72.5933 28.0784C72.459 28.2129 72.3784 28.751 72.3784 29.2354C72.3784 29.4774 72.3784 29.666 72.5127 29.8273C72.9157 30.3116 73.695 30.4191 74.4739 30.4191ZM94.3794 32.5983C94.3794 32.8406 94.2987 33.002 93.9764 33.5132C93.6542 34.0244 93.7884 34.0244 93.3854 34.5625C92.6064 35.6117 91.6395 36.661 90.3769 37.818C90.0275 38.1409 89.9739 38.1409 89.9202 38.1409C89.8933 38.1409 89.8396 38.114 89.8396 38.0602C89.8396 37.9795 89.8664 37.8718 90.135 37.3069C90.9677 35.558 91.9886 34.401 93.1168 33.2711C93.7347 32.6522 94.1108 32.437 94.2451 32.437C94.3257 32.437 94.3794 32.4639 94.3794 32.5983ZM115.037 33.298C115.064 33.298 115.091 33.3248 115.117 33.3787C115.144 33.4593 115.198 33.54 115.332 33.6477C115.44 33.7284 115.44 34.1051 115.44 34.401C115.44 37.0108 113.962 39.1632 112.512 41.3426C112.189 41.8268 112.001 41.9076 111.84 41.9076C111.706 41.9076 111.491 41.5577 111.41 41.3426C111.303 41.0466 111.276 40.6969 111.276 40.5623C111.276 38.4638 113.264 35.3427 114.58 33.6208C114.795 33.3248 114.956 33.298 115.037 33.298Z" fill="#3E3E58"/>
</g>
</g>
<defs>
<clipPath id="clip0_35_456">
<rect width="175" height="70" fill="white"/>
</clipPath>
</defs>
</svg>
