<svg width="67" height="23" viewBox="0 0 67 23" fill="none" xmlns="http://www.w3.org/2000/svg">
<g clip-path="url(#clip0_35_607)">
<mask id="mask0_35_607" style="mask-type:luminance" maskUnits="userSpaceOnUse" x="0" y="0" width="66" height="23">
<path d="M65.5518 0H0V22.9235H65.5518V0Z" fill="white"/>
</mask>
<g mask="url(#mask0_35_607)">
<path d="M37.5252 22.9225C37.544 22.5849 37.5817 22.2474 37.5817 21.9098C37.5817 16.4443 37.5817 10.9772 37.5817 5.38451C38.4249 5.38451 39.2492 5.36252 40.0688 5.40805C40.1975 5.40805 40.364 5.70952 40.4142 5.89793C40.4974 6.21195 40.4989 6.53853 40.5712 7.11476C42.069 5.39549 43.7961 4.79728 45.7965 5.13799C47.2394 5.38293 48.5238 6.0047 49.502 7.13674C51.6435 9.61597 51.3625 13.7202 49.7359 15.733C49.1994 16.4115 48.5214 16.9649 47.749 17.3543C46.9768 17.7437 46.1287 17.9599 45.2642 17.9877C43.5371 18.0819 41.9403 17.6564 40.6669 16.3202V22.9225H37.5252ZM44.4792 7.9422C42.5668 7.73809 40.7925 9.247 40.8255 11.5142C40.8554 13.5883 42.2386 15.1663 44.564 15.1458C46.1341 15.1317 47.1452 14.287 47.8612 13.0528C48.1139 12.618 48.0983 11.9915 48.0999 11.4514C48.103 9.32387 46.6396 7.92493 44.4792 7.9422Z" fill="#0569FF"/>
<path d="M52.128 22.9233C52.1484 22.5857 52.1845 22.2481 52.1861 21.9106C52.1861 16.6805 52.194 11.4505 52.1704 6.22048C52.1704 5.59244 52.3274 5.27842 52.9963 5.36634C53.1009 5.37342 53.2058 5.37342 53.3102 5.36634C54.8882 5.36634 54.8882 5.36634 55.1332 6.93645C55.2509 6.87364 55.3828 6.84538 55.4472 6.7653C56.9577 4.79797 60.3569 4.6912 62.4875 5.92687C66.4018 8.19567 66.3971 14.0584 63.4516 16.5879C61.9427 17.8816 59.0035 18.4406 57.2057 17.5912C56.5243 17.2677 55.8822 16.8626 55.1143 16.4355V22.9233H52.128ZM59.0365 7.93661C58.5871 7.89763 58.1345 7.9492 57.7053 8.08825C57.2763 8.22731 56.8795 8.45101 56.5384 8.74615C56.1972 9.04128 55.9188 9.40184 55.7196 9.80646C55.5203 10.2111 55.4041 10.6516 55.3781 11.102C55.3137 13.4948 56.7269 15.0743 58.7679 15.145C61.332 15.2328 62.6273 13.4633 62.6445 11.5589C62.6681 9.47845 61.4371 7.92247 59.0349 7.93661H59.0365Z" fill="#0569FF"/>
<path d="M14.602 -0.000976645C14.5831 0.70243 14.514 1.41211 14.558 2.11081C14.602 2.80951 14.3335 2.96652 13.7054 2.9414C12.4494 2.90057 11.1933 2.92569 9.93716 2.91785C8.88678 2.90999 8.88837 2.90685 8.88996 3.93684C8.88996 8.22845 8.89253 12.5201 8.89775 16.8117V17.6329H5.71047V16.7568C5.71047 12.439 5.69634 8.12117 5.72617 3.80495C5.72617 3.12981 5.56916 2.88174 4.85947 2.90999C3.24069 2.97751 1.62035 2.96494 0 2.98379V0.0005902L14.602 -0.000976645Z" fill="#0569FF"/>
<path d="M26.0041 12.5029C26.2412 14.183 27.3089 15.037 29.1317 15.2977C30.6406 15.5144 31.9579 14.9272 33.214 14.599L35.1688 16.1267C34.2739 16.6245 33.6065 17.1253 32.8608 17.4095C30.2528 18.3735 27.7139 18.3092 25.3368 16.6857C23.8373 15.6604 23.2109 14.1029 23.0224 12.4323C22.7446 9.94993 23.3443 7.69058 25.5174 6.15187C26.9776 5.11875 28.634 4.81257 30.4161 5.00099C31.8291 5.15015 33.0695 5.62903 34.0838 6.61663C35.665 8.15218 35.9005 10.1132 35.7074 12.1701C35.6932 12.3051 35.2363 12.4951 34.9835 12.4966C32.2908 12.5202 29.5981 12.5108 26.9069 12.5108L26.0041 12.5029ZM26.1737 10.063H32.7854C32.9423 8.42852 31.5639 7.69842 30.1068 7.52571C28.3954 7.32317 26.2663 8.30291 26.1737 10.063Z" fill="#0569FF"/>
<path d="M21.6642 8.42295C20.7582 8.24238 20.014 7.98331 19.2635 7.96447C17.2522 7.9158 16.095 9.15937 16.1076 11.1989C16.1217 13.1082 16.0903 15.0158 16.1359 16.9235C16.15 17.5656 15.9286 17.7086 15.3289 17.7086C13.2359 17.6975 13.2343 17.718 13.2328 15.6297C13.2328 12.4895 13.2328 9.35716 13.2077 6.22009C13.2077 5.57321 13.3992 5.32042 14.0539 5.36753C14.6475 5.41148 15.2456 5.37694 15.8501 5.37694C15.9631 5.84797 16.0605 6.23736 16.2065 6.83714C17.2035 5.30001 18.5617 4.92005 20.1318 5.0535C21.1146 5.13829 22.0159 5.41306 22.8292 6.15257L21.6642 8.42295Z" fill="#0569FF"/>
</g>
</g>
<defs>
<clipPath id="clip0_35_607">
<rect width="66.34" height="22.9979" fill="white"/>
</clipPath>
</defs>
</svg>
