<svg width="127" height="64" viewBox="0 0 127 64" fill="none" xmlns="http://www.w3.org/2000/svg">
<path d="M46.9116 23.6888C47.8389 23.6888 48.6412 23.3645 49.3178 22.7164C49.92 22.1428 50.2333 21.544 50.2584 20.9198C50.2827 20.4968 50.12 20.0792 49.7694 19.6672C49.4178 19.2564 48.9796 19.0498 48.4533 19.0498C47.5501 19.0498 46.7293 19.3497 45.9898 19.9475C45.2503 20.5463 44.868 21.1705 44.8439 21.8187C44.7931 23.0658 45.4833 23.6888 46.9116 23.6888ZM100.15 27.5652C99.2467 26.3895 97.918 25.8005 96.1644 25.8005C93.4316 25.8005 91.164 26.8015 89.3597 28.8033C87.6787 30.6052 86.9018 32.5831 87.0283 34.7356C87.0366 34.8938 87.0508 35.048 87.0672 35.2004C86.9731 35.2413 86.8816 35.2824 86.785 35.3233C84.6534 36.2419 82.6857 36.7001 80.8814 36.7001C79.9782 36.7001 79.3014 36.3879 78.851 35.7629C81.2814 35.363 83.2999 34.4258 84.9052 32.9501C86.4083 31.5997 87.1103 30.2867 87.0103 29.0121C86.8597 27.0123 85.5568 26.0114 83.0999 26.0114C80.4432 26.0114 78.1368 27.0145 76.182 29.0185C74.4022 30.8491 73.4989 32.7785 73.4748 34.8081C73.4679 35.1365 73.4848 35.465 73.5257 35.7908C73.1052 36.0679 72.7869 36.2078 72.5728 36.2078C72.0958 36.2078 71.7959 36.109 71.6706 35.909C71.5455 35.709 71.495 35.3474 71.52 34.8223C71.52 34.6223 71.6761 33.8556 71.9905 32.5195C72.3037 31.1834 72.4728 30.1659 72.4982 29.4659C72.5475 28.443 72.3463 27.6562 71.896 27.1069C71.3696 26.4322 70.5049 26.1455 69.3018 26.2455C68.2999 26.3214 67.3338 26.697 66.4066 27.3739C65.855 27.775 65.2914 28.3134 64.7156 28.9902C64.5144 29.1661 64.3267 29.3298 64.1508 29.4791C64.175 28.4519 63.9749 27.6618 63.5497 27.1103C63.0224 26.4334 62.1454 26.1455 60.917 26.2455C59.4885 26.3707 58.1974 26.9355 57.0449 27.9375C56.5427 28.3638 56.1044 28.8659 55.7287 29.4418C55.7781 29.2166 55.8034 28.9781 55.8034 28.7276C55.8034 27.9508 55.6022 27.2673 55.2013 26.6784C54.8003 26.0894 54.274 25.8202 53.6223 25.8708C53.2466 25.896 52.5324 26.3973 51.4797 27.3739C50.025 28.7276 49.236 29.455 49.1108 29.5539L50.0127 30.569C50.7148 30.0625 51.1411 29.8087 51.2917 29.8087C51.5665 29.8087 51.6796 30.0339 51.6303 30.4835C51.6059 31.1338 51.4907 32.0392 51.2841 33.2017C51.156 33.922 51.0638 34.5436 51.006 35.0671L50.9727 35.095C50.0696 35.8377 49.4433 36.2079 49.0927 36.2079C48.2906 36.2079 47.9017 35.6719 47.927 34.5972C48.3027 32.2504 48.6545 30.3154 48.9807 28.7914C49.0797 27.8927 48.9356 27.1631 48.5478 26.6005C48.1588 26.0379 47.5513 25.7951 46.725 25.8698C46.1976 25.9204 45.3954 26.4213 44.3176 27.3739C43.9433 27.7134 43.569 28.0523 43.1946 28.3913C43.1204 26.6177 42.3111 25.7052 40.7621 25.6597C38.4416 25.5851 36.8692 26.8948 36.0461 29.5912C36.4713 29.4089 36.8844 29.3165 37.2856 29.3165C38.1372 29.3165 38.5129 29.7956 38.4129 30.7516C38.3624 31.3306 37.9866 32.1733 37.2856 33.2809C36.5834 34.3882 36.0572 34.9421 35.7066 34.9421C35.255 34.9421 34.8419 34.0894 34.4661 32.3819C34.3397 31.881 34.1146 30.601 33.7893 28.5429C33.4884 26.6354 32.686 25.7443 31.383 25.8696C30.8315 25.9202 30.004 26.4212 28.9021 27.3737C28.0931 28.1068 27.2784 28.8336 26.4582 29.554L27.2461 30.5692C27.9965 30.044 28.4349 29.7803 28.5602 29.7803C29.1349 29.7803 29.6721 30.6822 30.1731 32.4845L31.5246 37.442C32.1993 39.245 33.0255 40.1462 34.0012 40.1462C35.5768 40.1462 37.5029 38.666 39.7796 35.7062C41.3792 33.6474 42.4144 31.9078 42.8914 30.4841C43.5229 30.0176 43.913 29.7803 44.0548 29.7803C44.5052 29.7803 44.7317 30.1066 44.7317 30.7572C44.7317 30.8824 44.4868 31.8097 43.9976 33.5381C43.5086 35.2666 43.2515 36.5445 43.2273 37.3705C43.202 38.1728 43.3967 38.8231 43.8096 39.3242C44.2229 39.8253 44.8182 40.0759 45.5963 40.0759C47.2752 40.0759 48.9541 39.3497 50.6341 37.8969C50.7825 37.7668 50.9281 37.6338 51.0708 37.4977C51.2038 38.0599 51.4314 38.5239 51.7618 38.8813C52.4849 39.6569 53.7066 40.0197 55.4274 39.9691C55.1977 39.4175 55.1075 38.4407 55.1581 37.0366C55.2328 35.4828 55.635 33.9908 56.3624 32.5624C57.0899 31.134 57.7678 30.4188 58.3962 30.4188C59.1237 30.4188 59.4632 30.8824 59.4126 31.8097C59.3873 32.4372 59.2642 33.1513 59.0434 33.9534C58.8215 34.7557 58.6985 35.5576 58.6743 36.3597C58.6237 37.6388 58.9107 38.553 59.5369 39.1045C60.2357 39.7308 61.461 40.0198 63.2102 39.9692C62.9486 39.3934 62.8432 38.566 62.8938 37.4871C62.9685 35.9588 63.485 34.3797 64.4409 32.7503C65.3463 31.1968 66.1253 30.4189 66.7789 30.4189C67.3832 30.4189 67.6724 30.8958 67.6469 31.8474C67.6218 32.4735 67.4646 33.3505 67.1764 34.4777C66.8887 35.6051 66.7315 36.5686 66.7073 37.3707C66.6568 39.1749 67.4457 40.076 69.0764 40.076C70.7551 40.076 72.4341 39.3498 74.1141 37.8971C74.142 37.8727 74.1678 37.8474 74.1954 37.8227C74.2532 37.9222 74.3122 38.021 74.3767 38.1168C75.2535 39.4693 76.7083 40.1462 78.7388 40.1462C81.4704 40.1462 84.1655 39.3835 86.8224 37.8564C87.1205 37.6883 87.4033 37.5204 87.6741 37.3522C87.8414 37.6902 88.037 38.0084 88.2686 38.3013C89.296 39.5782 90.8001 40.2164 92.7801 40.2164C95.1611 40.2164 97.1544 39.3781 98.7586 37.7014C100.363 36.0248 101.214 34.0348 101.315 31.7319C101.39 30.0308 101.002 28.642 100.15 27.5652ZM78.2565 34.3292C78.2422 34.0051 78.2422 33.8424 78.2565 33.8424C78.2808 32.8953 78.6818 31.9042 79.4574 30.8691C80.2331 29.8341 80.9958 29.3165 81.7472 29.3165C82.3231 29.3165 82.5977 29.6539 82.5735 30.3262C82.5482 30.825 82.1725 31.4745 81.4473 32.2721C80.5463 33.1953 79.4827 33.8808 78.2565 34.3292ZM97.0665 31.59C97.0161 32.7953 96.6533 33.9501 95.9766 35.0554C95.1745 36.3872 94.2087 37.0518 93.0812 37.0518C92.5791 37.0518 92.1901 36.7761 91.9155 36.2234C91.6649 35.7466 91.5518 35.1939 91.5771 34.5653C91.6266 33.2853 92.0024 32.08 92.7055 30.9493C93.5317 29.5681 94.5844 28.8769 95.8634 28.8769C96.2633 28.8769 96.571 29.1605 96.7841 29.7253C96.9974 30.2901 97.0918 30.9121 97.0665 31.59Z" fill="black"/>
</svg>
